font.ufo
<glyph name="exclam" format="1">
  <advance width="249"/>
  <unicode hex="0021"/>
  <outline>
    <contour>
      <point x="100" y="193" type="line"/>
      <point x="116" y="188"/>
      <point x="132" y="188"/>
      <point x="147" y="193" type="curve"/>
      <point x="167" y="697" type="line"/>
      <point x="141" y="701"/>
      <point x="111" y="700"/>
      <point x="89" y="692" type="curve"/>
    </contour>
    <contour>
      <point x="125" y="-15" type="curve" smooth="yes"/>
      <point x="155" y="-15"/>
      <point x="177" y="8"/>
      <point x="177" y="39" type="curve" smooth="yes"/>
      <point x="177" y="69"/>
      <point x="155" y="92"/>
      <point x="125" y="92" type="curve" smooth="yes"/>
      <point x="94" y="92"/>
      <point x="72" y="69"/>
      <point x="72" y="39" type="curve" smooth="yes"/>
      <point x="72" y="8"/>
      <point x="94" y="-15"/>
    </contour>
  </outline>
</glyph>
<glyph name="numbersign" format="1">
  <advance width="704"/>
  <unicode hex="0023"/>
  <outline>
    <contour>
      <point x="398" y="243" type="line"/>
      <point x="232" y="243" type="line"/>
      <point x="282" y="426" type="line"/>
      <point x="449" y="426" type="line"/>
    </contour>
    <contour>
      <point x="455" y="243" type="line"/>
      <point x="505" y="426" type="line"/>
      <point x="648" y="426" type="line"/>
      <point x="646" y="446"/>
      <point x="641" y="464"/>
      <point x="630" y="478" type="curve"/>
      <point x="519" y="478" type="line"/>
      <point x="566" y="650" type="line"/>
      <point x="510" y="650" type="line"/>
      <point x="463" y="478" type="line"/>
      <point x="296" y="477" type="line"/>
      <point x="343" y="650" type="line"/>
      <point x="287" y="650" type="line"/>
      <point x="239" y="477" type="line"/>
      <point x="87" y="477" type="line"/>
      <point x="89" y="458"/>
      <point x="95" y="441"/>
      <point x="105" y="426" type="curve"/>
      <point x="226" y="426" type="line"/>
      <point x="175" y="243" type="line"/>
      <point x="56" y="243" type="line"/>
      <point x="57" y="222"/>
      <point x="61" y="206"/>
      <point x="74" y="190" type="curve"/>
      <point x="161" y="190" type="line"/>
      <point x="114" y="17" type="line"/>
      <point x="171" y="17" type="line"/>
      <point x="218" y="190" type="line"/>
      <point x="384" y="190" type="line"/>
      <point x="337" y="17" type="line"/>
      <point x="394" y="17" type="line"/>
      <point x="441" y="190" type="line"/>
      <point x="616" y="190" type="line"/>
      <point x="615" y="210"/>
      <point x="610" y="227"/>
      <point x="599" y="243" type="curve"/>
    </contour>
  </outline>
</glyph>
<glyph name="dollar" format="1">
  <advance width="467"/>
  <unicode hex="0024"/>
  <outline>
    <contour>
      <point x="220" y="-17" type="curve" smooth="yes"/>
      <point x="139" y="-17"/>
      <point x="41" y="21"/>
      <point x="41" y="87" type="curve" smooth="yes"/>
      <point x="41" y="114"/>
      <point x="59" y="138"/>
      <point x="92" y="138" type="curve"/>
      <point x="106" y="68"/>
      <point x="156" y="33"/>
      <point x="229" y="33" type="curve" smooth="yes"/>
      <point x="301" y="33"/>
      <point x="365" y="69"/>
      <point x="365" y="149" type="curve" smooth="yes"/>
      <point x="365" y="224"/>
      <point x="311" y="248"/>
      <point x="235" y="279" type="curve" smooth="yes"/>
      <point x="141" y="316"/>
      <point x="55" y="360"/>
      <point x="55" y="445" type="curve" smooth="yes"/>
      <point x="55" y="543"/>
      <point x="145" y="602"/>
      <point x="244" y="603" type="curve" smooth="yes"/>
      <point x="304" y="604"/>
      <point x="400" y="583"/>
      <point x="400" y="508" type="curve" smooth="yes"/>
      <point x="400" y="467"/>
      <point x="371" y="452"/>
      <point x="344" y="454" type="curve"/>
      <point x="344" y="514"/>
      <point x="314" y="552"/>
      <point x="236" y="552" type="curve" smooth="yes"/>
      <point x="169" y="552"/>
      <point x="119" y="521"/>
      <point x="119" y="466" type="curve" smooth="yes"/>
      <point x="119" y="396"/>
      <point x="196" y="365"/>
      <point x="266" y="337" type="curve" smooth="yes"/>
      <point x="360" y="300"/>
      <point x="426" y="265"/>
      <point x="426" y="174" type="curve" smooth="yes"/>
      <point x="426" y="74"/>
      <point x="346" y="-17"/>
    </contour>
    <contour>
      <point x="252" y="7" type="line"/>
      <point x="259" y="-102" type="line"/>
      <point x="241" y="-109"/>
      <point x="211" y="-109"/>
      <point x="194" y="-102" type="curve"/>
      <point x="202" y="5" type="line"/>
    </contour>
    <contour>
      <point x="203" y="573" type="line"/>
      <point x="194" y="688" type="line"/>
      <point x="211" y="694"/>
      <point x="241" y="695"/>
      <point x="259" y="688" type="curve"/>
      <point x="251" y="574" type="line"/>
    </contour>
  </outline>
</glyph>
<glyph name="percent" format="1">
  <advance width="752"/>
  <unicode hex="0025"/>
  <outline>
    <contour>
      <point x="585" y="622" type="line"/>
      <point x="522" y="622" type="line"/>
      <point x="168" y="0" type="line"/>
      <point x="231" y="0" type="line"/>
    </contour>
    <contour>
      <point x="177" y="580" type="curve" smooth="yes"/>
      <point x="229" y="580"/>
      <point x="255" y="533"/>
      <point x="255" y="453" type="curve" smooth="yes"/>
      <point x="255" y="364"/>
      <point x="227" y="323"/>
      <point x="176" y="323" type="curve" smooth="yes"/>
      <point x="128" y="323"/>
      <point x="99" y="364"/>
      <point x="99" y="451" type="curve" smooth="yes"/>
      <point x="99" y="533"/>
      <point x="124" y="580"/>
    </contour>
    <contour>
      <point x="178" y="622" type="curve" smooth="yes"/>
      <point x="91" y="622"/>
      <point x="45" y="563"/>
      <point x="45" y="450" type="curve" smooth="yes"/>
      <point x="45" y="334"/>
      <point x="95" y="280"/>
      <point x="176" y="280" type="curve" smooth="yes"/>
      <point x="260" y="280"/>
      <point x="309" y="339"/>
      <point x="309" y="453" type="curve" smooth="yes"/>
      <point x="309" y="564"/>
      <point x="265" y="622"/>
    </contour>
    <contour>
      <point x="575" y="285" type="curve" smooth="yes"/>
      <point x="626" y="285"/>
      <point x="653" y="238"/>
      <point x="653" y="158" type="curve" smooth="yes"/>
      <point x="653" y="69"/>
      <point x="624" y="28"/>
      <point x="574" y="28" type="curve" smooth="yes"/>
      <point x="525" y="28"/>
      <point x="496" y="69"/>
      <point x="496" y="155" type="curve" smooth="yes"/>
      <point x="496" y="238"/>
      <point x="522" y="285"/>
    </contour>
    <contour>
      <point x="576" y="327" type="curve" smooth="yes"/>
      <point x="489" y="327"/>
      <point x="443" y="267"/>
      <point x="443" y="155" type="curve" smooth="yes"/>
      <point x="443" y="39"/>
      <point x="493" y="-15"/>
      <point x="574" y="-15" type="curve" smooth="yes"/>
      <point x="658" y="-15"/>
      <point x="707" y="44"/>
      <point x="707" y="158" type="curve" smooth="yes"/>
      <point x="707" y="268"/>
      <point x="662" y="327"/>
    </contour>
  </outline>
</glyph>
<glyph name="ampersand" format="1">
  <advance width="726"/>
  <unicode hex="0026"/>
  <outline>
    <contour>
      <point x="263" y="675" type="curve" smooth="yes"/>
      <point x="161" y="675"/>
      <point x="100" y="614"/>
      <point x="100" y="522" type="curve" smooth="yes"/>
      <point x="100" y="458"/>
      <point x="139" y="382"/>
      <point x="248" y="263" type="curve" smooth="yes"/>
      <point x="378" y="122"/>
      <point x="534" y="-17"/>
      <point x="640" y="-17" type="curve" smooth="yes"/>
      <point x="689" y="-17"/>
      <point x="711" y="13"/>
      <point x="711" y="39" type="curve" smooth="yes"/>
      <point x="711" y="52"/>
      <point x="706" y="64"/>
      <point x="697" y="72" type="curve"/>
      <point x="685" y="54"/>
      <point x="660" y="44"/>
      <point x="639" y="44" type="curve" smooth="yes"/>
      <point x="565" y="44"/>
      <point x="412" y="177"/>
      <point x="290" y="312" type="curve" smooth="yes"/>
      <point x="207" y="405"/>
      <point x="163" y="480"/>
      <point x="163" y="531" type="curve" smooth="yes"/>
      <point x="163" y="583"/>
      <point x="194" y="627"/>
      <point x="262" y="627" type="curve" smooth="yes"/>
      <point x="292" y="627"/>
      <point x="344" y="605"/>
      <point x="344" y="539" type="curve" smooth="yes"/>
      <point x="344" y="476"/>
      <point x="312" y="403"/>
      <point x="226" y="374" type="curve"/>
      <point x="246" y="339" type="line"/>
      <point x="321" y="361"/>
      <point x="408" y="434"/>
      <point x="408" y="539" type="curve" smooth="yes"/>
      <point x="408" y="629"/>
      <point x="329" y="675"/>
    </contour>
    <contour>
      <point x="231" y="376" type="line"/>
      <point x="86" y="324"/>
      <point x="39" y="230"/>
      <point x="39" y="155" type="curve" smooth="yes"/>
      <point x="39" y="58"/>
      <point x="107" y="-18"/>
      <point x="248" y="-18" type="curve" smooth="yes"/>
      <point x="404" y="-18"/>
      <point x="544" y="84"/>
      <point x="586" y="308" type="curve"/>
      <point x="532" y="302" type="line"/>
      <point x="496" y="116"/>
      <point x="375" y="34"/>
      <point x="262" y="34" type="curve" smooth="yes"/>
      <point x="154" y="34"/>
      <point x="111" y="100"/>
      <point x="111" y="169" type="curve" smooth="yes"/>
      <point x="111" y="238"/>
      <point x="162" y="307"/>
      <point x="254" y="339" type="curve"/>
    </contour>
    <contour>
      <point x="497" y="333" type="line"/>
      <point x="465" y="333"/>
      <point x="469" y="302"/>
      <point x="470" y="292" type="curve"/>
      <point x="531" y="286" type="line"/>
      <point x="567" y="288" type="line"/>
      <point x="615" y="291" type="line" smooth="yes"/>
      <point x="651" y="293"/>
      <point x="644" y="323"/>
      <point x="645" y="333" type="curve"/>
    </contour>
  </outline>
</glyph>
<glyph name="quotesingle" format="1">
  <advance width="181"/>
  <unicode hex="0027"/>
  <outline>
    <contour>
      <point x="64" y="500" type="line"/>
      <point x="83" y="496"/>
      <point x="95" y="496"/>
      <point x="112" y="500" type="curve"/>
      <point x="131" y="685" type="line"/>
      <point x="101" y="691"/>
      <point x="74" y="688"/>
      <point x="50" y="681" type="curve"/>
    </contour>
  </outline>
</glyph>
<glyph name="parenleft" format="1">
  <advance width="279"/>
  <unicode hex="0028"/>
  <outline>
    <contour>
      <point x="231" y="710" type="line"/>
      <point x="157" y="630"/>
      <point x="58" y="480"/>
      <point x="58" y="252" type="curve" smooth="yes"/>
      <point x="58" y="24"/>
      <point x="149" y="-109"/>
      <point x="225" y="-192" type="curve"/>
      <point x="260" y="-162" type="line"/>
      <point x="216" y="-106"/>
      <point x="132" y="29"/>
      <point x="132" y="256" type="curve" smooth="yes"/>
      <point x="132" y="477"/>
      <point x="217" y="612"/>
      <point x="264" y="683" type="curve"/>
    </contour>
  </outline>
</glyph>
<glyph name="asterisk" format="1">
  <advance width="573"/>
  <unicode hex="002A"/>
  <outline>
    <contour>
      <point x="268" y="552" type="line"/>
      <point x="293" y="704" type="line"/>
      <point x="268" y="712"/>
      <point x="233" y="712"/>
      <point x="206" y="704" type="curve"/>
      <point x="232" y="551" type="line"/>
      <point x="95" y="624" type="line"/>
      <point x="80" y="604"/>
      <point x="70" y="570"/>
      <point x="68" y="540" type="curve"/>
      <point x="221" y="517" type="line"/>
      <point x="111" y="408" type="line"/>
      <point x="126" y="385"/>
      <point x="155" y="364"/>
      <point x="182" y="356" type="curve"/>
      <point x="250" y="495" type="line"/>
      <point x="318" y="357" type="line"/>
      <point x="346" y="365"/>
      <point x="374" y="386"/>
      <point x="389" y="408" type="curve"/>
      <point x="278" y="518" type="line"/>
      <point x="432" y="541" type="line"/>
      <point x="432" y="568"/>
      <point x="422" y="602"/>
      <point x="406" y="624" type="curve"/>
    </contour>
  </outline>
</glyph>
<glyph name="plus" format="1">
  <advance width="478"/>
  <unicode hex="002B"/>
  <outline>
    <contour>
      <point x="50" y="314" type="line"/>
      <point x="50" y="258" type="line"/>
      <point x="428" y="258" type="line"/>
      <point x="428" y="314" type="line"/>
    </contour>
    <contour>
      <point x="269" y="475" type="line"/>
      <point x="210" y="475" type="line"/>
      <point x="210" y="97" type="line"/>
      <point x="269" y="97" type="line"/>
    </contour>
  </outline>
</glyph>
<glyph name="comma" format="1">
  <advance width="190"/>
  <unicode hex="002C"/>
  <outline>
    <contour>
      <point x="90" y="4" type="line"/>
      <point x="90" y="-15"/>
      <point x="76" y="-65"/>
      <point x="45" y="-87" type="curve"/>
      <point x="45" y="-92"/>
      <point x="58" y="-107"/>
      <point x="65" y="-104" type="curve"/>
      <point x="103" y="-88"/>
      <point x="148" y="-26"/>
      <point x="148" y="36" type="curve" smooth="yes"/>
      <point x="148" y="69"/>
      <point x="126" y="90"/>
      <point x="95" y="90" type="curve" smooth="yes"/>
      <point x="63" y="90"/>
      <point x="42" y="69"/>
      <point x="42" y="37" type="curve" smooth="yes"/>
      <point x="42" y="10"/>
      <point x="61" y="-16"/>
      <point x="93" y="-16" type="curve" smooth="yes"/>
      <point x="102" y="-16"/>
      <point x="107" y="-13"/>
      <point x="118" y="-9" type="curve"/>
    </contour>
  </outline>
</glyph>
<glyph name="hyphen" format="1">
  <advance width="388"/>
  <unicode hex="002D"/>
  <outline>
    <contour>
      <point x="48" y="279" type="line"/>
      <point x="48" y="220" type="line"/>
      <point x="340" y="220" type="line"/>
      <point x="340" y="279" type="line"/>
    </contour>
  </outline>
</glyph>
<glyph name="period" format="1">
  <advance width="190"/>
  <unicode hex="002E"/>
  <outline>
    <contour>
      <point x="95" y="-15" type="curve" smooth="yes"/>
      <point x="126" y="-15"/>
      <point x="148" y="8"/>
      <point x="148" y="39" type="curve" smooth="yes"/>
      <point x="148" y="69"/>
      <point x="126" y="92"/>
      <point x="95" y="92" type="curve" smooth="yes"/>
      <point x="64" y="92"/>
      <point x="42" y="69"/>
      <point x="42" y="39" type="curve" smooth="yes"/>
      <point x="42" y="8"/>
      <point x="64" y="-15"/>
    </contour>
  </outline>
</glyph>
<glyph name="slash" format="1">
  <advance width="402"/>
  <unicode hex="002F"/>
  <outline>
    <contour>
      <point x="87" y="-131" type="line"/>
      <point x="382" y="696" type="line"/>
      <point x="314" y="696" type="line"/>
      <point x="20" y="-131" type="line"/>
    </contour>
  </outline>
</glyph>
<glyph name="zero" format="1">
  <advance width="504"/>
  <unicode hex="0030"/>
  <outline>
    <contour>
      <point x="253" y="622" type="curve" smooth="yes"/>
      <point x="105" y="621"/>
      <point x="35" y="516"/>
      <point x="35" y="297" type="curve" smooth="yes"/>
      <point x="35" y="87"/>
      <point x="105" y="-15"/>
      <point x="252" y="-15" type="curve" smooth="yes"/>
      <point x="399" y="-15"/>
      <point x="469" y="85"/>
      <point x="469" y="299" type="curve" smooth="yes"/>
      <point x="469" y="517"/>
      <point x="402" y="623"/>
    </contour>
    <contour>
      <point x="253" y="570" type="curve" smooth="yes"/>
      <point x="352" y="570"/>
      <point x="397" y="485"/>
      <point x="397" y="295" type="curve" smooth="yes"/>
      <point x="397" y="120"/>
      <point x="354" y="37"/>
      <point x="252" y="37" type="curve" smooth="yes"/>
      <point x="154" y="37"/>
      <point x="107" y="115"/>
      <point x="107" y="295" type="curve" smooth="yes"/>
      <point x="107" y="476"/>
      <point x="151" y="570"/>
    </contour>
  </outline>
</glyph>
<glyph name="one" format="1">
  <advance width="356"/>
  <unicode hex="0031"/>
  <outline>
    <contour>
      <point x="223" y="588" type="line"/>
      <point x="223" y="613"/>
      <point x="211" y="622"/>
      <point x="194" y="622" type="curve" smooth="yes"/>
      <point x="183" y="622"/>
      <point x="169" y="620"/>
      <point x="156" y="612" type="curve" smooth="yes"/>
      <point x="42" y="548" type="line"/>
      <point x="42" y="535"/>
      <point x="56" y="506"/>
      <point x="80" y="514" type="curve" smooth="yes"/>
      <point x="152" y="540" type="line"/>
      <point x="152" y="0" type="line"/>
      <point x="223" y="0" type="line"/>
    </contour>
    <contour>
      <point x="223" y="48" type="line"/>
      <point x="152" y="46" type="line"/>
      <point x="88" y="43" type="line" smooth="yes"/>
      <point x="52" y="41"/>
      <point x="58" y="10"/>
      <point x="57" y="0" type="curve"/>
      <point x="285" y="0" type="line" smooth="yes"/>
      <point x="318" y="0"/>
      <point x="314" y="32"/>
      <point x="313" y="42" type="curve"/>
    </contour>
  </outline>
</glyph>
<glyph name="two" format="1">
  <advance width="456"/>
  <unicode hex="0032"/>
  <outline>
    <contour>
      <point x="229" y="622" type="curve" smooth="yes"/>
      <point x="125" y="622"/>
      <point x="51" y="564"/>
      <point x="51" y="492" type="curve" smooth="yes"/>
      <point x="51" y="449"/>
      <point x="82" y="436"/>
      <point x="109" y="437" type="curve"/>
      <point x="109" y="518"/>
      <point x="145" y="570"/>
      <point x="223" y="570" type="curve" smooth="yes"/>
      <point x="292" y="570"/>
      <point x="332" y="524"/>
      <point x="332" y="455" type="curve" smooth="yes"/>
      <point x="332" y="308"/>
      <point x="148" y="146"/>
      <point x="36" y="36" type="curve"/>
      <point x="34" y="23"/>
      <point x="39" y="9"/>
      <point x="42" y="0" type="curve"/>
      <point x="421" y="0" type="line"/>
      <point x="421" y="145" type="line"/>
      <point x="410" y="152"/>
      <point x="378" y="145"/>
      <point x="374" y="114" type="curve" smooth="yes"/>
      <point x="365" y="53" type="line"/>
      <point x="124" y="50" type="line"/>
      <point x="205" y="129"/>
      <point x="406" y="295"/>
      <point x="406" y="462" type="curve" smooth="yes"/>
      <point x="406" y="560"/>
      <point x="337" y="622"/>
    </contour>
  </outline>
</glyph>
<glyph name="three" format="1">
  <advance width="435"/>
  <unicode hex="0033"/>
  <outline>
    <contour>
      <point x="214" y="622" type="curve" smooth="yes"/>
      <point x="126" y="622"/>
      <point x="64" y="577"/>
      <point x="60" y="527" type="curve" smooth="yes"/>
      <point x="56" y="496"/>
      <point x="78" y="475"/>
      <point x="116" y="473" type="curve"/>
      <point x="117" y="531"/>
      <point x="147" y="571"/>
      <point x="209" y="571" type="curve" smooth="yes"/>
      <point x="267" y="571"/>
      <point x="304" y="535"/>
      <point x="304" y="477" type="curve" smooth="yes"/>
      <point x="304" y="370"/>
      <point x="182" y="344"/>
      <point x="130" y="344" type="curve"/>
      <point x="131" y="289" type="line"/>
      <point x="220" y="296"/>
      <point x="329" y="275"/>
      <point x="332" y="168" type="curve" smooth="yes"/>
      <point x="334" y="90"/>
      <point x="278" y="35"/>
      <point x="196" y="35" type="curve" smooth="yes"/>
      <point x="125" y="35"/>
      <point x="88" y="75"/>
      <point x="78" y="127" type="curve"/>
      <point x="42" y="120"/>
      <point x="34" y="96"/>
      <point x="34" y="78" type="curve" smooth="yes"/>
      <point x="34" y="21"/>
      <point x="101" y="-15"/>
      <point x="188" y="-15" type="curve" smooth="yes"/>
      <point x="319" y="-15"/>
      <point x="408" y="65"/>
      <point x="408" y="171" type="curve" smooth="yes"/>
      <point x="408" y="280"/>
      <point x="313" y="348"/>
      <point x="175" y="332" type="curve"/>
      <point x="177" y="311" type="line"/>
      <point x="323" y="332"/>
      <point x="379" y="408"/>
      <point x="379" y="483" type="curve" smooth="yes"/>
      <point x="379" y="568"/>
      <point x="310" y="622"/>
    </contour>
  </outline>
</glyph>
<glyph name="four" format="1">
  <advance width="464"/>
  <unicode hex="0034"/>
  <outline>
    <contour>
      <point x="359" y="614" type="line"/>
      <point x="338" y="619"/>
      <point x="317" y="618"/>
      <point x="296" y="612" type="curve"/>
      <point x="19" y="193" type="line"/>
      <point x="21" y="173"/>
      <point x="32" y="158"/>
      <point x="40" y="145" type="curve"/>
      <point x="449" y="145" type="line"/>
      <point x="449" y="197" type="line"/>
      <point x="45" y="197" type="line"/>
      <point x="65" y="173" type="line"/>
      <point x="340" y="598" type="line"/>
      <point x="292" y="579" type="line"/>
      <point x="292" y="-10" type="line"/>
      <point x="361" y="0" type="line"/>
    </contour>
  </outline>
</glyph>
<glyph name="five" format="1">
  <advance width="425"/>
  <unicode hex="0035"/>
  <outline>
    <contour>
      <point x="91" y="613" type="line"/>
      <point x="77" y="301" type="line"/>
      <point x="90" y="294" type="line"/>
      <point x="119" y="309"/>
      <point x="148" y="319"/>
      <point x="193" y="319" type="curve" smooth="yes"/>
      <point x="258" y="319"/>
      <point x="328" y="292"/>
      <point x="328" y="191" type="curve" smooth="yes"/>
      <point x="328" y="97"/>
      <point x="272" y="35"/>
      <point x="190" y="35" type="curve" smooth="yes"/>
      <point x="106" y="35"/>
      <point x="85" y="78"/>
      <point x="80" y="113" type="curve"/>
      <point x="65" y="112"/>
      <point x="34" y="104"/>
      <point x="34" y="70" type="curve" smooth="yes"/>
      <point x="34" y="19"/>
      <point x="91" y="-15"/>
      <point x="186" y="-15" type="curve" smooth="yes"/>
      <point x="313" y="-15"/>
      <point x="402" y="71"/>
      <point x="402" y="202" type="curve" smooth="yes"/>
      <point x="402" y="323"/>
      <point x="319" y="377"/>
      <point x="216" y="377" type="curve" smooth="yes"/>
      <point x="169" y="377"/>
      <point x="127" y="367"/>
      <point x="87" y="351" type="curve"/>
      <point x="132" y="351" type="line"/>
      <point x="142" y="591" type="line"/>
      <point x="111" y="553" type="line"/>
      <point x="353" y="553" type="line"/>
      <point x="357" y="612" type="line"/>
    </contour>
  </outline>
</glyph>
<glyph name="six" format="1">
  <advance width="472"/>
  <unicode hex="0036"/>
  <outline>
    <contour>
      <point x="248" y="-15" type="curve" smooth="yes"/>
      <point x="368" y="-15"/>
      <point x="438" y="76"/>
      <point x="438" y="184" type="curve" smooth="yes"/>
      <point x="438" y="290"/>
      <point x="378" y="352"/>
      <point x="273" y="352" type="curve" smooth="yes"/>
      <point x="203" y="352"/>
      <point x="143" y="327"/>
      <point x="93" y="284" type="curve"/>
      <point x="95" y="228" type="line"/>
      <point x="137" y="277"/>
      <point x="192" y="301"/>
      <point x="251" y="301" type="curve" smooth="yes"/>
      <point x="323" y="301"/>
      <point x="365" y="258"/>
      <point x="365" y="173" type="curve" smooth="yes"/>
      <point x="365" y="86"/>
      <point x="323" y="35"/>
      <point x="250" y="35" type="curve" smooth="yes"/>
      <point x="170" y="35"/>
      <point x="125" y="101"/>
      <point x="125" y="246" type="curve" smooth="yes"/>
      <point x="125" y="456"/>
      <point x="189" y="573"/>
      <point x="291" y="573" type="curve" smooth="yes"/>
      <point x="345" y="573"/>
      <point x="364" y="540"/>
      <point x="364" y="509" type="curve"/>
      <point x="403" y="512"/>
      <point x="412" y="537"/>
      <point x="412" y="558" type="curve" smooth="yes"/>
      <point x="412" y="594"/>
      <point x="375" y="622"/>
      <point x="299" y="622" type="curve" smooth="yes"/>
      <point x="143" y="622"/>
      <point x="51" y="493"/>
      <point x="51" y="247" type="curve" smooth="yes"/>
      <point x="51" y="77"/>
      <point x="115" y="-15"/>
    </contour>
  </outline>
</glyph>
<glyph name="seven" format="1">
  <advance width="387"/>
  <unicode hex="0037"/>
  <outline>
    <contour>
      <point x="18" y="613" type="line"/>
      <point x="18" y="470" type="line"/>
      <point x="25" y="463"/>
      <point x="61" y="468"/>
      <point x="65" y="493" type="curve" smooth="yes"/>
      <point x="74" y="557" type="line"/>
      <point x="309" y="560" type="line"/>
      <point x="58" y="17" type="line"/>
      <point x="130" y="-7" type="line"/>
      <point x="379" y="580" type="line"/>
      <point x="379" y="593"/>
      <point x="375" y="605"/>
      <point x="370" y="613" type="curve"/>
    </contour>
  </outline>
</glyph>
<glyph name="eight" format="1">
  <advance width="454"/>
  <unicode hex="0038"/>
  <outline>
    <contour>
      <point x="332" y="481" type="curve" smooth="yes"/>
      <point x="332" y="394"/>
      <point x="255" y="346"/>
      <point x="219" y="327" type="curve"/>
      <point x="245" y="305" type="line"/>
      <point x="293" y="327"/>
      <point x="395" y="382"/>
      <point x="395" y="487" type="curve" smooth="yes"/>
      <point x="395" y="575"/>
      <point x="323" y="622"/>
      <point x="241" y="622" type="curve" smooth="yes"/>
      <point x="146" y="622"/>
      <point x="81" y="559"/>
      <point x="81" y="471" type="curve" smooth="yes"/>
      <point x="81" y="370"/>
      <point x="168" y="325"/>
      <point x="242" y="284" type="curve" smooth="yes"/>
      <point x="307" y="249"/>
      <point x="361" y="209"/>
      <point x="361" y="145" type="curve" smooth="yes"/>
      <point x="361" y="85"/>
      <point x="313" y="34"/>
      <point x="231" y="34" type="curve" smooth="yes"/>
      <point x="148" y="34"/>
      <point x="111" y="87"/>
      <point x="111" y="144" type="curve" smooth="yes"/>
      <point x="111" y="215"/>
      <point x="167" y="280"/>
      <point x="235" y="310" type="curve"/>
      <point x="220" y="343" type="line"/>
      <point x="138" y="313"/>
      <point x="39" y="238"/>
      <point x="43" y="133" type="curve" smooth="yes"/>
      <point x="45" y="57"/>
      <point x="102" y="-15"/>
      <point x="220" y="-15" type="curve" smooth="yes"/>
      <point x="352" y="-15"/>
      <point x="424" y="77"/>
      <point x="424" y="168" type="curve" smooth="yes"/>
      <point x="424" y="265"/>
      <point x="341" y="309"/>
      <point x="269" y="351" type="curve" smooth="yes"/>
      <point x="194" y="394"/>
      <point x="144" y="427"/>
      <point x="144" y="484" type="curve" smooth="yes"/>
      <point x="144" y="538"/>
      <point x="185" y="576"/>
      <point x="242" y="576" type="curve" smooth="yes"/>
      <point x="299" y="576"/>
      <point x="332" y="538"/>
    </contour>
  </outline>
</glyph>
<glyph name="nine" format="1">
  <advance width="441"/>
  <unicode hex="0039"/>
  <outline>
    <contour>
      <point x="211" y="622" type="curve" smooth="yes"/>
      <point x="90" y="622"/>
      <point x="21" y="532"/>
      <point x="21" y="423" type="curve" smooth="yes"/>
      <point x="21" y="318"/>
      <point x="81" y="255"/>
      <point x="186" y="255" type="curve" smooth="yes"/>
      <point x="256" y="255"/>
      <point x="316" y="280"/>
      <point x="366" y="323" type="curve"/>
      <point x="364" y="379" type="line"/>
      <point x="322" y="330"/>
      <point x="267" y="306"/>
      <point x="207" y="306" type="curve" smooth="yes"/>
      <point x="135" y="306"/>
      <point x="94" y="349"/>
      <point x="94" y="435" type="curve" smooth="yes"/>
      <point x="94" y="521"/>
      <point x="136" y="573"/>
      <point x="209" y="573" type="curve" smooth="yes"/>
      <point x="288" y="573"/>
      <point x="334" y="506"/>
      <point x="334" y="361" type="curve" smooth="yes"/>
      <point x="334" y="151"/>
      <point x="270" y="34"/>
      <point x="167" y="34" type="curve" smooth="yes"/>
      <point x="114" y="34"/>
      <point x="94" y="67"/>
      <point x="94" y="98" type="curve"/>
      <point x="56" y="95"/>
      <point x="47" y="69"/>
      <point x="47" y="50" type="curve" smooth="yes"/>
      <point x="47" y="13"/>
      <point x="84" y="-15"/>
      <point x="159" y="-15" type="curve" smooth="yes"/>
      <point x="315" y="-15"/>
      <point x="408" y="114"/>
      <point x="408" y="359" type="curve" smooth="yes"/>
      <point x="408" y="530"/>
      <point x="345" y="622"/>
    </contour>
  </outline>
</glyph>
<glyph name="colon" format="1">
  <advance width="192"/>
  <unicode hex="003A"/>
  <outline>
    <contour>
      <point x="96" y="-15" type="curve" smooth="yes"/>
      <point x="127" y="-15"/>
      <point x="150" y="8"/>
      <point x="150" y="39" type="curve" smooth="yes"/>
      <point x="150" y="70"/>
      <point x="127" y="94"/>
      <point x="96" y="94" type="curve" smooth="yes"/>
      <point x="65" y="94"/>
      <point x="42" y="70"/>
      <point x="42" y="39" type="curve" smooth="yes"/>
      <point x="42" y="8"/>
      <point x="65" y="-15"/>
    </contour>
    <contour>
      <point x="96" y="296" type="curve" smooth="yes"/>
      <point x="127" y="296"/>
      <point x="150" y="320"/>
      <point x="150" y="351" type="curve" smooth="yes"/>
      <point x="150" y="382"/>
      <point x="127" y="406"/>
      <point x="96" y="406" type="curve" smooth="yes"/>
      <point x="65" y="406"/>
      <point x="42" y="382"/>
      <point x="42" y="351" type="curve" smooth="yes"/>
      <point x="42" y="320"/>
      <point x="65" y="296"/>
    </contour>
  </outline>
</glyph>
<glyph name="semicolon" format="1">
  <advance width="204"/>
  <unicode hex="003B"/>
  <outline>
    <contour>
      <point x="95" y="303" type="curve" smooth="yes"/>
      <point x="126" y="303"/>
      <point x="148" y="326"/>
      <point x="148" y="356" type="curve" smooth="yes"/>
      <point x="148" y="387"/>
      <point x="126" y="410"/>
      <point x="95" y="410" type="curve" smooth="yes"/>
      <point x="64" y="410"/>
      <point x="42" y="387"/>
      <point x="42" y="356" type="curve" smooth="yes"/>
      <point x="42" y="326"/>
      <point x="64" y="303"/>
    </contour>
    <component base="comma" xOffset="14" yOffset="-4"/>
  </outline>
</glyph>
<glyph name="less" format="1">
  <advance width="455"/>
  <unicode hex="003C"/>
  <outline>
    <contour>
      <point x="38" y="309" type="line"/>
      <point x="38" y="267" type="line"/>
      <point x="375" y="91" type="line"/>
      <point x="403" y="144" type="line"/>
      <point x="83" y="310" type="line"/>
      <point x="83" y="266" type="line"/>
      <point x="404" y="433" type="line"/>
      <point x="376" y="486" type="line"/>
    </contour>
  </outline>
</glyph>
<glyph name="equal" format="1">
  <advance width="478"/>
  <unicode hex="003D"/>
  <outline>
    <contour>
      <point x="50" y="384" type="line"/>
      <point x="50" y="328" type="line"/>
      <point x="428" y="328" type="line"/>
      <point x="428" y="384" type="line"/>
    </contour>
    <contour>
      <point x="50" y="249" type="line"/>
      <point x="50" y="192" type="line"/>
      <point x="428" y="192" type="line"/>
      <point x="428" y="249" type="line"/>
    </contour>
  </outline>
</glyph>
<glyph name="question" format="1">
  <advance width="486"/>
  <unicode hex="003F"/>
  <outline>
    <contour>
      <point x="248" y="710" type="curve" smooth="yes"/>
      <point x="113" y="710"/>
      <point x="48" y="634"/>
      <point x="48" y="573" type="curve" smooth="yes"/>
      <point x="48" y="536"/>
      <point x="74" y="525"/>
      <point x="109" y="525" type="curve"/>
      <point x="109" y="588"/>
      <point x="147" y="662"/>
      <point x="244" y="662" type="curve" smooth="yes"/>
      <point x="320" y="662"/>
      <point x="364" y="607"/>
      <point x="364" y="544" type="curve" smooth="yes"/>
      <point x="364" y="455"/>
      <point x="283" y="391"/>
      <point x="181" y="366" type="curve"/>
      <point x="186" y="187" type="line"/>
      <point x="204" y="185"/>
      <point x="220" y="185"/>
      <point x="235" y="187" type="curve"/>
      <point x="241" y="329" type="line"/>
      <point x="334" y="350"/>
      <point x="439" y="427"/>
      <point x="439" y="546" type="curve" smooth="yes"/>
      <point x="439" y="646"/>
      <point x="364" y="710"/>
    </contour>
    <contour>
      <point x="210" y="92" type="curve" smooth="yes"/>
      <point x="180" y="92"/>
      <point x="157" y="69"/>
      <point x="157" y="39" type="curve" smooth="yes"/>
      <point x="157" y="8"/>
      <point x="180" y="-15"/>
      <point x="210" y="-15" type="curve" smooth="yes"/>
      <point x="241" y="-15"/>
      <point x="263" y="8"/>
      <point x="263" y="39" type="curve" smooth="yes"/>
      <point x="263" y="69"/>
      <point x="241" y="92"/>
    </contour>
  </outline>
</glyph>
<glyph name="at" format="1">
  <advance width="969"/>
  <unicode hex="0040"/>
  <outline>
    <contour>
      <point x="510" y="684" type="curve" smooth="yes"/>
      <point x="238" y="684"/>
      <point x="57" y="510"/>
      <point x="57" y="248" type="curve" smooth="yes"/>
      <point x="57" y="1"/>
      <point x="235" y="-164"/>
      <point x="503" y="-164" type="curve" smooth="yes"/>
      <point x="603" y="-164"/>
      <point x="683" y="-140"/>
      <point x="750" y="-104" type="curve"/>
      <point x="738" y="-59" type="line"/>
      <point x="677" y="-98"/>
      <point x="594" y="-117"/>
      <point x="512" y="-117" type="curve" smooth="yes"/>
      <point x="273" y="-117"/>
      <point x="113" y="32"/>
      <point x="113" y="254" type="curve" smooth="yes"/>
      <point x="113" y="485"/>
      <point x="271" y="638"/>
      <point x="509" y="638" type="curve" smooth="yes"/>
      <point x="718" y="638"/>
      <point x="858" y="525"/>
      <point x="858" y="356" type="curve" smooth="yes"/>
      <point x="858" y="198"/>
      <point x="764" y="96"/>
      <point x="621" y="100" type="curve"/>
      <point x="674" y="480" type="line"/>
      <point x="610" y="473" type="line"/>
      <point x="559" y="104" type="line"/>
      <point x="555" y="59"/>
      <point x="578" y="53"/>
      <point x="612" y="53" type="curve" smooth="yes"/>
      <point x="792" y="53"/>
      <point x="912" y="177"/>
      <point x="912" y="363" type="curve" smooth="yes"/>
      <point x="912" y="556"/>
      <point x="751" y="684"/>
    </contour>
    <contour>
      <point x="510" y="484" type="curve" smooth="yes"/>
      <point x="380" y="484"/>
      <point x="293" y="389"/>
      <point x="277" y="248" type="curve" smooth="yes"/>
      <point x="261" y="107"/>
      <point x="328" y="44"/>
      <point x="416" y="44" type="curve" smooth="yes"/>
      <point x="496" y="44"/>
      <point x="555" y="97"/>
      <point x="591" y="135" type="curve"/>
      <point x="589" y="171" type="line"/>
      <point x="535" y="129"/>
      <point x="499" y="99"/>
      <point x="445" y="99" type="curve" smooth="yes"/>
      <point x="354" y="99"/>
      <point x="332" y="179"/>
      <point x="344" y="263" type="curve" smooth="yes"/>
      <point x="356" y="342"/>
      <point x="400" y="433"/>
      <point x="497" y="433" type="curve" smooth="yes"/>
      <point x="558" y="433"/>
      <point x="599" y="396"/>
      <point x="607" y="382" type="curve"/>
      <point x="641" y="442" type="line"/>
      <point x="600" y="467"/>
      <point x="566" y="484"/>
    </contour>
  </outline>
</glyph>
<glyph name="B" format="1">
  <advance width="544"/>
  <unicode hex="0042"/>
  <outline>
    <contour>
      <point x="191" y="647" type="line"/>
      <point x="119" y="647" type="line"/>
      <point x="119" y="0" type="line"/>
      <point x="191" y="0" type="line"/>
    </contour>
    <contour>
      <point x="286" y="0" type="line"/>
      <point x="425" y="0"/>
      <point x="516" y="73"/>
      <point x="515" y="199" type="curve" smooth="yes"/>
      <point x="515" y="308"/>
      <point x="420" y="363"/>
      <point x="336" y="363" type="curve"/>
      <point x="336" y="348" type="line"/>
      <point x="418" y="370"/>
      <point x="482" y="423"/>
      <point x="482" y="514" type="curve" smooth="yes"/>
      <point x="482" y="601"/>
      <point x="422" y="679"/>
      <point x="281" y="679" type="curve" smooth="yes"/>
      <point x="72" y="679" type="line" smooth="yes"/>
      <point x="42" y="679"/>
      <point x="45" y="644"/>
      <point x="46" y="634" type="curve"/>
      <point x="120" y="628" type="line"/>
      <point x="192" y="631" type="line"/>
      <point x="240" y="634" type="line" smooth="yes"/>
      <point x="343" y="641"/>
      <point x="406" y="601"/>
      <point x="406" y="510" type="curve" smooth="yes"/>
      <point x="406" y="424"/>
      <point x="360" y="374"/>
      <point x="234" y="374" type="curve" smooth="yes"/>
      <point x="168" y="374" type="line"/>
      <point x="166" y="329" type="line"/>
      <point x="246" y="330" type="line" smooth="yes"/>
      <point x="379" y="332"/>
      <point x="440" y="296"/>
      <point x="440" y="189" type="curve" smooth="yes"/>
      <point x="440" y="104"/>
      <point x="397" y="46"/>
      <point x="261" y="48" type="curve" smooth="yes"/>
      <point x="185" y="49" type="line"/>
      <point x="119" y="49" type="line"/>
      <point x="73" y="45" type="line" smooth="yes"/>
      <point x="41" y="43"/>
      <point x="43" y="18"/>
      <point x="42" y="0" type="curve"/>
    </contour>
  </outline>
</glyph>
<glyph name="C" format="1">
  <advance width="559"/>
  <unicode hex="0043"/>
  <outline>
    <contour>
      <point x="329" y="677" type="move" name="top"/>
    </contour>
    <contour>
      <point x="331" y="0" type="move" name="bottom"/>
    </contour>
    <contour>
      <point x="335" y="692" type="curve" smooth="yes"/>
      <point x="143" y="692"/>
      <point x="34" y="531"/>
      <point x="39" y="315" type="curve" smooth="yes"/>
      <point x="43" y="116"/>
      <point x="138" y="-15"/>
      <point x="322" y="-15" type="curve" smooth="yes"/>
      <point x="450" y="-15"/>
      <point x="532" y="50"/>
      <point x="532" y="85" type="curve" smooth="yes"/>
      <point x="532" y="93"/>
      <point x="527" y="103"/>
      <point x="519" y="107" type="curve"/>
      <point x="488" y="82"/>
      <point x="431" y="46"/>
      <point x="339" y="46" type="curve" smooth="yes"/>
      <point x="174" y="46"/>
      <point x="116" y="168"/>
      <point x="116" y="335" type="curve" smooth="yes"/>
      <point x="116" y="511"/>
      <point x="186" y="638"/>
      <point x="327" y="638" type="curve" smooth="yes"/>
      <point x="410" y="638"/>
      <point x="462" y="591"/>
      <point x="462" y="506" type="curve"/>
      <point x="505" y="507"/>
      <point x="525" y="528"/>
      <point x="525" y="564" type="curve" smooth="yes"/>
      <point x="525" y="637"/>
      <point x="443" y="692"/>
    </contour>
  </outline>
</glyph>
<glyph name="D" format="1">
  <advance width="665"/>
  <unicode hex="0044"/>
  <outline>
    <contour>
      <point x="284" y="679" type="move" name="top"/>
    </contour>
    <contour>
      <point x="190" y="649" type="line"/>
      <point x="118" y="649" type="line"/>
      <point x="118" y="0" type="line"/>
      <point x="190" y="0" type="line"/>
    </contour>
    <contour>
      <point x="190" y="49" type="line"/>
      <point x="118" y="49" type="line"/>
      <point x="71" y="45" type="line" smooth="yes"/>
      <point x="39" y="43"/>
      <point x="42" y="14"/>
      <point x="42" y="0" type="curve"/>
      <point x="285" y="0" type="line" smooth="yes"/>
      <point x="508" y="0"/>
      <point x="626" y="119"/>
      <point x="626" y="346" type="curve" smooth="yes"/>
      <point x="626" y="567"/>
      <point x="526" y="679"/>
      <point x="284" y="679" type="curve" smooth="yes"/>
      <point x="75" y="679" type="line" smooth="yes"/>
      <point x="44" y="679"/>
      <point x="45" y="651"/>
      <point x="46" y="634" type="curve"/>
      <point x="119" y="628" type="line"/>
      <point x="191" y="630" type="line"/>
      <point x="242" y="632" type="line" smooth="yes"/>
      <point x="445" y="639"/>
      <point x="549" y="555"/>
      <point x="549" y="338" type="curve" smooth="yes"/>
      <point x="549" y="136"/>
      <point x="446" y="45"/>
      <point x="263" y="48" type="curve" smooth="yes"/>
    </contour>
  </outline>
</glyph>
<glyph name="F" format="1">
  <advance width="514"/>
  <unicode hex="0046"/>
  <outline>
    <contour>
      <point x="495" y="677" type="line"/>
      <point x="74" y="677" type="line" smooth="yes"/>
      <point x="41" y="677"/>
      <point x="45" y="643"/>
      <point x="46" y="633" type="curve"/>
      <point x="119" y="627" type="line"/>
      <point x="119" y="48" type="line"/>
      <point x="73" y="46" type="line" smooth="yes"/>
      <point x="37" y="43"/>
      <point x="43" y="10"/>
      <point x="42" y="0" type="curve"/>
      <point x="252" y="0" type="line" smooth="yes"/>
      <point x="284" y="0"/>
      <point x="280" y="34"/>
      <point x="279" y="44" type="curve"/>
      <point x="192" y="50" type="line"/>
      <point x="192" y="323" type="line"/>
      <point x="384" y="312" type="line"/>
      <point x="388" y="336"/>
      <point x="388" y="363"/>
      <point x="384" y="384" type="curve"/>
      <point x="192" y="371" type="line"/>
      <point x="192" y="627" type="line"/>
      <point x="440" y="626" type="line"/>
      <point x="451" y="517" type="line"/>
      <point x="461" y="516"/>
      <point x="495" y="512"/>
      <point x="495" y="543" type="curve" smooth="yes"/>
    </contour>
  </outline>
</glyph>
<glyph name="G" format="1">
  <advance width="627"/>
  <unicode hex="0047"/>
  <outline>
    <contour>
      <point x="325" y="677" type="move" name="top"/>
    </contour>
    <contour>
      <point x="297" y="0" type="move" name="bottom"/>
    </contour>
    <contour>
      <point x="351" y="694" type="curve" smooth="yes"/>
      <point x="143" y="694"/>
      <point x="34" y="536"/>
      <point x="39" y="315" type="curve" smooth="yes"/>
      <point x="44" y="107"/>
      <point x="143" y="-15"/>
      <point x="318" y="-15" type="curve" smooth="yes"/>
      <point x="411" y="-15"/>
      <point x="508" y="19"/>
      <point x="553" y="71" type="curve"/>
      <point x="553" y="269" type="line"/>
      <point x="486" y="270" type="line"/>
      <point x="486" y="87" type="line"/>
      <point x="453" y="59"/>
      <point x="393" y="41"/>
      <point x="335" y="41" type="curve" smooth="yes"/>
      <point x="173" y="41"/>
      <point x="115" y="168"/>
      <point x="115" y="333" type="curve" smooth="yes"/>
      <point x="115" y="515"/>
      <point x="187" y="642"/>
      <point x="337" y="642" type="curve" smooth="yes"/>
      <point x="433" y="642"/>
      <point x="491" y="602"/>
      <point x="491" y="506" type="curve"/>
      <point x="540" y="506"/>
      <point x="553" y="538"/>
      <point x="553" y="566" type="curve" smooth="yes"/>
      <point x="553" y="628"/>
      <point x="496" y="694"/>
    </contour>
    <contour>
      <point x="401" y="306" type="line"/>
      <point x="369" y="306"/>
      <point x="373" y="271"/>
      <point x="374" y="261" type="curve"/>
      <point x="487" y="255" type="line"/>
      <point x="555" y="257" type="line"/>
      <point x="580" y="260" type="line" smooth="yes"/>
      <point x="615" y="264"/>
      <point x="610" y="296"/>
      <point x="611" y="306" type="curve"/>
    </contour>
  </outline>
</glyph>
<glyph name="H" format="1">
  <advance width="713"/>
  <unicode hex="0048"/>
  <outline>
    <contour>
      <point x="360" y="677" type="move" name="top"/>
    </contour>
    <contour>
      <point x="191" y="50" type="line"/>
      <point x="191" y="629" type="line"/>
      <point x="237" y="631" type="line" smooth="yes"/>
      <point x="273" y="634"/>
      <point x="267" y="667"/>
      <point x="268" y="677" type="curve"/>
      <point x="73" y="677" type="line" smooth="yes"/>
      <point x="41" y="677"/>
      <point x="45" y="643"/>
      <point x="46" y="633" type="curve"/>
      <point x="119" y="627" type="line"/>
      <point x="119" y="48" type="line"/>
      <point x="73" y="46" type="line" smooth="yes"/>
      <point x="37" y="43"/>
      <point x="43" y="10"/>
      <point x="42" y="0" type="curve"/>
      <point x="237" y="0" type="line" smooth="yes"/>
      <point x="269" y="0"/>
      <point x="265" y="34"/>
      <point x="264" y="44" type="curve"/>
    </contour>
    <contour>
      <point x="522" y="627" type="line"/>
      <point x="522" y="48" type="line"/>
      <point x="477" y="46" type="line" smooth="yes"/>
      <point x="441" y="43"/>
      <point x="447" y="10"/>
      <point x="446" y="0" type="curve"/>
      <point x="640" y="0" type="line" smooth="yes"/>
      <point x="672" y="0"/>
      <point x="668" y="34"/>
      <point x="667" y="44" type="curve"/>
      <point x="595" y="50" type="line"/>
      <point x="595" y="629" type="line"/>
      <point x="640" y="631" type="line" smooth="yes"/>
      <point x="676" y="634"/>
      <point x="670" y="667"/>
      <point x="671" y="677" type="curve"/>
      <point x="477" y="677" type="line" smooth="yes"/>
      <point x="445" y="677"/>
      <point x="449" y="643"/>
      <point x="450" y="633" type="curve"/>
    </contour>
    <contour>
      <point x="535" y="314" type="line"/>
      <point x="535" y="363" type="line"/>
      <point x="179" y="363" type="line"/>
      <point x="179" y="314" type="line"/>
    </contour>
  </outline>
</glyph>
<glyph name="I" format="1">
  <advance width="310"/>
  <unicode hex="0049"/>
  <outline>
    <contour>
      <point x="158" y="677" type="move" name="top"/>
    </contour>
    <contour>
      <point x="267" y="4" type="move" name="ogonek"/>
    </contour>
    <contour>
      <point x="191" y="647" type="line"/>
      <point x="119" y="648" type="line"/>
      <point x="119" y="0" type="line"/>
      <point x="191" y="0" type="line"/>
    </contour>
    <contour>
      <point x="191" y="50" type="line"/>
      <point x="119" y="48" type="line"/>
      <point x="73" y="46" type="line" smooth="yes"/>
      <point x="37" y="43"/>
      <point x="43" y="10"/>
      <point x="42" y="0" type="curve"/>
      <point x="237" y="0" type="line" smooth="yes"/>
      <point x="269" y="0"/>
      <point x="265" y="34"/>
      <point x="264" y="44" type="curve"/>
    </contour>
    <contour>
      <point x="119" y="627" type="line"/>
      <point x="191" y="629" type="line"/>
      <point x="237" y="631" type="line" smooth="yes"/>
      <point x="273" y="634"/>
      <point x="267" y="667"/>
      <point x="268" y="677" type="curve"/>
      <point x="73" y="677" type="line" smooth="yes"/>
      <point x="41" y="677"/>
      <point x="45" y="643"/>
      <point x="46" y="633" type="curve"/>
    </contour>
  </outline>
</glyph>
<glyph name="J" format="1">
  <advance width="328"/>
  <unicode hex="004A"/>
  <outline>
    <contour>
      <point x="185" y="677" type="move" name="top"/>
    </contour>
    <contour>
      <point x="218" y="649" type="line"/>
      <point x="146" y="649" type="line"/>
      <point x="146" y="120" type="line" smooth="yes"/>
      <point x="146" y="22"/>
      <point x="125" y="-7"/>
      <point x="87" y="-7" type="curve" smooth="yes"/>
      <point x="53" y="-7"/>
      <point x="39" y="11"/>
      <point x="38" y="42" type="curve"/>
      <point x="5" y="44"/>
      <point x="-11" y="24"/>
      <point x="-11" y="-1" type="curve" smooth="yes"/>
      <point x="-11" y="-36"/>
      <point x="25" y="-62"/>
      <point x="70" y="-62" type="curve" smooth="yes"/>
      <point x="163" y="-62"/>
      <point x="218" y="20"/>
      <point x="218" y="130" type="curve" smooth="yes"/>
    </contour>
    <contour>
      <point x="92" y="677" type="line"/>
      <point x="59" y="677"/>
      <point x="63" y="643"/>
      <point x="64" y="633" type="curve"/>
      <point x="146" y="627" type="line"/>
      <point x="218" y="629" type="line"/>
      <point x="260" y="631" type="line" smooth="yes"/>
      <point x="296" y="634"/>
      <point x="290" y="667"/>
      <point x="291" y="677" type="curve"/>
    </contour>
  </outline>
</glyph>
<glyph name="K" format="1">
  <advance width="601"/>
  <unicode hex="004B"/>
  <outline>
    <contour>
      <point x="314" y="677" type="move" name="top"/>
    </contour>
    <contour>
      <point x="289" y="0" type="move" name="bottom"/>
    </contour>
    <contour>
      <point x="401" y="677" type="line"/>
      <point x="368" y="677"/>
      <point x="372" y="643"/>
      <point x="373" y="633" type="curve"/>
      <point x="437" y="627" type="line"/>
      <point x="191" y="324" type="line"/>
      <point x="191" y="629" type="line"/>
      <point x="237" y="631" type="line" smooth="yes"/>
      <point x="273" y="634"/>
      <point x="267" y="667"/>
      <point x="268" y="677" type="curve"/>
      <point x="73" y="677" type="line" smooth="yes"/>
      <point x="41" y="677"/>
      <point x="45" y="643"/>
      <point x="46" y="633" type="curve"/>
      <point x="119" y="627" type="line"/>
      <point x="119" y="48" type="line"/>
      <point x="73" y="46" type="line" smooth="yes"/>
      <point x="37" y="43"/>
      <point x="43" y="10"/>
      <point x="42" y="0" type="curve"/>
      <point x="239" y="0" type="line" smooth="yes"/>
      <point x="271" y="0"/>
      <point x="267" y="34"/>
      <point x="266" y="44" type="curve"/>
      <point x="191" y="50" type="line"/>
      <point x="191" y="251" type="line"/>
      <point x="239" y="309" type="line"/>
      <point x="456" y="0" type="line"/>
      <point x="547" y="0" type="line" smooth="yes"/>
      <point x="578" y="0"/>
      <point x="577" y="31"/>
      <point x="574" y="41" type="curve"/>
      <point x="513" y="47" type="line"/>
      <point x="285" y="365" type="line"/>
      <point x="503" y="629" type="line"/>
      <point x="542" y="631" type="line" smooth="yes"/>
      <point x="578" y="633"/>
      <point x="572" y="667"/>
      <point x="573" y="677" type="curve"/>
    </contour>
  </outline>
</glyph>
<glyph name="M" format="1">
  <advance width="808"/>
  <unicode hex="004D"/>
  <outline>
    <contour>
      <point x="600" y="679" type="line"/>
      <point x="402" y="195" type="line"/>
      <point x="428" y="195" type="line"/>
      <point x="212" y="679" type="line"/>
      <point x="93" y="679" type="line" smooth="yes"/>
      <point x="60" y="679"/>
      <point x="64" y="644"/>
      <point x="65" y="634" type="curve"/>
      <point x="136" y="628" type="line"/>
      <point x="90" y="48" type="line"/>
      <point x="45" y="46" type="line" smooth="yes"/>
      <point x="9" y="43"/>
      <point x="15" y="10"/>
      <point x="14" y="0" type="curve"/>
      <point x="195" y="0" type="line" smooth="yes"/>
      <point x="228" y="0"/>
      <point x="224" y="34"/>
      <point x="223" y="44" type="curve"/>
      <point x="150" y="50" type="line"/>
      <point x="190" y="586" type="line"/>
      <point x="174" y="584" type="line"/>
      <point x="383" y="120" type="line"/>
      <point x="396" y="118"/>
      <point x="416" y="120"/>
      <point x="428" y="123" type="curve"/>
      <point x="629" y="603" type="line"/>
      <point x="613" y="604" type="line"/>
      <point x="653" y="48" type="line"/>
      <point x="611" y="46" type="line" smooth="yes"/>
      <point x="574" y="43"/>
      <point x="580" y="10"/>
      <point x="579" y="0" type="curve"/>
      <point x="765" y="0" type="line" smooth="yes"/>
      <point x="798" y="0"/>
      <point x="794" y="34"/>
      <point x="793" y="44" type="curve"/>
      <point x="727" y="52" type="line"/>
      <point x="682" y="628" type="line"/>
      <point x="752" y="634" type="line"/>
      <point x="753" y="644"/>
      <point x="757" y="679"/>
      <point x="724" y="679" type="curve" smooth="yes"/>
    </contour>
  </outline>
</glyph>
<glyph name="N" format="1">
  <advance width="685"/>
  <unicode hex="004E"/>
  <outline>
    <contour>
      <point x="340" y="677" type="move" name="top"/>
    </contour>
    <contour>
      <point x="354" y="0" type="move" name="bottom"/>
    </contour>
    <contour>
      <point x="483" y="677" type="line"/>
      <point x="451" y="677"/>
      <point x="455" y="643"/>
      <point x="456" y="633" type="curve"/>
      <point x="529" y="627" type="line"/>
      <point x="529" y="107" type="line"/>
      <point x="545" y="112" type="line"/>
      <point x="179" y="677" type="line"/>
      <point x="73" y="677" type="line" smooth="yes"/>
      <point x="41" y="677"/>
      <point x="45" y="643"/>
      <point x="46" y="633" type="curve"/>
      <point x="119" y="627" type="line"/>
      <point x="119" y="48" type="line"/>
      <point x="73" y="46" type="line" smooth="yes"/>
      <point x="37" y="43"/>
      <point x="43" y="10"/>
      <point x="42" y="0" type="curve"/>
      <point x="220" y="0" type="line" smooth="yes"/>
      <point x="252" y="0"/>
      <point x="248" y="34"/>
      <point x="247" y="44" type="curve"/>
      <point x="174" y="50" type="line"/>
      <point x="174" y="578" type="line"/>
      <point x="159" y="573" type="line"/>
      <point x="531" y="0" type="line"/>
      <point x="551" y="0"/>
      <point x="565" y="3"/>
      <point x="583" y="11" type="curve"/>
      <point x="583" y="629" type="line"/>
      <point x="630" y="631" type="line" smooth="yes"/>
      <point x="666" y="634"/>
      <point x="660" y="667"/>
      <point x="661" y="677" type="curve"/>
    </contour>
  </outline>
</glyph>
<glyph name="P" format="1">
  <advance width="551"/>
  <unicode hex="0050"/>
  <outline>
    <contour>
      <point x="72" y="679" type="line"/>
      <point x="44" y="679"/>
      <point x="45" y="649"/>
      <point x="46" y="635" type="curve"/>
      <point x="119" y="629" type="line"/>
      <point x="119" y="48" type="line"/>
      <point x="73" y="46" type="line" smooth="yes"/>
      <point x="37" y="43"/>
      <point x="43" y="10"/>
      <point x="42" y="0" type="curve"/>
      <point x="239" y="0" type="line" smooth="yes"/>
      <point x="272" y="0"/>
      <point x="268" y="34"/>
      <point x="267" y="44" type="curve"/>
      <point x="191" y="50" type="line"/>
      <point x="191" y="631" type="line"/>
      <point x="245" y="634" type="line" smooth="yes"/>
      <point x="389" y="643"/>
      <point x="454" y="588"/>
      <point x="454" y="478" type="curve" smooth="yes"/>
      <point x="454" y="371"/>
      <point x="388" y="319"/>
      <point x="248" y="319" type="curve" smooth="yes"/>
      <point x="227" y="319"/>
      <point x="203" y="319"/>
      <point x="179" y="322" type="curve"/>
      <point x="180" y="276" type="line"/>
      <point x="204" y="273"/>
      <point x="233" y="272"/>
      <point x="257" y="272" type="curve" smooth="yes"/>
      <point x="412" y="272"/>
      <point x="531" y="330"/>
      <point x="531" y="490" type="curve" smooth="yes"/>
      <point x="531" y="596"/>
      <point x="454" y="679"/>
      <point x="282" y="679" type="curve" smooth="yes"/>
    </contour>
  </outline>
</glyph>
<glyph name="Q" format="1">
  <advance width="655"/>
  <unicode hex="0051"/>
  <outline>
    <contour>
      <point x="260" y="-4" type="line"/>
      <point x="340" y="-51"/>
      <point x="455" y="-141"/>
      <point x="550" y="-141" type="curve" smooth="yes"/>
      <point x="588" y="-141"/>
      <point x="615" y="-120"/>
      <point x="615" y="-86" type="curve" smooth="yes"/>
      <point x="615" y="-75"/>
      <point x="612" y="-66"/>
      <point x="607" y="-60" type="curve"/>
      <point x="590" y="-71"/>
      <point x="572" y="-76"/>
      <point x="557" y="-76" type="curve" smooth="yes"/>
      <point x="508" y="-76"/>
      <point x="410" y="-36"/>
      <point x="317" y="14" type="curve"/>
    </contour>
    <component base="O"/>
  </outline>
</glyph>
<glyph name="R" format="1">
  <advance width="577"/>
  <unicode hex="0052"/>
  <outline>
    <contour>
      <point x="270" y="677" type="move" name="top"/>
    </contour>
    <contour>
      <point x="284" y="0" type="move" name="bottom"/>
    </contour>
    <contour>
      <point x="72" y="679" type="line"/>
      <point x="43" y="679"/>
      <point x="45" y="652"/>
      <point x="46" y="635" type="curve"/>
      <point x="120" y="629" type="line"/>
      <point x="193" y="631" type="line"/>
      <point x="253" y="634" type="line" smooth="yes"/>
      <point x="347" y="639"/>
      <point x="434" y="623"/>
      <point x="434" y="500" type="curve" smooth="yes"/>
      <point x="434" y="413"/>
      <point x="372" y="360"/>
      <point x="250" y="360" type="curve" smooth="yes"/>
      <point x="228" y="360"/>
      <point x="196" y="361"/>
      <point x="171" y="363" type="curve"/>
      <point x="165" y="318" type="line"/>
      <point x="195" y="315"/>
      <point x="231" y="313"/>
      <point x="259" y="313" type="curve" smooth="yes"/>
      <point x="394" y="313"/>
      <point x="510" y="377"/>
      <point x="510" y="513" type="curve" smooth="yes"/>
      <point x="510" y="605"/>
      <point x="458" y="679"/>
      <point x="291" y="679" type="curve" smooth="yes"/>
    </contour>
    <contour>
      <point x="191" y="50" type="line"/>
      <point x="119" y="48" type="line"/>
      <point x="73" y="46" type="line" smooth="yes"/>
      <point x="37" y="43"/>
      <point x="42" y="10"/>
      <point x="42" y="0" type="curve"/>
      <point x="240" y="0" type="line" smooth="yes"/>
      <point x="270" y="0"/>
      <point x="268" y="32"/>
      <point x="267" y="44" type="curve"/>
    </contour>
    <contour>
      <point x="191" y="647" type="line"/>
      <point x="119" y="647" type="line"/>
      <point x="119" y="0" type="line"/>
      <point x="191" y="0" type="line"/>
    </contour>
    <contour>
      <point x="255" y="332" type="line"/>
      <point x="302" y="190"/>
      <point x="423" y="-15"/>
      <point x="514" y="-15" type="curve" smooth="yes"/>
      <point x="543" y="-15"/>
      <point x="565" y="9"/>
      <point x="566" y="45" type="curve"/>
      <point x="502" y="45"/>
      <point x="402" y="146"/>
      <point x="315" y="334" type="curve"/>
    </contour>
  </outline>
</glyph>
<glyph name="T" format="1">
  <advance width="603"/>
  <unicode hex="0054"/>
  <outline>
    <contour>
      <point x="306" y="677" type="move" name="top"/>
    </contour>
    <contour>
      <point x="297" y="0" type="move" name="bottom"/>
    </contour>
    <contour>
      <point x="325" y="51" type="line"/>
      <point x="282" y="49" type="line"/>
      <point x="219" y="46" type="line" smooth="yes"/>
      <point x="183" y="43"/>
      <point x="189" y="10"/>
      <point x="188" y="0" type="curve"/>
      <point x="387" y="0" type="line" smooth="yes"/>
      <point x="420" y="0"/>
      <point x="416" y="34"/>
      <point x="415" y="44" type="curve"/>
    </contour>
    <contour>
      <point x="71" y="626" type="line"/>
      <point x="532" y="626" type="line"/>
      <point x="539" y="529" type="line"/>
      <point x="551" y="528"/>
      <point x="583" y="525"/>
      <point x="583" y="557" type="curve" smooth="yes"/>
      <point x="583" y="677" type="line"/>
      <point x="20" y="677" type="line"/>
      <point x="20" y="557" type="line" smooth="yes"/>
      <point x="20" y="525"/>
      <point x="52" y="528"/>
      <point x="64" y="529" type="curve"/>
    </contour>
    <contour>
      <point x="267" y="32" type="line"/>
      <point x="339" y="34" type="line"/>
      <point x="339" y="642" type="line"/>
      <point x="267" y="642" type="line"/>
    </contour>
  </outline>
</glyph>
<glyph name="V" format="1">
  <advance width="614"/>
  <unicode hex="0056"/>
  <outline>
    <contour>
      <point x="52" y="653" type="line"/>
      <point x="274" y="0" type="line"/>
      <point x="329" y="0" type="line"/>
      <point x="567" y="655" type="line"/>
      <point x="507" y="649" type="line"/>
      <point x="288" y="26" type="line"/>
      <point x="326" y="55" type="line"/>
      <point x="132" y="655" type="line"/>
    </contour>
    <contour>
      <point x="500" y="627" type="line"/>
      <point x="557" y="629" type="line"/>
      <point x="578" y="631" type="line" smooth="yes"/>
      <point x="614" y="636"/>
      <point x="608" y="667"/>
      <point x="609" y="677" type="curve"/>
      <point x="454" y="677" type="line" smooth="yes"/>
      <point x="422" y="677"/>
      <point x="426" y="643"/>
      <point x="427" y="633" type="curve"/>
    </contour>
    <contour>
      <point x="61" y="627" type="line"/>
      <point x="141" y="629" type="line"/>
      <point x="187" y="631" type="line" smooth="yes"/>
      <point x="223" y="634"/>
      <point x="217" y="667"/>
      <point x="218" y="677" type="curve"/>
      <point x="33" y="677" type="line" smooth="yes"/>
      <point x="0" y="677"/>
      <point x="4" y="643"/>
      <point x="5" y="633" type="curve"/>
    </contour>
  </outline>
</glyph>
<glyph name="W" format="1">
  <advance width="945"/>
  <unicode hex="0057"/>
  <outline>
    <contour>
      <point x="489" y="677" type="move" name="top"/>
    </contour>
    <contour>
      <point x="784" y="677" type="line"/>
      <point x="751" y="677"/>
      <point x="755" y="643"/>
      <point x="756" y="633" type="curve"/>
      <point x="830" y="627" type="line"/>
      <point x="659" y="76" type="line"/>
      <point x="674" y="76" type="line"/>
      <point x="515" y="616" type="line"/>
      <point x="456" y="616" type="line"/>
      <point x="275" y="75" type="line"/>
      <point x="293" y="74" type="line"/>
      <point x="140" y="629" type="line"/>
      <point x="183" y="631" type="line" smooth="yes"/>
      <point x="219" y="634"/>
      <point x="213" y="667"/>
      <point x="214" y="677" type="curve"/>
      <point x="32" y="677" type="line" smooth="yes"/>
      <point x="0" y="677"/>
      <point x="4" y="643"/>
      <point x="5" y="633" type="curve"/>
      <point x="59" y="627" type="line"/>
      <point x="247" y="0" type="line"/>
      <point x="304" y="0" type="line"/>
      <point x="485" y="520" type="line"/>
      <point x="463" y="520" type="line"/>
      <point x="628" y="0" type="line"/>
      <point x="688" y="0" type="line"/>
      <point x="892" y="629" type="line"/>
      <point x="910" y="631" type="line" smooth="yes"/>
      <point x="947" y="635"/>
      <point x="940" y="667"/>
      <point x="941" y="677" type="curve"/>
    </contour>
  </outline>
</glyph>
<glyph name="X" format="1">
  <advance width="623"/>
  <unicode hex="0058"/>
  <outline>
    <contour>
      <point x="301" y="374" type="line"/>
      <point x="63" y="28" type="line"/>
      <point x="129" y="22" type="line"/>
      <point x="339" y="345" type="line"/>
    </contour>
    <contour>
      <point x="143" y="655" type="line"/>
      <point x="59" y="648" type="line"/>
      <point x="476" y="33" type="line"/>
      <point x="568" y="29" type="line"/>
    </contour>
    <contour>
      <point x="472" y="637" type="line"/>
      <point x="288" y="335" type="line"/>
      <point x="326" y="306" type="line"/>
      <point x="546" y="646" type="line"/>
    </contour>
    <contour>
      <point x="183" y="0" type="line"/>
      <point x="216" y="0"/>
      <point x="212" y="34"/>
      <point x="211" y="44" type="curve"/>
      <point x="148" y="50" type="line"/>
      <point x="78" y="48" type="line"/>
      <point x="43" y="46" type="line" smooth="yes"/>
      <point x="7" y="43"/>
      <point x="13" y="10"/>
      <point x="12" y="0" type="curve"/>
    </contour>
    <contour>
      <point x="472" y="628" type="line"/>
      <point x="542" y="631" type="line"/>
      <point x="564" y="633" type="line" smooth="yes"/>
      <point x="601" y="636"/>
      <point x="595" y="669"/>
      <point x="596" y="679" type="curve"/>
      <point x="432" y="679" type="line" smooth="yes"/>
      <point x="400" y="679"/>
      <point x="404" y="644"/>
      <point x="405" y="634" type="curve"/>
    </contour>
    <contour>
      <point x="554" y="50" type="line"/>
      <point x="465" y="48" type="line"/>
      <point x="435" y="46" type="line" smooth="yes"/>
      <point x="399" y="43"/>
      <point x="404" y="10"/>
      <point x="403" y="0" type="curve"/>
      <point x="584" y="0" type="line" smooth="yes"/>
      <point x="617" y="0"/>
      <point x="613" y="34"/>
      <point x="612" y="44" type="curve"/>
    </contour>
    <contour>
      <point x="73" y="628" type="line"/>
      <point x="160" y="630" type="line"/>
      <point x="194" y="633" type="line" smooth="yes"/>
      <point x="230" y="636"/>
      <point x="224" y="669"/>
      <point x="225" y="679" type="curve"/>
      <point x="43" y="679" type="line" smooth="yes"/>
      <point x="10" y="679"/>
      <point x="14" y="644"/>
      <point x="15" y="634" type="curve"/>
    </contour>
  </outline>
</glyph>
<glyph name="Y" format="1">
  <advance width="592"/>
  <unicode hex="0059"/>
  <outline>
    <contour>
      <point x="306" y="677" type="move" name="top"/>
    </contour>
    <contour>
      <point x="336" y="310" type="line"/>
      <point x="262" y="310" type="line"/>
      <point x="262" y="0" type="line"/>
      <point x="336" y="0" type="line"/>
    </contour>
    <contour>
      <point x="336" y="50" type="line"/>
      <point x="262" y="48" type="line"/>
      <point x="217" y="46" type="line" smooth="yes"/>
      <point x="180" y="43"/>
      <point x="186" y="10"/>
      <point x="185" y="0" type="curve"/>
      <point x="382" y="0" type="line" smooth="yes"/>
      <point x="414" y="0"/>
      <point x="410" y="34"/>
      <point x="409" y="44" type="curve"/>
    </contour>
    <contour>
      <point x="48" y="652" type="line"/>
      <point x="271" y="258" type="line"/>
      <point x="326" y="258" type="line"/>
      <point x="550" y="657" type="line"/>
      <point x="486" y="651" type="line"/>
      <point x="288" y="284" type="line"/>
      <point x="325" y="306" type="line"/>
      <point x="130" y="655" type="line"/>
    </contour>
    <contour>
      <point x="476" y="628" type="line"/>
      <point x="535" y="630" type="line"/>
      <point x="556" y="633" type="line" smooth="yes"/>
      <point x="592" y="638"/>
      <point x="586" y="669"/>
      <point x="587" y="679" type="curve"/>
      <point x="431" y="679" type="line" smooth="yes"/>
      <point x="398" y="679"/>
      <point x="402" y="644"/>
      <point x="403" y="634" type="curve"/>
    </contour>
    <contour>
      <point x="61" y="628" type="line"/>
      <point x="144" y="630" type="line"/>
      <point x="189" y="633" type="line" smooth="yes"/>
      <point x="225" y="635"/>
      <point x="219" y="669"/>
      <point x="220" y="679" type="curve"/>
      <point x="33" y="679" type="line" smooth="yes"/>
      <point x="0" y="679"/>
      <point x="4" y="644"/>
      <point x="5" y="634" type="curve"/>
    </contour>
  </outline>
</glyph>
<glyph name="Z" format="1">
  <advance width="533"/>
  <unicode hex="005A"/>
  <outline>
    <contour>
      <point x="291" y="677" type="move" name="top"/>
    </contour>
    <contour>
      <point x="67" y="685" type="line"/>
      <point x="70" y="622" type="line"/>
      <point x="448" y="634" type="line"/>
      <point x="427" y="664" type="line"/>
      <point x="21" y="28" type="line"/>
      <point x="24" y="18"/>
      <point x="27" y="9"/>
      <point x="33" y="0" type="curve"/>
      <point x="504" y="0" type="line"/>
      <point x="476" y="62" type="line"/>
      <point x="53" y="48" type="line"/>
      <point x="111" y="37" type="line"/>
      <point x="505" y="658" type="line"/>
      <point x="502" y="668"/>
      <point x="497" y="678"/>
      <point x="491" y="685" type="curve"/>
    </contour>
    <contour>
      <point x="504" y="0" type="line"/>
      <point x="504" y="192" type="line"/>
      <point x="484" y="196"/>
      <point x="461" y="191"/>
      <point x="457" y="157" type="curve" smooth="yes"/>
      <point x="442" y="43" type="line"/>
    </contour>
    <contour>
      <point x="67" y="498" type="line"/>
      <point x="85" y="494"/>
      <point x="109" y="500"/>
      <point x="114" y="534" type="curve" smooth="yes"/>
      <point x="128" y="642" type="line"/>
      <point x="67" y="685" type="line"/>
    </contour>
  </outline>
</glyph>
<glyph name="bracketleft" format="1">
  <advance width="224"/>
  <unicode hex="005B"/>
  <outline>
    <contour>
      <point x="127" y="650" type="line"/>
      <point x="210" y="650" type="line"/>
      <point x="210" y="695" type="line"/>
      <point x="64" y="695" type="line"/>
      <point x="64" y="-175" type="line"/>
      <point x="210" y="-175" type="line"/>
      <point x="210" y="-130" type="line"/>
      <point x="127" y="-130" type="line"/>
    </contour>
  </outline>
</glyph>
<glyph name="asciicircum" format="1">
  <advance width="486"/>
  <unicode hex="005E"/>
  <outline>
    <contour>
      <point x="269" y="653" type="line"/>
      <point x="227" y="653" type="line"/>
      <point x="52" y="204" type="line"/>
      <point x="119" y="204" type="line"/>
      <point x="267" y="592" type="line"/>
      <point x="229" y="592" type="line"/>
      <point x="369" y="204" type="line"/>
      <point x="434" y="204" type="line"/>
    </contour>
  </outline>
</glyph>
<glyph name="underscore" format="1">
  <advance width="384"/>
  <unicode hex="005F"/>
  <outline>
    <contour>
      <point x="-38" y="-85" type="line"/>
      <point x="-38" y="-140" type="line"/>
      <point x="422" y="-140" type="line"/>
      <point x="422" y="-85" type="line"/>
    </contour>
  </outline>
</glyph>
<glyph name="b" format="1">
  <advance width="552"/>
  <unicode hex="0062"/>
  <outline>
    <contour>
      <point x="319" y="504" type="curve" smooth="yes"/>
      <point x="225" y="504"/>
      <point x="165" y="442"/>
      <point x="128" y="398" type="curve"/>
      <point x="136" y="362" type="line"/>
      <point x="193" y="411"/>
      <point x="231" y="445"/>
      <point x="294" y="445" type="curve" smooth="yes"/>
      <point x="399" y="445"/>
      <point x="439" y="352"/>
      <point x="439" y="246" type="curve" smooth="yes"/>
      <point x="439" y="139"/>
      <point x="400" y="39"/>
      <point x="291" y="39" type="curve" smooth="yes"/>
      <point x="217" y="39"/>
      <point x="163" y="82"/>
      <point x="151" y="98" type="curve"/>
      <point x="125" y="29" type="line"/>
      <point x="172" y="4"/>
      <point x="212" y="-15"/>
      <point x="276" y="-15" type="curve" smooth="yes"/>
      <point x="430" y="-15"/>
      <point x="517" y="96"/>
      <point x="513" y="264" type="curve" smooth="yes"/>
      <point x="510" y="430"/>
      <point x="419" y="504"/>
    </contour>
    <contour>
      <point x="160" y="698" type="line"/>
      <point x="15" y="680" type="line"/>
      <point x="15" y="667"/>
      <point x="14" y="639"/>
      <point x="39" y="637" type="curve" smooth="yes"/>
      <point x="91" y="631" type="line"/>
      <point x="91" y="37" type="line"/>
      <point x="160" y="11" type="line"/>
    </contour>
  </outline>
</glyph>
<glyph name="c" format="1">
  <advance width="452"/>
  <unicode hex="0063"/>
  <outline>
    <contour>
      <point x="262" y="489" type="move" name="top"/>
    </contour>
    <contour>
      <point x="275" y="504" type="curve" smooth="yes"/>
      <point x="122" y="504"/>
      <point x="37" y="382"/>
      <point x="39" y="224" type="curve" smooth="yes"/>
      <point x="41" y="86"/>
      <point x="109" y="-15"/>
      <point x="239" y="-15" type="curve" smooth="yes"/>
      <point x="327" y="-15"/>
      <point x="418" y="32"/>
      <point x="418" y="72" type="curve" smooth="yes"/>
      <point x="418" y="80"/>
      <point x="414" y="90"/>
      <point x="405" y="96" type="curve"/>
      <point x="361" y="60"/>
      <point x="317" y="43"/>
      <point x="268" y="43" type="curve" smooth="yes"/>
      <point x="146" y="43"/>
      <point x="113" y="145"/>
      <point x="113" y="242" type="curve" smooth="yes"/>
      <point x="113" y="355"/>
      <point x="160" y="450"/>
      <point x="259" y="450" type="curve" smooth="yes"/>
      <point x="330" y="450"/>
      <point x="357" y="399"/>
      <point x="358" y="356" type="curve"/>
      <point x="386" y="355"/>
      <point x="414" y="367"/>
      <point x="414" y="409" type="curve" smooth="yes"/>
      <point x="414" y="465"/>
      <point x="361" y="504"/>
    </contour>
  </outline>
</glyph>
<glyph name="d" format="1">
  <advance width="544"/>
  <unicode hex="0064"/>
  <outline>
    <contour>
      <point x="462" y="698" type="line"/>
      <point x="317" y="680" type="line"/>
      <point x="317" y="667"/>
      <point x="316" y="639"/>
      <point x="341" y="637" type="curve" smooth="yes"/>
      <point x="393" y="631" type="line"/>
      <point x="393" y="73" type="line" smooth="yes"/>
      <point x="393" y="25"/>
      <point x="411" y="-15"/>
      <point x="465" y="-15" type="curve" smooth="yes"/>
      <point x="505" y="-15"/>
      <point x="525" y="3"/>
      <point x="526" y="32" type="curve"/>
      <point x="462" y="40" type="line"/>
    </contour>
    <contour>
      <point x="428" y="460" type="line"/>
      <point x="381" y="486"/>
      <point x="341" y="504"/>
      <point x="277" y="504" type="curve" smooth="yes"/>
      <point x="123" y="504"/>
      <point x="35" y="394"/>
      <point x="39" y="226" type="curve" smooth="yes"/>
      <point x="43" y="60"/>
      <point x="134" y="-15"/>
      <point x="234" y="-15" type="curve" smooth="yes"/>
      <point x="328" y="-15"/>
      <point x="388" y="48"/>
      <point x="425" y="92" type="curve"/>
      <point x="417" y="128" type="line"/>
      <point x="360" y="79"/>
      <point x="322" y="44"/>
      <point x="259" y="44" type="curve" smooth="yes"/>
      <point x="154" y="44"/>
      <point x="113" y="138"/>
      <point x="113" y="244" type="curve" smooth="yes"/>
      <point x="113" y="351"/>
      <point x="153" y="450"/>
      <point x="262" y="450" type="curve" smooth="yes"/>
      <point x="336" y="450"/>
      <point x="390" y="407"/>
      <point x="402" y="391" type="curve"/>
    </contour>
  </outline>
</glyph>
<glyph name="e" format="1">
  <advance width="461"/>
  <unicode hex="0065"/>
  <outline>
    <contour>
      <point x="267" y="504" type="curve" smooth="yes"/>
      <point x="146" y="504"/>
      <point x="39" y="410"/>
      <point x="39" y="224" type="curve" smooth="yes"/>
      <point x="39" y="63"/>
      <point x="124" y="-15"/>
      <point x="243" y="-15" type="curve" smooth="yes"/>
      <point x="339" y="-15"/>
      <point x="420" y="36"/>
      <point x="420" y="71" type="curve" smooth="yes"/>
      <point x="420" y="79"/>
      <point x="415" y="90"/>
      <point x="408" y="96" type="curve"/>
      <point x="367" y="64"/>
      <point x="324" y="42"/>
      <point x="268" y="42" type="curve" smooth="yes"/>
      <point x="152" y="42"/>
      <point x="115" y="130"/>
      <point x="115" y="232" type="curve" smooth="yes"/>
      <point x="115" y="364"/>
      <point x="172" y="454"/>
      <point x="255" y="454" type="curve" smooth="yes"/>
      <point x="330" y="454"/>
      <point x="364" y="381"/>
      <point x="356" y="280" type="curve"/>
      <point x="389" y="308" type="line"/>
      <point x="80" y="308" type="line"/>
      <point x="81" y="263" type="line"/>
      <point x="430" y="263" type="line"/>
      <point x="430" y="311" type="line" smooth="yes"/>
      <point x="431" y="403"/>
      <point x="389" y="504"/>
    </contour>
  </outline>
</glyph>
<glyph name="f" format="1">
  <advance width="321"/>
  <unicode hex="0066"/>
  <outline>
    <contour>
      <point x="265" y="713" type="curve" smooth="yes"/>
      <point x="171" y="713"/>
      <point x="118" y="644"/>
      <point x="118" y="526" type="curve" smooth="yes"/>
      <point x="118" y="0" type="line"/>
      <point x="187" y="0" type="line"/>
      <point x="187" y="549" type="line" smooth="yes"/>
      <point x="187" y="634"/>
      <point x="208" y="667"/>
      <point x="250" y="667" type="curve" smooth="yes"/>
      <point x="276" y="667"/>
      <point x="299" y="649"/>
      <point x="301" y="614" type="curve"/>
      <point x="328" y="614"/>
      <point x="348" y="630"/>
      <point x="348" y="659" type="curve" smooth="yes"/>
      <point x="348" y="698"/>
      <point x="308" y="714"/>
    </contour>
    <contour>
      <point x="184" y="47" type="line"/>
      <point x="118" y="45" type="line"/>
      <point x="76" y="43" type="line" smooth="yes"/>
      <point x="40" y="40"/>
      <point x="46" y="10"/>
      <point x="45" y="0" type="curve"/>
      <point x="258" y="0" type="line" smooth="yes"/>
      <point x="290" y="0"/>
      <point x="285" y="27"/>
      <point x="285" y="41" type="curve"/>
    </contour>
    <contour>
      <point x="75" y="489" type="line"/>
      <point x="44" y="489"/>
      <point x="47" y="461"/>
      <point x="47" y="443" type="curve"/>
      <point x="281" y="443" type="line" smooth="yes"/>
      <point x="310" y="443"/>
      <point x="311" y="476"/>
      <point x="310" y="489" type="curve"/>
    </contour>
  </outline>
</glyph>
<glyph name="h" format="1">
  <advance width="619"/>
  <unicode hex="0068"/>
  <outline>
    <contour>
      <point x="316" y="489" type="move" name="top"/>
    </contour>
    <contour>
      <point x="347" y="504" type="curve" smooth="yes"/>
      <point x="245" y="504"/>
      <point x="198" y="441"/>
      <point x="162" y="402" type="curve"/>
      <point x="169" y="358" type="line"/>
      <point x="220" y="407"/>
      <point x="260" y="442"/>
      <point x="331" y="442" type="curve" smooth="yes"/>
      <point x="405" y="442"/>
      <point x="450" y="395"/>
      <point x="450" y="296" type="curve" smooth="yes"/>
      <point x="450" y="0" type="line"/>
      <point x="519" y="0" type="line"/>
      <point x="518" y="302" type="line" smooth="yes"/>
      <point x="517" y="455"/>
      <point x="427" y="504"/>
    </contour>
    <contour>
      <point x="187" y="47" type="line"/>
      <point x="121" y="45" type="line"/>
      <point x="79" y="43" type="line" smooth="yes"/>
      <point x="43" y="40"/>
      <point x="49" y="10"/>
      <point x="48" y="0" type="curve"/>
      <point x="238" y="0" type="line" smooth="yes"/>
      <point x="271" y="0"/>
      <point x="267" y="31"/>
      <point x="266" y="41" type="curve"/>
    </contour>
    <contour>
      <point x="190" y="698" type="line"/>
      <point x="45" y="679" type="line"/>
      <point x="45" y="666"/>
      <point x="44" y="639"/>
      <point x="69" y="636" type="curve" smooth="yes"/>
      <point x="121" y="631" type="line"/>
      <point x="121" y="0" type="line"/>
      <point x="190" y="0" type="line"/>
    </contour>
    <contour>
      <point x="518" y="47" type="line"/>
      <point x="450" y="45" type="line"/>
      <point x="409" y="43" type="line" smooth="yes"/>
      <point x="372" y="40"/>
      <point x="378" y="10"/>
      <point x="377" y="0" type="curve"/>
      <point x="567" y="0" type="line" smooth="yes"/>
      <point x="599" y="0"/>
      <point x="595" y="31"/>
      <point x="594" y="41" type="curve"/>
    </contour>
  </outline>
</glyph>
<glyph name="i" format="1">
  <advance width="291"/>
  <unicode hex="0069"/>
  <outline>
    <contour>
      <point x="147" y="582" type="curve" smooth="yes"/>
      <point x="177" y="582"/>
      <point x="197" y="602"/>
      <point x="197" y="631" type="curve" smooth="yes"/>
      <point x="197" y="660"/>
      <point x="177" y="681"/>
      <point x="147" y="681" type="curve" smooth="yes"/>
      <point x="118" y="681"/>
      <point x="98" y="660"/>
      <point x="98" y="631" type="curve" smooth="yes"/>
      <point x="98" y="602"/>
      <point x="118" y="582"/>
    </contour>
    <contour>
      <point x="190" y="504" type="line"/>
      <point x="45" y="488" type="line"/>
      <point x="45" y="475"/>
      <point x="44" y="448"/>
      <point x="69" y="445" type="curve" smooth="yes"/>
      <point x="121" y="441" type="line"/>
      <point x="121" y="0" type="line"/>
      <point x="190" y="0" type="line"/>
    </contour>
    <contour>
      <point x="187" y="47" type="line"/>
      <point x="121" y="45" type="line"/>
      <point x="79" y="43" type="line" smooth="yes"/>
      <point x="43" y="40"/>
      <point x="49" y="10"/>
      <point x="48" y="0" type="curve"/>
      <point x="238" y="0" type="line" smooth="yes"/>
      <point x="271" y="0"/>
      <point x="267" y="31"/>
      <point x="266" y="41" type="curve"/>
    </contour>
  </outline>
</glyph>
<glyph name="j" format="1">
  <advance width="249"/>
  <unicode hex="006A"/>
  <outline>
    <contour>
      <point x="167" y="504" type="line"/>
      <point x="22" y="488" type="line"/>
      <point x="22" y="475"/>
      <point x="21" y="449"/>
      <point x="45" y="446" type="curve" smooth="yes"/>
      <point x="98" y="441" type="line"/>
      <point x="98" y="-40" type="line" smooth="yes"/>
      <point x="98" y="-145"/>
      <point x="70" y="-172"/>
      <point x="29" y="-172" type="curve" smooth="yes"/>
      <point x="-3" y="-172"/>
      <point x="-17" y="-155"/>
      <point x="-18" y="-127" type="curve"/>
      <point x="-46" y="-126"/>
      <point x="-65" y="-142"/>
      <point x="-65" y="-170" type="curve" smooth="yes"/>
      <point x="-65" y="-211"/>
      <point x="-21" y="-226"/>
      <point x="12" y="-226" type="curve" smooth="yes"/>
      <point x="121" y="-226"/>
      <point x="167" y="-124"/>
      <point x="167" y="9" type="curve" smooth="yes"/>
    </contour>
    <contour>
      <point x="125" y="681" type="curve" smooth="yes"/>
      <point x="96" y="681"/>
      <point x="76" y="660"/>
      <point x="76" y="631" type="curve" smooth="yes"/>
      <point x="76" y="602"/>
      <point x="96" y="582"/>
      <point x="125" y="582" type="curve" smooth="yes"/>
      <point x="154" y="582"/>
      <point x="175" y="602"/>
      <point x="175" y="631" type="curve" smooth="yes"/>
      <point x="175" y="660"/>
      <point x="154" y="681"/>
    </contour>
  </outline>
</glyph>
<glyph name="k" format="1">
  <advance width="537"/>
  <unicode hex="006B"/>
  <outline>
    <contour>
      <point x="285" y="0" type="move" name="bottom"/>
    </contour>
    <contour>
      <point x="190" y="698" type="line"/>
      <point x="45" y="680" type="line"/>
      <point x="45" y="667"/>
      <point x="44" y="639"/>
      <point x="69" y="637" type="curve" smooth="yes"/>
      <point x="121" y="631" type="line"/>
      <point x="121" y="45" type="line"/>
      <point x="79" y="43" type="line" smooth="yes"/>
      <point x="43" y="40"/>
      <point x="49" y="10"/>
      <point x="48" y="0" type="curve"/>
      <point x="239" y="0" type="line" smooth="yes"/>
      <point x="271" y="0"/>
      <point x="267" y="31"/>
      <point x="266" y="41" type="curve"/>
      <point x="190" y="47" type="line"/>
      <point x="190" y="169" type="line"/>
      <point x="254" y="239" type="line"/>
      <point x="429" y="0" type="line"/>
      <point x="511" y="0" type="line" smooth="yes"/>
      <point x="544" y="0"/>
      <point x="541" y="31"/>
      <point x="540" y="41" type="curve"/>
      <point x="473" y="47" type="line"/>
      <point x="298" y="287" type="line"/>
      <point x="441" y="444" type="line"/>
      <point x="470" y="447" type="line" smooth="yes"/>
      <point x="506" y="450"/>
      <point x="500" y="479"/>
      <point x="501" y="489" type="curve"/>
      <point x="344" y="489" type="line" smooth="yes"/>
      <point x="311" y="489"/>
      <point x="315" y="458"/>
      <point x="316" y="448" type="curve"/>
      <point x="376" y="442" type="line"/>
      <point x="190" y="234" type="line"/>
    </contour>
  </outline>
</glyph>
<glyph name="l" format="1">
  <advance width="286"/>
  <unicode hex="006C"/>
  <outline>
    <contour>
      <point x="164" y="489" type="move" name="top"/>
    </contour>
    <contour>
      <point x="153" y="0" type="move" name="bottom"/>
    </contour>
    <contour>
      <point x="190" y="698" type="line"/>
      <point x="45" y="679" type="line"/>
      <point x="45" y="666"/>
      <point x="44" y="640"/>
      <point x="69" y="637" type="curve" smooth="yes"/>
      <point x="121" y="632" type="line"/>
      <point x="121" y="0" type="line"/>
      <point x="190" y="0" type="line"/>
    </contour>
    <contour>
      <point x="190" y="47" type="line"/>
      <point x="121" y="45" type="line"/>
      <point x="78" y="43" type="line" smooth="yes"/>
      <point x="41" y="40"/>
      <point x="47" y="10"/>
      <point x="46" y="0" type="curve"/>
      <point x="234" y="0" type="line" smooth="yes"/>
      <point x="266" y="0"/>
      <point x="262" y="31"/>
      <point x="261" y="41" type="curve"/>
    </contour>
  </outline>
</glyph>
<glyph name="m" format="1">
  <advance width="930"/>
  <unicode hex="006D"/>
  <outline>
    <contour>
      <point x="830" y="47" type="line"/>
      <point x="830" y="301" type="line" smooth="yes"/>
      <point x="830" y="454"/>
      <point x="738" y="504"/>
      <point x="659" y="504" type="curve" smooth="yes"/>
      <point x="574" y="504"/>
      <point x="524" y="455"/>
      <point x="488" y="413" type="curve"/>
      <point x="456" y="480"/>
      <point x="393" y="504"/>
      <point x="339" y="504" type="curve" smooth="yes"/>
      <point x="266" y="504"/>
      <point x="223" y="469"/>
      <point x="189" y="433" type="curve"/>
      <point x="186" y="433" type="line"/>
      <point x="174" y="503" type="line"/>
      <point x="45" y="486" type="line"/>
      <point x="45" y="473"/>
      <point x="44" y="443"/>
      <point x="77" y="443" type="curve" smooth="yes"/>
      <point x="121" y="442" type="line"/>
      <point x="121" y="45" type="line"/>
      <point x="79" y="43" type="line" smooth="yes"/>
      <point x="43" y="40"/>
      <point x="49" y="10"/>
      <point x="48" y="0" type="curve"/>
      <point x="238" y="0" type="line" smooth="yes"/>
      <point x="271" y="0"/>
      <point x="267" y="31"/>
      <point x="266" y="41" type="curve"/>
      <point x="190" y="47" type="line"/>
      <point x="190" y="378" type="line"/>
      <point x="229" y="414"/>
      <point x="266" y="441"/>
      <point x="323" y="441" type="curve" smooth="yes"/>
      <point x="395" y="441"/>
      <point x="442" y="394"/>
      <point x="442" y="295" type="curve" smooth="yes"/>
      <point x="442" y="45" type="line"/>
      <point x="401" y="43" type="line" smooth="yes"/>
      <point x="365" y="40"/>
      <point x="371" y="10"/>
      <point x="370" y="0" type="curve"/>
      <point x="560" y="0" type="line" smooth="yes"/>
      <point x="592" y="0"/>
      <point x="588" y="31"/>
      <point x="587" y="41" type="curve"/>
      <point x="512" y="47" type="line"/>
      <point x="512" y="301" type="line" smooth="yes"/>
      <point x="512" y="328"/>
      <point x="510" y="350"/>
      <point x="503" y="372" type="curve"/>
      <point x="544" y="410"/>
      <point x="583" y="441"/>
      <point x="643" y="441" type="curve" smooth="yes"/>
      <point x="717" y="441"/>
      <point x="761" y="394"/>
      <point x="761" y="295" type="curve" smooth="yes"/>
      <point x="761" y="45" type="line"/>
      <point x="720" y="43" type="line" smooth="yes"/>
      <point x="684" y="40"/>
      <point x="690" y="10"/>
      <point x="689" y="0" type="curve"/>
      <point x="878" y="0" type="line" smooth="yes"/>
      <point x="911" y="0"/>
      <point x="907" y="31"/>
      <point x="906" y="41" type="curve"/>
    </contour>
  </outline>
</glyph>
<glyph name="n" format="1">
  <advance width="613"/>
  <unicode hex="006E"/>
  <outline>
    <contour>
      <point x="317" y="489" type="move" name="top"/>
    </contour>
    <contour>
      <point x="314" y="0" type="move" name="bottom"/>
    </contour>
    <contour>
      <point x="519" y="47" type="line"/>
      <point x="519" y="312" type="line" smooth="yes"/>
      <point x="519" y="454"/>
      <point x="435" y="504"/>
      <point x="357" y="504" type="curve" smooth="yes"/>
      <point x="283" y="504"/>
      <point x="228" y="463"/>
      <point x="190" y="427" type="curve"/>
      <point x="187" y="427" type="line"/>
      <point x="174" y="503" type="line"/>
      <point x="45" y="486" type="line"/>
      <point x="45" y="473"/>
      <point x="44" y="447"/>
      <point x="69" y="445" type="curve" smooth="yes"/>
      <point x="121" y="439" type="line"/>
      <point x="121" y="45" type="line"/>
      <point x="78" y="43" type="line" smooth="yes"/>
      <point x="41" y="40"/>
      <point x="47" y="10"/>
      <point x="46" y="0" type="curve"/>
      <point x="234" y="0" type="line" smooth="yes"/>
      <point x="266" y="0"/>
      <point x="262" y="31"/>
      <point x="261" y="41" type="curve"/>
      <point x="190" y="47" type="line"/>
      <point x="190" y="377" type="line"/>
      <point x="241" y="420"/>
      <point x="281" y="444"/>
      <point x="339" y="444" type="curve" smooth="yes"/>
      <point x="415" y="444"/>
      <point x="450" y="393"/>
      <point x="450" y="304" type="curve" smooth="yes"/>
      <point x="450" y="45" type="line"/>
      <point x="406" y="43" type="line" smooth="yes"/>
      <point x="370" y="40"/>
      <point x="376" y="10"/>
      <point x="375" y="0" type="curve"/>
      <point x="561" y="0" type="line" smooth="yes"/>
      <point x="594" y="0"/>
      <point x="590" y="31"/>
      <point x="589" y="41" type="curve"/>
    </contour>
  </outline>
</glyph>
<glyph name="o" format="1">
  <advance width="508"/>
  <unicode hex="006F"/>
  <outline>
    <contour>
      <point x="257" y="489" type="move" name="top"/>
    </contour>
    <contour>
      <point x="261" y="504" type="curve" smooth="yes"/>
      <point x="125" y="504"/>
      <point x="37" y="398"/>
      <point x="39" y="228" type="curve" smooth="yes"/>
      <point x="41" y="75"/>
      <point x="114" y="-15"/>
      <point x="245" y="-15" type="curve" smooth="yes"/>
      <point x="389" y="-15"/>
      <point x="471" y="97"/>
      <point x="469" y="260" type="curve" smooth="yes"/>
      <point x="468" y="455"/>
      <point x="352" y="504"/>
    </contour>
    <contour>
      <point x="254" y="452" type="curve" smooth="yes"/>
      <point x="354" y="453"/>
      <point x="395" y="351"/>
      <point x="395" y="243" type="curve" smooth="yes"/>
      <point x="395" y="124"/>
      <point x="346" y="37"/>
      <point x="254" y="37" type="curve" smooth="yes"/>
      <point x="157" y="36"/>
      <point x="113" y="128"/>
      <point x="113" y="243" type="curve" smooth="yes"/>
      <point x="113" y="360"/>
      <point x="162" y="452"/>
    </contour>
  </outline>
</glyph>
<glyph name="q" format="1">
  <advance width="523"/>
  <unicode hex="0071"/>
  <outline>
    <contour>
      <point x="274" y="504" type="curve" smooth="yes"/>
      <point x="121" y="504"/>
      <point x="36" y="392"/>
      <point x="39" y="225" type="curve" smooth="yes"/>
      <point x="42" y="61"/>
      <point x="136" y="-15"/>
      <point x="233" y="-15" type="curve" smooth="yes"/>
      <point x="333" y="-15"/>
      <point x="390" y="40"/>
      <point x="427" y="84" type="curve"/>
      <point x="419" y="123" type="line"/>
      <point x="362" y="76"/>
      <point x="326" y="46"/>
      <point x="261" y="46" type="curve" smooth="yes"/>
      <point x="155" y="46"/>
      <point x="113" y="137"/>
      <point x="113" y="245" type="curve" smooth="yes"/>
      <point x="113" y="351"/>
      <point x="154" y="450"/>
      <point x="259" y="450" type="curve" smooth="yes"/>
      <point x="336" y="450"/>
      <point x="388" y="409"/>
      <point x="400" y="393" type="curve"/>
      <point x="427" y="460" type="line"/>
      <point x="380" y="486"/>
      <point x="341" y="504"/>
    </contour>
    <contour>
      <point x="458" y="-167" type="line"/>
      <point x="391" y="-169" type="line"/>
      <point x="349" y="-172" type="line" smooth="yes"/>
      <point x="313" y="-174"/>
      <point x="319" y="-204"/>
      <point x="318" y="-214" type="curve"/>
      <point x="507" y="-214" type="line" smooth="yes"/>
      <point x="540" y="-214"/>
      <point x="536" y="-183"/>
      <point x="535" y="-173" type="curve"/>
    </contour>
    <contour>
      <point x="461" y="489" type="line"/>
      <point x="391" y="484" type="line"/>
      <point x="391" y="-214" type="line"/>
      <point x="461" y="-214" type="line"/>
    </contour>
  </outline>
</glyph>
<glyph name="r" format="1">
  <advance width="406"/>
  <unicode hex="0072"/>
  <outline>
    <contour>
      <point x="225" y="489" type="move" name="top"/>
    </contour>
    <contour>
      <point x="164" y="0" type="move" name="bottom"/>
    </contour>
    <contour>
      <point x="342" y="504" type="curve" smooth="yes"/>
      <point x="296" y="504"/>
      <point x="228" y="463"/>
      <point x="190" y="423" type="curve"/>
      <point x="187" y="423" type="line"/>
      <point x="180" y="500" type="line"/>
      <point x="45" y="483" type="line"/>
      <point x="45" y="470"/>
      <point x="44" y="444"/>
      <point x="67" y="442" type="curve" smooth="yes"/>
      <point x="121" y="436" type="line"/>
      <point x="121" y="45" type="line"/>
      <point x="79" y="43" type="line" smooth="yes"/>
      <point x="43" y="40"/>
      <point x="49" y="10"/>
      <point x="48" y="0" type="curve"/>
      <point x="248" y="0" type="line" smooth="yes"/>
      <point x="281" y="0"/>
      <point x="277" y="31"/>
      <point x="276" y="41" type="curve"/>
      <point x="190" y="47" type="line"/>
      <point x="190" y="372" type="line"/>
      <point x="231" y="413"/>
      <point x="271" y="440"/>
      <point x="306" y="440" type="curve" smooth="yes"/>
      <point x="336" y="440"/>
      <point x="344" y="411"/>
      <point x="344" y="368" type="curve"/>
      <point x="362" y="367"/>
      <point x="375" y="369"/>
      <point x="385" y="377" type="curve"/>
      <point x="395" y="388"/>
      <point x="402" y="423"/>
      <point x="402" y="448" type="curve" smooth="yes"/>
      <point x="402" y="490"/>
      <point x="370" y="504"/>
    </contour>
  </outline>
</glyph>
<glyph name="s" format="1">
  <advance width="395"/>
  <unicode hex="0073"/>
  <outline>
    <contour>
      <point x="200" y="489" type="move" name="top"/>
    </contour>
    <contour>
      <point x="201" y="0" type="move" name="bottom"/>
    </contour>
    <contour>
      <point x="217" y="504" type="curve" smooth="yes"/>
      <point x="128" y="505"/>
      <point x="42" y="455"/>
      <point x="41" y="364" type="curve" smooth="yes"/>
      <point x="40" y="276"/>
      <point x="125" y="244"/>
      <point x="205" y="215" type="curve" smooth="yes"/>
      <point x="272" y="189"/>
      <point x="309" y="170"/>
      <point x="308" y="121" type="curve" smooth="yes"/>
      <point x="307" y="65"/>
      <point x="255" y="36"/>
      <point x="196" y="37" type="curve" smooth="yes"/>
      <point x="129" y="37"/>
      <point x="85" y="75"/>
      <point x="74" y="128" type="curve"/>
      <point x="47" y="129"/>
      <point x="24" y="111"/>
      <point x="23" y="79" type="curve" smooth="yes"/>
      <point x="23" y="18"/>
      <point x="104" y="-13"/>
      <point x="179" y="-15" type="curve" smooth="yes"/>
      <point x="302" y="-17"/>
      <point x="370" y="65"/>
      <point x="371" y="146" type="curve" smooth="yes"/>
      <point x="373" y="225"/>
      <point x="311" y="251"/>
      <point x="230" y="283" type="curve" smooth="yes"/>
      <point x="152" y="313"/>
      <point x="101" y="334"/>
      <point x="102" y="381" type="curve" smooth="yes"/>
      <point x="103" y="424"/>
      <point x="146" y="454"/>
      <point x="202" y="453" type="curve" smooth="yes"/>
      <point x="263" y="452"/>
      <point x="291" y="417"/>
      <point x="290" y="373" type="curve"/>
      <point x="313" y="371"/>
      <point x="347" y="383"/>
      <point x="348" y="422" type="curve" smooth="yes"/>
      <point x="349" y="480"/>
      <point x="276" y="503"/>
    </contour>
  </outline>
</glyph>
<glyph name="t" format="1">
  <advance width="374"/>
  <unicode hex="0074"/>
  <outline>
    <contour>
      <point x="216" y="0" type="move" name="bottom"/>
    </contour>
    <contour>
      <point x="94" y="608" type="line"/>
      <point x="94" y="140" type="line" smooth="yes"/>
      <point x="94" y="49"/>
      <point x="118" y="-16"/>
      <point x="218" y="-16" type="curve" smooth="yes"/>
      <point x="274" y="-16"/>
      <point x="360" y="20"/>
      <point x="360" y="60" type="curve" smooth="yes"/>
      <point x="360" y="72"/>
      <point x="352" y="84"/>
      <point x="342" y="87" type="curve"/>
      <point x="292" y="47"/>
      <point x="266" y="43"/>
      <point x="224" y="43" type="curve" smooth="yes"/>
      <point x="174" y="43"/>
      <point x="163" y="79"/>
      <point x="163" y="149" type="curve" smooth="yes"/>
      <point x="163" y="625" type="line"/>
    </contour>
    <contour>
      <point x="50" y="489" type="line"/>
      <point x="19" y="489"/>
      <point x="20" y="458"/>
      <point x="21" y="443" type="curve"/>
      <point x="335" y="443" type="line"/>
      <point x="349" y="453"/>
      <point x="351" y="476"/>
      <point x="350" y="489" type="curve"/>
    </contour>
  </outline>
</glyph>
<glyph name="u" format="1">
  <advance width="572"/>
  <unicode hex="0075"/>
  <outline>
    <contour>
      <point x="285" y="489" type="move" name="top"/>
    </contour>
    <contour>
      <point x="509" y="2" type="move" name="ogonek"/>
    </contour>
    <contour>
      <point x="478" y="57" type="line"/>
      <point x="478" y="489" type="line"/>
      <point x="359" y="489" type="line" smooth="yes"/>
      <point x="327" y="489"/>
      <point x="331" y="457"/>
      <point x="332" y="447" type="curve"/>
      <point x="409" y="442" type="line"/>
      <point x="409" y="100" type="line"/>
      <point x="371" y="67"/>
      <point x="335" y="45"/>
      <point x="279" y="45" type="curve" smooth="yes"/>
      <point x="205" y="45"/>
      <point x="161" y="94"/>
      <point x="161" y="194" type="curve" smooth="yes"/>
      <point x="161" y="489" type="line"/>
      <point x="44" y="489" type="line" smooth="yes"/>
      <point x="11" y="489"/>
      <point x="16" y="457"/>
      <point x="16" y="447" type="curve"/>
      <point x="92" y="442" type="line"/>
      <point x="92" y="188" type="line" smooth="yes"/>
      <point x="92" y="35"/>
      <point x="184" y="-15"/>
      <point x="263" y="-15" type="curve" smooth="yes"/>
      <point x="337" y="-15"/>
      <point x="382" y="18"/>
      <point x="416" y="52" type="curve"/>
      <point x="429" y="-1" type="line"/>
      <point x="550" y="9" type="line"/>
      <point x="550" y="22"/>
      <point x="551" y="50"/>
      <point x="527" y="52" type="curve" smooth="yes"/>
    </contour>
  </outline>
</glyph>
<glyph name="v" format="1">
  <advance width="478"/>
  <unicode hex="0076"/>
  <outline>
    <contour>
      <point x="105" y="486" type="line"/>
      <point x="29" y="478" type="line"/>
      <point x="211" y="0" type="line"/>
      <point x="258" y="0" type="line"/>
      <point x="453" y="483" type="line"/>
      <point x="387" y="477" type="line"/>
      <point x="216" y="21" type="line"/>
      <point x="260" y="49" type="line"/>
    </contour>
    <contour>
      <point x="30" y="489" type="line"/>
      <point x="6" y="489"/>
      <point x="3" y="462"/>
      <point x="4" y="448" type="curve"/>
      <point x="44" y="442" type="line"/>
      <point x="120" y="444" type="line"/>
      <point x="158" y="447" type="line" smooth="yes"/>
      <point x="194" y="450"/>
      <point x="189" y="479"/>
      <point x="190" y="489" type="curve"/>
    </contour>
    <contour>
      <point x="345" y="489" type="line"/>
      <point x="312" y="489"/>
      <point x="316" y="458"/>
      <point x="317" y="448" type="curve"/>
      <point x="376" y="442" type="line"/>
      <point x="427" y="445" type="line"/>
      <point x="444" y="447" type="line" smooth="yes"/>
      <point x="472" y="449"/>
      <point x="475" y="471"/>
      <point x="474" y="489" type="curve"/>
    </contour>
  </outline>
</glyph>
<glyph name="w" format="1">
  <advance width="704"/>
  <unicode hex="0077"/>
  <outline>
    <contour>
      <point x="369" y="489" type="move" name="top"/>
    </contour>
    <contour>
      <point x="108" y="486" type="line"/>
      <point x="31" y="481" type="line"/>
      <point x="192" y="0" type="line"/>
      <point x="233" y="0" type="line"/>
      <point x="368" y="359" type="line"/>
      <point x="332" y="360" type="line"/>
      <point x="457" y="0" type="line"/>
      <point x="499" y="0" type="line"/>
      <point x="679" y="483" type="line"/>
      <point x="612" y="477" type="line"/>
      <point x="470" y="47" type="line"/>
      <point x="507" y="47" type="line"/>
      <point x="381" y="447" type="line"/>
      <point x="347" y="447" type="line"/>
      <point x="207" y="47" type="line"/>
      <point x="238" y="50" type="line"/>
    </contour>
    <contour>
      <point x="30" y="489" type="line"/>
      <point x="6" y="489"/>
      <point x="3" y="462"/>
      <point x="4" y="448" type="curve"/>
      <point x="44" y="442" type="line"/>
      <point x="120" y="444" type="line"/>
      <point x="158" y="447" type="line" smooth="yes"/>
      <point x="194" y="450"/>
      <point x="189" y="479"/>
      <point x="190" y="489" type="curve"/>
    </contour>
    <contour>
      <point x="571" y="489" type="line"/>
      <point x="539" y="489"/>
      <point x="543" y="458"/>
      <point x="544" y="448" type="curve"/>
      <point x="603" y="442" type="line"/>
      <point x="658" y="445" type="line"/>
      <point x="671" y="447" type="line" smooth="yes"/>
      <point x="699" y="449"/>
      <point x="702" y="471"/>
      <point x="700" y="489" type="curve"/>
    </contour>
  </outline>
</glyph>
<glyph name="x" format="1">
  <advance width="486"/>
  <unicode hex="0078"/>
  <outline>
    <contour>
      <point x="123" y="474" type="line"/>
      <point x="46" y="468" type="line"/>
      <point x="372" y="18" type="line"/>
      <point x="445" y="30" type="line"/>
    </contour>
    <contour>
      <point x="134" y="47" type="line"/>
      <point x="75" y="45" type="line"/>
      <point x="41" y="43" type="line" smooth="yes"/>
      <point x="4" y="39"/>
      <point x="10" y="10"/>
      <point x="9" y="0" type="curve"/>
      <point x="166" y="0" type="line" smooth="yes"/>
      <point x="198" y="0"/>
      <point x="194" y="31"/>
      <point x="193" y="41" type="curve"/>
    </contour>
    <contour>
      <point x="230" y="269" type="line"/>
      <point x="65" y="31" type="line"/>
      <point x="122" y="28" type="line"/>
      <point x="262" y="245" type="line"/>
    </contour>
    <contour>
      <point x="431" y="47" type="line"/>
      <point x="352" y="45" type="line"/>
      <point x="322" y="43" type="line" smooth="yes"/>
      <point x="286" y="38"/>
      <point x="292" y="10"/>
      <point x="291" y="0" type="curve"/>
      <point x="452" y="0" type="line" smooth="yes"/>
      <point x="485" y="0"/>
      <point x="481" y="31"/>
      <point x="480" y="41" type="curve"/>
    </contour>
    <contour>
      <point x="43" y="489" type="line"/>
      <point x="11" y="489"/>
      <point x="14" y="458"/>
      <point x="15" y="448" type="curve"/>
      <point x="65" y="442" type="line"/>
      <point x="144" y="444" type="line"/>
      <point x="174" y="447" type="line" smooth="yes"/>
      <point x="210" y="452"/>
      <point x="204" y="479"/>
      <point x="205" y="489" type="curve"/>
    </contour>
    <contour>
      <point x="377" y="471" type="line"/>
      <point x="236" y="252" type="line"/>
      <point x="269" y="228" type="line"/>
      <point x="433" y="468" type="line"/>
    </contour>
    <contour>
      <point x="333" y="489" type="line"/>
      <point x="301" y="489"/>
      <point x="305" y="458"/>
      <point x="306" y="448" type="curve"/>
      <point x="358" y="442" type="line"/>
      <point x="418" y="445" type="line"/>
      <point x="442" y="447" type="line" smooth="yes"/>
      <point x="479" y="448"/>
      <point x="472" y="479"/>
      <point x="473" y="489" type="curve"/>
    </contour>
  </outline>
</glyph>
<glyph name="y" format="1">
  <advance width="495"/>
  <unicode hex="0079"/>
  <outline>
    <contour>
      <point x="255" y="489" type="move" name="top"/>
    </contour>
    <contour>
      <point x="116" y="486" type="line"/>
      <point x="37" y="484" type="line"/>
      <point x="234" y="12" type="line"/>
      <point x="274" y="12" type="line"/>
      <point x="465" y="483" type="line"/>
      <point x="403" y="477" type="line"/>
      <point x="235" y="39" type="line"/>
      <point x="280" y="62" type="line"/>
    </contour>
    <contour>
      <point x="231" y="29" type="line"/>
      <point x="209" y="-28"/>
      <point x="152" y="-160"/>
      <point x="111" y="-160" type="curve" smooth="yes"/>
      <point x="85" y="-160"/>
      <point x="84" y="-138"/>
      <point x="88" y="-120" type="curve"/>
      <point x="83" y="-118"/>
      <point x="77" y="-118"/>
      <point x="73" y="-118" type="curve" smooth="yes"/>
      <point x="48" y="-118"/>
      <point x="31" y="-138"/>
      <point x="31" y="-165" type="curve" smooth="yes"/>
      <point x="31" y="-193"/>
      <point x="53" y="-219"/>
      <point x="100" y="-219" type="curve" smooth="yes"/>
      <point x="187" y="-219"/>
      <point x="240" y="-71"/>
      <point x="280" y="25" type="curve"/>
    </contour>
    <contour>
      <point x="33" y="489" type="line"/>
      <point x="0" y="489"/>
      <point x="4" y="458"/>
      <point x="5" y="448" type="curve"/>
      <point x="54" y="442" type="line"/>
      <point x="132" y="444" type="line"/>
      <point x="170" y="447" type="line" smooth="yes"/>
      <point x="206" y="450"/>
      <point x="200" y="479"/>
      <point x="201" y="489" type="curve"/>
    </contour>
    <contour>
      <point x="360" y="489" type="line"/>
      <point x="327" y="489"/>
      <point x="331" y="458"/>
      <point x="332" y="448" type="curve"/>
      <point x="391" y="442" type="line"/>
      <point x="429" y="444" type="line"/>
      <point x="460" y="447" type="line" smooth="yes"/>
      <point x="498" y="451"/>
      <point x="491" y="479"/>
      <point x="492" y="489" type="curve"/>
    </contour>
  </outline>
</glyph>
<glyph name="braceleft" format="1">
  <advance width="319"/>
  <unicode hex="007B"/>
  <outline>
    <contour>
      <point x="228" y="708" type="curve" smooth="yes"/>
      <point x="157" y="708"/>
      <point x="101" y="657"/>
      <point x="101" y="576" type="curve" smooth="yes"/>
      <point x="101" y="501"/>
      <point x="117" y="449"/>
      <point x="117" y="374" type="curve" smooth="yes"/>
      <point x="117" y="334"/>
      <point x="110" y="317"/>
      <point x="94" y="299" type="curve"/>
      <point x="87" y="290"/>
      <point x="81" y="283"/>
      <point x="50" y="271" type="curve"/>
      <point x="50" y="244" type="line"/>
      <point x="78" y="232"/>
      <point x="85" y="228"/>
      <point x="94" y="216" type="curve"/>
      <point x="110" y="198"/>
      <point x="117" y="183"/>
      <point x="117" y="145" type="curve" smooth="yes"/>
      <point x="117" y="64"/>
      <point x="101" y="11"/>
      <point x="101" y="-61" type="curve" smooth="yes"/>
      <point x="101" y="-143"/>
      <point x="156" y="-193"/>
      <point x="226" y="-193" type="curve" smooth="yes"/>
      <point x="258" y="-193"/>
      <point x="290" y="-189"/>
      <point x="307" y="-180" type="curve"/>
      <point x="301" y="-146" type="line"/>
      <point x="291" y="-147"/>
      <point x="281" y="-148"/>
      <point x="271" y="-148" type="curve" smooth="yes"/>
      <point x="205" y="-148"/>
      <point x="166" y="-123"/>
      <point x="166" y="-56" type="curve" smooth="yes"/>
      <point x="166" y="-6"/>
      <point x="183" y="69"/>
      <point x="183" y="130" type="curve" smooth="yes"/>
      <point x="183" y="209"/>
      <point x="160" y="245"/>
      <point x="132" y="254" type="curve"/>
      <point x="132" y="261" type="line"/>
      <point x="160" y="270"/>
      <point x="183" y="306"/>
      <point x="183" y="386" type="curve" smooth="yes"/>
      <point x="183" y="453"/>
      <point x="166" y="521"/>
      <point x="166" y="571" type="curve" smooth="yes"/>
      <point x="166" y="638"/>
      <point x="205" y="662"/>
      <point x="271" y="662" type="curve" smooth="yes"/>
      <point x="281" y="662"/>
      <point x="291" y="661"/>
      <point x="301" y="660" type="curve"/>
      <point x="307" y="695" type="line"/>
      <point x="293" y="704"/>
      <point x="261" y="708"/>
    </contour>
  </outline>
</glyph>
<glyph name="asciitilde" format="1">
  <advance width="548"/>
  <unicode hex="007E"/>
  <outline>
    <contour>
      <point x="131" y="241" type="line"/>
      <point x="141" y="265"/>
      <point x="163" y="287"/>
      <point x="190" y="287" type="curve" smooth="yes"/>
      <point x="242" y="283"/>
      <point x="267" y="231"/>
      <point x="333" y="228" type="curve" smooth="yes"/>
      <point x="398" y="225"/>
      <point x="435" y="268"/>
      <point x="448" y="325" type="curve"/>
      <point x="417" y="335" type="line"/>
      <point x="408" y="307"/>
      <point x="384" y="286"/>
      <point x="350" y="287" type="curve" smooth="yes"/>
      <point x="295" y="290"/>
      <point x="273" y="345"/>
      <point x="211" y="348" type="curve" smooth="yes"/>
      <point x="165" y="350"/>
      <point x="118" y="318"/>
      <point x="100" y="255" type="curve"/>
    </contour>
  </outline>
</glyph>
<glyph name="cent" format="1">
  <advance width="479"/>
  <unicode hex="00A2"/>
  <outline>
    <contour>
      <point x="285" y="504" type="curve" smooth="yes"/>
      <point x="131" y="504"/>
      <point x="48" y="383"/>
      <point x="50" y="221" type="curve" smooth="yes"/>
      <point x="52" y="86"/>
      <point x="119" y="-16"/>
      <point x="249" y="-16" type="curve" smooth="yes"/>
      <point x="338" y="-16"/>
      <point x="429" y="30"/>
      <point x="429" y="70" type="curve" smooth="yes"/>
      <point x="429" y="78"/>
      <point x="425" y="88"/>
      <point x="417" y="94" type="curve"/>
      <point x="372" y="58"/>
      <point x="328" y="42"/>
      <point x="278" y="42" type="curve" smooth="yes"/>
      <point x="157" y="42"/>
      <point x="124" y="144"/>
      <point x="124" y="244" type="curve" smooth="yes"/>
      <point x="124" y="358"/>
      <point x="171" y="454"/>
      <point x="270" y="454" type="curve" smooth="yes"/>
      <point x="341" y="454"/>
      <point x="368" y="403"/>
      <point x="369" y="356" type="curve"/>
      <point x="397" y="355"/>
      <point x="425" y="367"/>
      <point x="425" y="409" type="curve" smooth="yes"/>
      <point x="425" y="465"/>
      <point x="372" y="504"/>
    </contour>
    <contour>
      <point x="294" y="13" type="line"/>
      <point x="244" y="9" type="line"/>
      <point x="235" y="-105" type="line"/>
      <point x="252" y="-112"/>
      <point x="283" y="-112"/>
      <point x="302" y="-105" type="curve"/>
    </contour>
    <contour>
      <point x="302" y="596" type="line"/>
      <point x="283" y="603"/>
      <point x="252" y="602"/>
      <point x="235" y="596" type="curve"/>
      <point x="245" y="477" type="line"/>
      <point x="294" y="479" type="line"/>
    </contour>
  </outline>
</glyph>
<glyph name="sterling" format="1">
  <advance width="508"/>
  <unicode hex="00A3"/>
  <outline>
    <contour>
      <point x="344" y="618" type="curve" smooth="yes"/>
      <point x="226" y="618"/>
      <point x="168" y="539"/>
      <point x="158" y="389" type="curve" smooth="yes"/>
      <point x="155" y="352"/>
      <point x="139" y="161"/>
      <point x="127" y="116" type="curve" smooth="yes"/>
      <point x="113" y="60"/>
      <point x="89" y="45"/>
      <point x="49" y="34" type="curve"/>
      <point x="49" y="23"/>
      <point x="51" y="8"/>
      <point x="55" y="0" type="curve"/>
      <point x="422" y="0" type="line" smooth="yes"/>
      <point x="455" y="0"/>
      <point x="461" y="23"/>
      <point x="459" y="48" type="curve"/>
      <point x="155" y="48" type="line"/>
      <point x="170" y="61"/>
      <point x="182" y="85"/>
      <point x="190" y="124" type="curve" smooth="yes"/>
      <point x="200" y="178"/>
      <point x="215" y="350"/>
      <point x="218" y="389" type="curve" smooth="yes"/>
      <point x="228" y="516"/>
      <point x="273" y="569"/>
      <point x="329" y="569" type="curve" smooth="yes"/>
      <point x="380" y="569"/>
      <point x="397" y="538"/>
      <point x="397" y="489" type="curve"/>
      <point x="421" y="488"/>
      <point x="455" y="497"/>
      <point x="455" y="541" type="curve" smooth="yes"/>
      <point x="455" y="597"/>
      <point x="396" y="618"/>
    </contour>
    <contour>
      <point x="385" y="320" type="line"/>
      <point x="58" y="320" type="line"/>
      <point x="58" y="271" type="line"/>
      <point x="385" y="271" type="line"/>
    </contour>
  </outline>
</glyph>
<glyph name="currency" format="1">
  <advance width="583"/>
  <unicode hex="00A4"/>
  <outline>
    <contour>
      <point x="487" y="279" type="curve" smooth="yes"/>
      <point x="487" y="329"/>
      <point x="473" y="371"/>
      <point x="447" y="404" type="curve"/>
      <point x="534" y="479" type="line"/>
      <point x="520" y="498"/>
      <point x="505" y="514"/>
      <point x="488" y="523" type="curve"/>
      <point x="411" y="438" type="line"/>
      <point x="380" y="460"/>
      <point x="341" y="472"/>
      <point x="295" y="472" type="curve" smooth="yes"/>
      <point x="247" y="472"/>
      <point x="206" y="458"/>
      <point x="174" y="435" type="curve"/>
      <point x="95" y="523" type="line"/>
      <point x="78" y="514"/>
      <point x="63" y="498"/>
      <point x="49" y="479" type="curve"/>
      <point x="140" y="400" type="line"/>
      <point x="116" y="368"/>
      <point x="103" y="327"/>
      <point x="103" y="279" type="curve" smooth="yes"/>
      <point x="103" y="233"/>
      <point x="115" y="193"/>
      <point x="138" y="162" type="curve"/>
      <point x="49" y="85" type="line"/>
      <point x="63" y="66"/>
      <point x="78" y="50"/>
      <point x="95" y="40" type="curve"/>
      <point x="173" y="126" type="line"/>
      <point x="205" y="102"/>
      <point x="246" y="88"/>
      <point x="294" y="88" type="curve" smooth="yes"/>
      <point x="341" y="88"/>
      <point x="382" y="100"/>
      <point x="413" y="124" type="curve"/>
      <point x="488" y="40" type="line"/>
      <point x="505" y="50"/>
      <point x="520" y="66"/>
      <point x="534" y="85" type="curve"/>
      <point x="450" y="158" type="line"/>
      <point x="474" y="190"/>
      <point x="487" y="231"/>
    </contour>
    <contour>
      <point x="296" y="145" type="curve" smooth="yes"/>
      <point x="218" y="145"/>
      <point x="166" y="200"/>
      <point x="166" y="279" type="curve" smooth="yes"/>
      <point x="166" y="360"/>
      <point x="218" y="415"/>
      <point x="296" y="415" type="curve" smooth="yes"/>
      <point x="373" y="415"/>
      <point x="425" y="360"/>
      <point x="425" y="279" type="curve" smooth="yes"/>
      <point x="425" y="200"/>
      <point x="373" y="145"/>
    </contour>
  </outline>
</glyph>
<glyph name="yen" format="1">
  <advance width="573"/>
  <unicode hex="00A5"/>
  <outline>
    <contour>
      <point x="332" y="310" type="line"/>
      <point x="263" y="310" type="line"/>
      <point x="263" y="0" type="line"/>
      <point x="332" y="0" type="line"/>
    </contour>
    <contour>
      <point x="332" y="50" type="line"/>
      <point x="263" y="48" type="line"/>
      <point x="217" y="46" type="line" smooth="yes"/>
      <point x="181" y="43"/>
      <point x="187" y="10"/>
      <point x="186" y="0" type="curve"/>
      <point x="378" y="0" type="line" smooth="yes"/>
      <point x="411" y="0"/>
      <point x="407" y="34"/>
      <point x="406" y="44" type="curve"/>
    </contour>
    <contour>
      <point x="54" y="586" type="line"/>
      <point x="279" y="258" type="line"/>
      <point x="317" y="258" type="line"/>
      <point x="523" y="591" type="line"/>
      <point x="455" y="585" type="line"/>
      <point x="277" y="284" type="line"/>
      <point x="321" y="306" type="line"/>
      <point x="142" y="589" type="line"/>
    </contour>
    <contour>
      <point x="445" y="562" type="line"/>
      <point x="508" y="564" type="line"/>
      <point x="531" y="567" type="line" smooth="yes"/>
      <point x="568" y="572"/>
      <point x="562" y="603"/>
      <point x="563" y="613" type="curve"/>
      <point x="400" y="613" type="line" smooth="yes"/>
      <point x="367" y="613"/>
      <point x="371" y="578"/>
      <point x="372" y="568" type="curve"/>
    </contour>
    <contour>
      <point x="70" y="562" type="line"/>
      <point x="148" y="564" type="line"/>
      <point x="194" y="567" type="line" smooth="yes"/>
      <point x="230" y="569"/>
      <point x="224" y="603"/>
      <point x="225" y="613" type="curve"/>
      <point x="40" y="613" type="line" smooth="yes"/>
      <point x="7" y="613"/>
      <point x="11" y="578"/>
      <point x="12" y="568" type="curve"/>
    </contour>
    <contour>
      <point x="454" y="320" type="line"/>
      <point x="127" y="320" type="line"/>
      <point x="127" y="270" type="line"/>
      <point x="454" y="270" type="line"/>
    </contour>
    <contour>
      <point x="454" y="219" type="line"/>
      <point x="127" y="219" type="line"/>
      <point x="127" y="169" type="line"/>
      <point x="454" y="169" type="line"/>
    </contour>
  </outline>
</glyph>
<glyph name="brokenbar" format="1">
  <advance width="263"/>
  <unicode hex="00A6"/>
  <outline>
    <contour>
      <point x="163" y="173" type="line"/>
      <point x="100" y="173" type="line"/>
      <point x="100" y="-195" type="line"/>
      <point x="163" y="-195" type="line"/>
    </contour>
    <contour>
      <point x="100" y="340" type="line"/>
      <point x="163" y="340" type="line"/>
      <point x="163" y="708" type="line"/>
      <point x="100" y="708" type="line"/>
    </contour>
  </outline>
</glyph>
<glyph name="section" format="1">
  <advance width="529"/>
  <unicode hex="00A7"/>
  <outline>
    <contour>
      <point x="147" y="405" type="line"/>
      <point x="101" y="375"/>
      <point x="69" y="328"/>
      <point x="69" y="267" type="curve" smooth="yes"/>
      <point x="69" y="163"/>
      <point x="163" y="117"/>
      <point x="268" y="72" type="curve" smooth="yes"/>
      <point x="356" y="34"/>
      <point x="418" y="10"/>
      <point x="418" y="-74" type="curve" smooth="yes"/>
      <point x="418" y="-164"/>
      <point x="344" y="-208"/>
      <point x="257" y="-208" type="curve" smooth="yes"/>
      <point x="174" y="-208"/>
      <point x="116" y="-168"/>
      <point x="100" y="-88" type="curve"/>
      <point x="62" y="-88"/>
      <point x="42" y="-115"/>
      <point x="42" y="-148" type="curve" smooth="yes"/>
      <point x="42" y="-222"/>
      <point x="144" y="-265"/>
      <point x="242" y="-265" type="curve" smooth="yes"/>
      <point x="393" y="-265"/>
      <point x="487" y="-163"/>
      <point x="487" y="-47" type="curve" smooth="yes"/>
      <point x="487" y="56"/>
      <point x="411" y="93"/>
      <point x="303" y="139" type="curve" smooth="yes"/>
      <point x="224" y="172"/>
      <point x="138" y="207"/>
      <point x="138" y="286" type="curve" smooth="yes"/>
      <point x="138" y="323"/>
      <point x="158" y="352"/>
      <point x="189" y="368" type="curve"/>
    </contour>
    <contour>
      <point x="390" y="29" type="line"/>
      <point x="452" y="68"/>
      <point x="487" y="133"/>
      <point x="487" y="203" type="curve" smooth="yes"/>
      <point x="487" y="307"/>
      <point x="411" y="344"/>
      <point x="303" y="389" type="curve" smooth="yes"/>
      <point x="224" y="423"/>
      <point x="138" y="457"/>
      <point x="138" y="536" type="curve" smooth="yes"/>
      <point x="138" y="601"/>
      <point x="197" y="636"/>
      <point x="270" y="636" type="curve" smooth="yes"/>
      <point x="355" y="636"/>
      <point x="392" y="591"/>
      <point x="392" y="522" type="curve"/>
      <point x="423" y="521"/>
      <point x="455" y="538"/>
      <point x="455" y="584" type="curve" smooth="yes"/>
      <point x="455" y="670"/>
      <point x="343" y="694"/>
      <point x="277" y="693" type="curve" smooth="yes"/>
      <point x="174" y="691"/>
      <point x="69" y="628"/>
      <point x="69" y="517" type="curve" smooth="yes"/>
      <point x="69" y="413"/>
      <point x="163" y="368"/>
      <point x="268" y="322" type="curve" smooth="yes"/>
      <point x="356" y="284"/>
      <point x="418" y="260"/>
      <point x="418" y="177" type="curve" smooth="yes"/>
      <point x="418" y="128"/>
      <point x="396" y="92"/>
      <point x="360" y="70" type="curve"/>
    </contour>
  </outline>
</glyph>
<glyph name="dieresis" format="1">
  <advance width="600"/>
  <unicode hex="00A8"/>
  <outline>
    <contour>
      <point x="256" y="489" type="move" name="_top"/>
    </contour>
    <contour>
      <point x="173" y="563" type="curve" smooth="yes"/>
      <point x="202" y="563"/>
      <point x="224" y="586"/>
      <point x="224" y="615" type="curve" smooth="yes"/>
      <point x="224" y="643"/>
      <point x="202" y="667"/>
      <point x="173" y="667" type="curve" smooth="yes"/>
      <point x="144" y="667"/>
      <point x="121" y="643"/>
      <point x="121" y="615" type="curve" smooth="yes"/>
      <point x="121" y="586"/>
      <point x="144" y="563"/>
    </contour>
    <contour>
      <point x="337" y="563" type="curve" smooth="yes"/>
      <point x="367" y="563"/>
      <point x="389" y="586"/>
      <point x="389" y="615" type="curve" smooth="yes"/>
      <point x="389" y="643"/>
      <point x="367" y="667"/>
      <point x="337" y="667" type="curve" smooth="yes"/>
      <point x="309" y="667"/>
      <point x="286" y="643"/>
      <point x="286" y="615" type="curve" smooth="yes"/>
      <point x="286" y="586"/>
      <point x="309" y="563"/>
    </contour>
  </outline>
</glyph>
<glyph name="copyright" format="1">
  <advance width="654"/>
  <unicode hex="00A9"/>
  <outline>
    <contour>
      <point x="328" y="588" type="curve" smooth="yes"/>
      <point x="160" y="588"/>
      <point x="50" y="476"/>
      <point x="50" y="311" type="curve" smooth="yes"/>
      <point x="50" y="144"/>
      <point x="161" y="34"/>
      <point x="327" y="34" type="curve" smooth="yes"/>
      <point x="495" y="34"/>
      <point x="604" y="145"/>
      <point x="604" y="310" type="curve" smooth="yes"/>
      <point x="604" y="479"/>
      <point x="492" y="588"/>
    </contour>
    <contour>
      <point x="328" y="538" type="curve" smooth="yes"/>
      <point x="454" y="538"/>
      <point x="546" y="450"/>
      <point x="546" y="310" type="curve" smooth="yes"/>
      <point x="546" y="174"/>
      <point x="458" y="84"/>
      <point x="328" y="84" type="curve" smooth="yes"/>
      <point x="196" y="84"/>
      <point x="108" y="174"/>
      <point x="108" y="310" type="curve" smooth="yes"/>
      <point x="108" y="442"/>
      <point x="192" y="538"/>
    </contour>
    <contour>
      <point x="427" y="408" type="curve" smooth="yes"/>
      <point x="427" y="440"/>
      <point x="398" y="463"/>
      <point x="347" y="463" type="curve" smooth="yes"/>
      <point x="257" y="463"/>
      <point x="208" y="393"/>
      <point x="209" y="300" type="curve" smooth="yes"/>
      <point x="209" y="222"/>
      <point x="253" y="163"/>
      <point x="335" y="163" type="curve" smooth="yes"/>
      <point x="387" y="163"/>
      <point x="430" y="190"/>
      <point x="430" y="213" type="curve" smooth="yes"/>
      <point x="430" y="220"/>
      <point x="428" y="227"/>
      <point x="423" y="230" type="curve"/>
      <point x="397" y="210"/>
      <point x="371" y="207"/>
      <point x="348" y="207" type="curve" smooth="yes"/>
      <point x="279" y="207"/>
      <point x="263" y="259"/>
      <point x="263" y="313" type="curve" smooth="yes"/>
      <point x="263" y="374"/>
      <point x="289" y="424"/>
      <point x="338" y="424" type="curve" smooth="yes"/>
      <point x="375" y="424"/>
      <point x="391" y="401"/>
      <point x="391" y="377" type="curve"/>
      <point x="407" y="377"/>
      <point x="427" y="386"/>
    </contour>
  </outline>
</glyph>
<glyph name="ordfeminine" format="1">
  <advance width="326"/>
  <unicode hex="00AA"/>
  <outline>
    <contour>
      <point x="153" y="317" type="move" name="top"/>
    </contour>
    <contour>
      <point x="262" y="31" type="move" name="ogonek"/>
    </contour>
    <contour>
      <point x="151" y="624" type="curve" smooth="yes"/>
      <point x="92" y="624"/>
      <point x="54" y="599"/>
      <point x="54" y="565" type="curve" smooth="yes"/>
      <point x="54" y="540"/>
      <point x="74" y="530"/>
      <point x="96" y="533" type="curve"/>
      <point x="97" y="558"/>
      <point x="112" y="582"/>
      <point x="152" y="582" type="curve" smooth="yes"/>
      <point x="188" y="582"/>
      <point x="206" y="558"/>
      <point x="206" y="516" type="curve" smooth="yes"/>
      <point x="206" y="387" type="line" smooth="yes"/>
      <point x="206" y="359"/>
      <point x="219" y="334"/>
      <point x="262" y="334" type="curve" smooth="yes"/>
      <point x="292" y="334"/>
      <point x="304" y="352"/>
      <point x="304" y="369" type="curve"/>
      <point x="266" y="373" type="line"/>
      <point x="266" y="519" type="line" smooth="yes"/>
      <point x="266" y="598"/>
      <point x="210" y="624"/>
    </contour>
    <contour>
      <point x="154" y="491" type="curve" smooth="yes"/>
      <point x="63" y="491"/>
      <point x="35" y="452"/>
      <point x="35" y="410" type="curve" smooth="yes"/>
      <point x="35" y="363"/>
      <point x="71" y="334"/>
      <point x="125" y="334" type="curve" smooth="yes"/>
      <point x="173" y="334"/>
      <point x="211" y="359"/>
      <point x="233" y="391" type="curve"/>
      <point x="231" y="419" type="line"/>
      <point x="208" y="395"/>
      <point x="178" y="377"/>
      <point x="152" y="377" type="curve" smooth="yes"/>
      <point x="114" y="377"/>
      <point x="101" y="397"/>
      <point x="101" y="416" type="curve" smooth="yes"/>
      <point x="101" y="440"/>
      <point x="123" y="455"/>
      <point x="156" y="455" type="curve" smooth="yes"/>
      <point x="191" y="455"/>
      <point x="227" y="440"/>
      <point x="243" y="418" type="curve"/>
      <point x="242" y="476" type="line"/>
      <point x="221" y="486"/>
      <point x="187" y="491"/>
    </contour>
  </outline>
</glyph>
<glyph name="guillemotleft" format="1">
  <advance width="556"/>
  <unicode hex="00AB"/>
  <outline>
    <contour>
      <point x="524" y="437" type="line"/>
      <point x="494" y="467" type="line"/>
      <point x="250" y="265" type="line"/>
      <point x="246" y="246"/>
      <point x="246" y="239"/>
      <point x="250" y="221" type="curve"/>
      <point x="494" y="19" type="line"/>
      <point x="526" y="49" type="line"/>
      <point x="332" y="240" type="line"/>
      <point x="332" y="246" type="line"/>
    </contour>
    <contour>
      <point x="333" y="437" type="line"/>
      <point x="303" y="467" type="line"/>
      <point x="59" y="265" type="line"/>
      <point x="55" y="246"/>
      <point x="55" y="239"/>
      <point x="59" y="221" type="curve"/>
      <point x="303" y="19" type="line"/>
      <point x="335" y="49" type="line"/>
      <point x="141" y="240" type="line"/>
      <point x="141" y="246" type="line"/>
    </contour>
  </outline>
</glyph>
<glyph name="logicalnot" format="1">
  <advance width="480"/>
  <unicode hex="00AC"/>
  <outline>
    <contour>
      <point x="50" y="317" type="line"/>
      <point x="50" y="260" type="line"/>
      <point x="430" y="260" type="line"/>
      <point x="430" y="317" type="line"/>
    </contour>
    <contour>
      <point x="430" y="317" type="line"/>
      <point x="372" y="317" type="line"/>
      <point x="371" y="151" type="line"/>
      <point x="429" y="151" type="line"/>
    </contour>
  </outline>
</glyph>
<glyph name="registered" format="1">
  <advance width="595"/>
  <unicode hex="00AE"/>
  <outline>
    <contour>
      <point x="298" y="702" type="curve" smooth="yes"/>
      <point x="160" y="702"/>
      <point x="66" y="607"/>
      <point x="66" y="467" type="curve" smooth="yes"/>
      <point x="66" y="328"/>
      <point x="161" y="235"/>
      <point x="298" y="235" type="curve" smooth="yes"/>
      <point x="434" y="235"/>
      <point x="529" y="325"/>
      <point x="529" y="468" type="curve" smooth="yes"/>
      <point x="529" y="609"/>
      <point x="436" y="702"/>
    </contour>
    <contour>
      <point x="300" y="656" type="curve" smooth="yes"/>
      <point x="410" y="656"/>
      <point x="478" y="577"/>
      <point x="478" y="467" type="curve" smooth="yes"/>
      <point x="478" y="351"/>
      <point x="405" y="280"/>
      <point x="298" y="280" type="curve" smooth="yes"/>
      <point x="192" y="280"/>
      <point x="117" y="354"/>
      <point x="117" y="468" type="curve" smooth="yes"/>
      <point x="117" y="582"/>
      <point x="193" y="656"/>
    </contour>
    <contour>
      <point x="209" y="602" type="line"/>
      <point x="198" y="602"/>
      <point x="196" y="583"/>
      <point x="196" y="574" type="curve"/>
      <point x="225" y="573" type="line"/>
      <point x="270" y="574" type="line"/>
      <point x="290" y="574" type="line" smooth="yes"/>
      <point x="320" y="574"/>
      <point x="344" y="563"/>
      <point x="344" y="536" type="curve" smooth="yes"/>
      <point x="344" y="510"/>
      <point x="322" y="492"/>
      <point x="283" y="492" type="curve" smooth="yes"/>
      <point x="275" y="492"/>
      <point x="268" y="493"/>
      <point x="259" y="494" type="curve"/>
      <point x="254" y="467" type="line"/>
      <point x="267" y="466"/>
      <point x="277" y="466"/>
      <point x="288" y="466" type="curve" smooth="yes"/>
      <point x="350" y="466"/>
      <point x="390" y="493"/>
      <point x="390" y="540" type="curve" smooth="yes"/>
      <point x="390" y="578"/>
      <point x="364" y="602"/>
      <point x="300" y="602" type="curve" smooth="yes"/>
    </contour>
    <contour>
      <point x="269" y="383" type="line"/>
      <point x="225" y="383" type="line"/>
      <point x="210" y="382" type="line" smooth="yes"/>
      <point x="193" y="381"/>
      <point x="196" y="357"/>
      <point x="196" y="353" type="curve"/>
      <point x="286" y="353" type="line" smooth="yes"/>
      <point x="302" y="353"/>
      <point x="301" y="377"/>
      <point x="301" y="381" type="curve"/>
    </contour>
    <contour>
      <point x="270" y="589" type="line"/>
      <point x="225" y="589" type="line"/>
      <point x="225" y="353" type="line"/>
      <point x="270" y="353" type="line"/>
    </contour>
    <contour>
      <point x="278" y="474" type="line"/>
      <point x="294" y="425"/>
      <point x="337" y="349"/>
      <point x="384" y="349" type="curve" smooth="yes"/>
      <point x="404" y="349"/>
      <point x="415" y="360"/>
      <point x="416" y="377" type="curve"/>
      <point x="387" y="377"/>
      <point x="350" y="412"/>
      <point x="319" y="477" type="curve"/>
    </contour>
  </outline>
</glyph>
<glyph name="macron" format="1">
  <advance width="600"/>
  <unicode hex="00AF"/>
  <outline>
    <contour>
      <point x="258" y="489" type="move" name="_top"/>
    </contour>
    <contour>
      <point x="126" y="635" type="line"/>
      <point x="126" y="578" type="line"/>
      <point x="389" y="578" type="line"/>
      <point x="389" y="635" type="line"/>
    </contour>
  </outline>
</glyph>
<glyph name="degree" format="1">
  <advance width="324"/>
  <unicode hex="00B0"/>
  <outline>
    <contour>
      <point x="52" y="579" type="curve" smooth="yes"/>
      <point x="52" y="516"/>
      <point x="98" y="473"/>
      <point x="163" y="473" type="curve" smooth="yes"/>
      <point x="226" y="473"/>
      <point x="272" y="516"/>
      <point x="272" y="579" type="curve" smooth="yes"/>
      <point x="272" y="643"/>
      <point x="227" y="685"/>
      <point x="163" y="685" type="curve" smooth="yes"/>
      <point x="100" y="685"/>
      <point x="52" y="643"/>
    </contour>
    <contour>
      <point x="104" y="580" type="curve" smooth="yes"/>
      <point x="104" y="615"/>
      <point x="127" y="640"/>
      <point x="163" y="640" type="curve" smooth="yes"/>
      <point x="197" y="640"/>
      <point x="220" y="615"/>
      <point x="220" y="579" type="curve" smooth="yes"/>
      <point x="220" y="544"/>
      <point x="198" y="518"/>
      <point x="163" y="518" type="curve" smooth="yes"/>
      <point x="128" y="518"/>
      <point x="104" y="544"/>
    </contour>
  </outline>
</glyph>
<glyph name="plusminus" format="1">
  <advance width="478"/>
  <unicode hex="00B1"/>
  <outline>
    <contour>
      <point x="50" y="314" type="line"/>
      <point x="50" y="258" type="line"/>
      <point x="428" y="258" type="line"/>
      <point x="428" y="314" type="line"/>
    </contour>
    <contour>
      <point x="268" y="475" type="line"/>
      <point x="210" y="475" type="line"/>
      <point x="210" y="139" type="line"/>
      <point x="268" y="139" type="line"/>
    </contour>
    <contour>
      <point x="50" y="108" type="line"/>
      <point x="50" y="52" type="line"/>
      <point x="428" y="52" type="line"/>
      <point x="428" y="108" type="line"/>
    </contour>
  </outline>
</glyph>
<glyph name="twosuperior" format="1">
  <advance width="321"/>
  <unicode hex="00B2"/>
  <outline>
    <contour>
      <point x="159" y="623" type="curve" smooth="yes"/>
      <point x="94" y="623"/>
      <point x="45" y="590"/>
      <point x="45" y="546" type="curve" smooth="yes"/>
      <point x="45" y="514"/>
      <point x="70" y="506"/>
      <point x="92" y="507" type="curve"/>
      <point x="92" y="551"/>
      <point x="110" y="585"/>
      <point x="155" y="585" type="curve" smooth="yes"/>
      <point x="192" y="585"/>
      <point x="212" y="561"/>
      <point x="212" y="529" type="curve" smooth="yes"/>
      <point x="212" y="447"/>
      <point x="101" y="362"/>
      <point x="36" y="308" type="curve"/>
      <point x="34" y="301"/>
      <point x="40" y="282"/>
      <point x="42" y="277" type="curve"/>
      <point x="287" y="277" type="line"/>
      <point x="287" y="371" type="line"/>
      <point x="276" y="375"/>
      <point x="255" y="371"/>
      <point x="252" y="351" type="curve" smooth="yes"/>
      <point x="248" y="318" type="line"/>
      <point x="77" y="318" type="line"/>
      <point x="99" y="311" type="line"/>
      <point x="139" y="340"/>
      <point x="274" y="433"/>
      <point x="274" y="530" type="curve" smooth="yes"/>
      <point x="274" y="585"/>
      <point x="232" y="623"/>
    </contour>
  </outline>
</glyph>
<glyph name="threesuperior" format="1">
  <advance width="302"/>
  <unicode hex="00B3"/>
  <outline>
    <contour>
      <point x="150" y="622" type="curve" smooth="yes"/>
      <point x="89" y="622"/>
      <point x="53" y="596"/>
      <point x="51" y="565" type="curve" smooth="yes"/>
      <point x="50" y="547"/>
      <point x="62" y="533"/>
      <point x="92" y="532" type="curve"/>
      <point x="93" y="559"/>
      <point x="108" y="586"/>
      <point x="146" y="586" type="curve" smooth="yes"/>
      <point x="176" y="586"/>
      <point x="194" y="570"/>
      <point x="194" y="543" type="curve" smooth="yes"/>
      <point x="194" y="487"/>
      <point x="125" y="472"/>
      <point x="95" y="472" type="curve"/>
      <point x="95" y="431" type="line"/>
      <point x="149" y="434"/>
      <point x="209" y="425"/>
      <point x="211" y="370" type="curve" smooth="yes"/>
      <point x="211" y="331"/>
      <point x="180" y="307"/>
      <point x="137" y="307" type="curve" smooth="yes"/>
      <point x="97" y="307"/>
      <point x="73" y="329"/>
      <point x="70" y="359" type="curve"/>
      <point x="44" y="357"/>
      <point x="34" y="341"/>
      <point x="34" y="325" type="curve" smooth="yes"/>
      <point x="34" y="294"/>
      <point x="73" y="269"/>
      <point x="134" y="269" type="curve" smooth="yes"/>
      <point x="221" y="269"/>
      <point x="274" y="317"/>
      <point x="274" y="374" type="curve" smooth="yes"/>
      <point x="274" y="435"/>
      <point x="213" y="473"/>
      <point x="122" y="460" type="curve"/>
      <point x="126" y="451" type="line"/>
      <point x="229" y="463"/>
      <point x="257" y="509"/>
      <point x="257" y="545" type="curve" smooth="yes"/>
      <point x="257" y="593"/>
      <point x="213" y="622"/>
    </contour>
  </outline>
</glyph>
<glyph name="acute" format="1">
  <advance width="600"/>
  <unicode hex="00B4"/>
  <outline>
    <contour>
      <point x="260" y="489" type="move" name="_top"/>
    </contour>
    <contour>
      <point x="408" y="641" type="line"/>
      <point x="397" y="662"/>
      <point x="370" y="687"/>
      <point x="345" y="690" type="curve"/>
      <point x="180" y="563" type="line"/>
      <point x="186" y="552"/>
      <point x="195" y="541"/>
      <point x="209" y="534" type="curve"/>
    </contour>
  </outline>
</glyph>
<glyph name="mu.math" format="1">
  <advance width="563"/>
  <unicode hex="00B5"/>
  <outline>
    <contour>
      <point x="166" y="489" type="line"/>
      <point x="97" y="489" type="line"/>
      <point x="97" y="188" type="line" smooth="yes"/>
      <point x="97" y="35"/>
      <point x="189" y="-15"/>
      <point x="269" y="-15" type="curve" smooth="yes"/>
      <point x="342" y="-15"/>
      <point x="388" y="18"/>
      <point x="421" y="52" type="curve"/>
      <point x="414" y="100" type="line"/>
      <point x="377" y="67"/>
      <point x="340" y="45"/>
      <point x="284" y="45" type="curve" smooth="yes"/>
      <point x="211" y="45"/>
      <point x="166" y="94"/>
      <point x="166" y="194" type="curve" smooth="yes"/>
    </contour>
    <contour>
      <point x="98" y="166" type="line"/>
      <point x="92" y="-195" type="line"/>
      <point x="107" y="-201"/>
      <point x="148" y="-201"/>
      <point x="164" y="-195" type="curve"/>
      <point x="157" y="52" type="line"/>
    </contour>
    <contour>
      <point x="479" y="489" type="line"/>
      <point x="410" y="489" type="line"/>
      <point x="410" y="77" type="line" smooth="yes"/>
      <point x="410" y="25"/>
      <point x="425" y="-16"/>
      <point x="484" y="-16" type="curve" smooth="yes"/>
      <point x="518" y="-16"/>
      <point x="545" y="-3"/>
      <point x="545" y="31" type="curve"/>
      <point x="479" y="39" type="line"/>
    </contour>
  </outline>
</glyph>
<glyph name="paragraph" format="1">
  <advance width="602"/>
  <unicode hex="00B6"/>
  <outline>
    <contour>
      <point x="273" y="679" type="line"/>
      <point x="122" y="679"/>
      <point x="49" y="594"/>
      <point x="49" y="489" type="curve" smooth="yes"/>
      <point x="49" y="337"/>
      <point x="176" y="295"/>
      <point x="261" y="295" type="curve"/>
      <point x="261" y="-90" type="line"/>
      <point x="335" y="-90" type="line"/>
      <point x="335" y="629" type="line"/>
      <point x="407" y="629" type="line"/>
      <point x="407" y="-90" type="line"/>
      <point x="480" y="-90" type="line"/>
      <point x="480" y="629" type="line"/>
      <point x="553" y="635" type="line"/>
      <point x="554" y="651"/>
      <point x="554" y="679"/>
      <point x="526" y="679" type="curve" smooth="yes"/>
    </contour>
  </outline>
</glyph>
<glyph name="periodcentered" format="1">
  <advance width="188"/>
  <unicode hex="00B7"/>
  <outline>
    <contour>
      <point x="94" y="203" type="curve" smooth="yes"/>
      <point x="125" y="203"/>
      <point x="148" y="226"/>
      <point x="148" y="257" type="curve" smooth="yes"/>
      <point x="148" y="288"/>
      <point x="125" y="312"/>
      <point x="94" y="312" type="curve" smooth="yes"/>
      <point x="63" y="312"/>
      <point x="40" y="288"/>
      <point x="40" y="257" type="curve" smooth="yes"/>
      <point x="40" y="226"/>
      <point x="63" y="203"/>
    </contour>
  </outline>
</glyph>
<glyph name="cedilla" format="1">
  <advance width="600"/>
  <unicode hex="00B8"/>
  <outline>
    <contour>
      <point x="292" y="0" type="move" name="_bottom"/>
    </contour>
    <contour>
      <point x="313" y="18" type="line"/>
      <point x="274" y="18" type="line"/>
      <point x="249" y="-79" type="line"/>
      <point x="310" y="-79"/>
      <point x="322" y="-94"/>
      <point x="322" y="-114" type="curve" smooth="yes"/>
      <point x="322" y="-138"/>
      <point x="304" y="-151"/>
      <point x="276" y="-151" type="curve" smooth="yes"/>
      <point x="254" y="-151"/>
      <point x="239" y="-143"/>
      <point x="226" y="-133" type="curve"/>
      <point x="220" y="-137"/>
      <point x="212" y="-149"/>
      <point x="214" y="-164" type="curve"/>
      <point x="228" y="-179"/>
      <point x="252" y="-192"/>
      <point x="287" y="-192" type="curve" smooth="yes"/>
      <point x="341" y="-192"/>
      <point x="380" y="-161"/>
      <point x="380" y="-112" type="curve" smooth="yes"/>
      <point x="380" y="-74"/>
      <point x="357" y="-42"/>
      <point x="299" y="-42" type="curve"/>
    </contour>
  </outline>
</glyph>
<glyph name="onesuperior" format="1">
  <advance width="273"/>
  <unicode hex="00B9"/>
  <outline>
    <contour>
      <point x="173" y="595" type="line"/>
      <point x="173" y="611"/>
      <point x="165" y="619"/>
      <point x="154" y="619" type="curve" smooth="yes"/>
      <point x="145" y="619"/>
      <point x="133" y="618"/>
      <point x="123" y="613" type="curve" smooth="yes"/>
      <point x="42" y="570" type="line"/>
      <point x="42" y="564"/>
      <point x="54" y="539"/>
      <point x="73" y="545" type="curve" smooth="yes"/>
      <point x="113" y="557" type="line"/>
      <point x="113" y="285" type="line"/>
      <point x="173" y="285" type="line"/>
    </contour>
    <contour>
      <point x="173" y="320" type="line"/>
      <point x="113" y="319" type="line"/>
      <point x="76" y="318" type="line" smooth="yes"/>
      <point x="50" y="317"/>
      <point x="54" y="291"/>
      <point x="53" y="285" type="curve"/>
      <point x="209" y="285" type="line" smooth="yes"/>
      <point x="234" y="285"/>
      <point x="231" y="312"/>
      <point x="231" y="317" type="curve"/>
    </contour>
  </outline>
</glyph>
<glyph name="ordmasculine" format="1">
  <advance width="365"/>
  <unicode hex="00BA"/>
  <outline>
    <contour>
      <point x="184" y="302" type="move" name="top"/>
    </contour>
    <contour>
      <point x="181" y="624" type="curve" smooth="yes"/>
      <point x="94" y="624"/>
      <point x="44" y="565"/>
      <point x="45" y="469" type="curve" smooth="yes"/>
      <point x="46" y="383"/>
      <point x="88" y="331"/>
      <point x="169" y="331" type="curve" smooth="yes"/>
      <point x="256" y="331"/>
      <point x="305" y="390"/>
      <point x="305" y="481" type="curve" smooth="yes"/>
      <point x="304" y="579"/>
      <point x="247" y="624"/>
    </contour>
    <contour>
      <point x="175" y="582" type="curve" smooth="yes"/>
      <point x="219" y="582"/>
      <point x="241" y="536"/>
      <point x="241" y="474" type="curve" smooth="yes"/>
      <point x="241" y="413"/>
      <point x="216" y="372"/>
      <point x="175" y="372" type="curve" smooth="yes"/>
      <point x="131" y="372"/>
      <point x="108" y="414"/>
      <point x="108" y="476" type="curve" smooth="yes"/>
      <point x="108" y="537"/>
      <point x="133" y="582"/>
    </contour>
  </outline>
</glyph>
<glyph name="guillemotright" format="1">
  <advance width="556"/>
  <unicode hex="00BB"/>
  <outline>
    <contour>
      <point x="32" y="437" type="line"/>
      <point x="62" y="467" type="line"/>
      <point x="306" y="265" type="line"/>
      <point x="311" y="246"/>
      <point x="311" y="239"/>
      <point x="306" y="221" type="curve"/>
      <point x="62" y="19" type="line"/>
      <point x="30" y="49" type="line"/>
      <point x="225" y="240" type="line"/>
      <point x="225" y="246" type="line"/>
    </contour>
    <contour>
      <point x="223" y="437" type="line"/>
      <point x="253" y="467" type="line"/>
      <point x="497" y="265" type="line"/>
      <point x="501" y="246"/>
      <point x="501" y="239"/>
      <point x="497" y="221" type="curve"/>
      <point x="253" y="19" type="line"/>
      <point x="221" y="49" type="line"/>
      <point x="415" y="240" type="line"/>
      <point x="415" y="246" type="line"/>
    </contour>
  </outline>
</glyph>
<glyph name="onequarter" format="1">
  <advance width="629"/>
  <unicode hex="00BC"/>
  <outline>
    <contour>
      <point x="533" y="622" type="line"/>
      <point x="469" y="622" type="line"/>
      <point x="115" y="0" type="line"/>
      <point x="178" y="0" type="line"/>
    </contour>
    <contour>
      <point x="159" y="596" type="line"/>
      <point x="159" y="614"/>
      <point x="151" y="621"/>
      <point x="139" y="621" type="curve" smooth="yes"/>
      <point x="131" y="621"/>
      <point x="119" y="620"/>
      <point x="109" y="615" type="curve" smooth="yes"/>
      <point x="28" y="571" type="line"/>
      <point x="27" y="564"/>
      <point x="40" y="539"/>
      <point x="59" y="544" type="curve" smooth="yes"/>
      <point x="99" y="557" type="line"/>
      <point x="99" y="276" type="line"/>
      <point x="159" y="276" type="line"/>
    </contour>
    <contour>
      <point x="159" y="313" type="line"/>
      <point x="99" y="312" type="line"/>
      <point x="62" y="310" type="line" smooth="yes"/>
      <point x="36" y="309"/>
      <point x="40" y="282"/>
      <point x="39" y="276" type="curve"/>
      <point x="194" y="276" type="line" smooth="yes"/>
      <point x="219" y="276"/>
      <point x="217" y="304"/>
      <point x="216" y="309" type="curve"/>
    </contour>
    <contour>
      <point x="548" y="341" type="line"/>
      <point x="533" y="344"/>
      <point x="514" y="343"/>
      <point x="498" y="339" type="curve"/>
      <point x="328" y="101" type="line"/>
      <point x="329" y="88"/>
      <point x="336" y="78"/>
      <point x="343" y="68" type="curve"/>
      <point x="600" y="68" type="line"/>
      <point x="600" y="106" type="line"/>
      <point x="348" y="106" type="line"/>
      <point x="369" y="95" type="line"/>
      <point x="532" y="323" type="line"/>
      <point x="489" y="303" type="line"/>
      <point x="489" y="-10" type="line"/>
      <point x="548" y="-4" type="line"/>
    </contour>
  </outline>
</glyph>
<glyph name="onehalf" format="1">
  <advance width="629"/>
  <unicode hex="00BD"/>
  <outline>
    <contour>
      <point x="519" y="622" type="line"/>
      <point x="456" y="622" type="line"/>
      <point x="101" y="0" type="line"/>
      <point x="165" y="0" type="line"/>
    </contour>
    <contour>
      <point x="150" y="313" type="line"/>
      <point x="90" y="312" type="line"/>
      <point x="53" y="310" type="line" smooth="yes"/>
      <point x="27" y="309"/>
      <point x="31" y="282"/>
      <point x="30" y="276" type="curve"/>
      <point x="185" y="276" type="line" smooth="yes"/>
      <point x="210" y="276"/>
      <point x="208" y="304"/>
      <point x="207" y="309" type="curve"/>
    </contour>
    <contour>
      <point x="130" y="621" type="curve" smooth="yes"/>
      <point x="122" y="621"/>
      <point x="109" y="620"/>
      <point x="99" y="615" type="curve" smooth="yes"/>
      <point x="18" y="571" type="line"/>
      <point x="18" y="563"/>
      <point x="30" y="538"/>
      <point x="49" y="544" type="curve" smooth="yes"/>
      <point x="90" y="557" type="line"/>
      <point x="90" y="276" type="line"/>
      <point x="150" y="276" type="line"/>
      <point x="150" y="596" type="line" smooth="yes"/>
      <point x="150" y="613"/>
      <point x="142" y="621"/>
    </contour>
    <contour>
      <point x="484" y="346" type="curve" smooth="yes"/>
      <point x="419" y="346"/>
      <point x="370" y="312"/>
      <point x="370" y="268" type="curve" smooth="yes"/>
      <point x="370" y="237"/>
      <point x="395" y="229"/>
      <point x="417" y="230" type="curve"/>
      <point x="417" y="274"/>
      <point x="435" y="308"/>
      <point x="480" y="308" type="curve" smooth="yes"/>
      <point x="518" y="308"/>
      <point x="537" y="284"/>
      <point x="537" y="251" type="curve" smooth="yes"/>
      <point x="537" y="170"/>
      <point x="426" y="85"/>
      <point x="361" y="31" type="curve"/>
      <point x="360" y="24"/>
      <point x="365" y="5"/>
      <point x="367" y="0" type="curve"/>
      <point x="612" y="0" type="line"/>
      <point x="612" y="94" type="line"/>
      <point x="601" y="98"/>
      <point x="580" y="94"/>
      <point x="577" y="74" type="curve" smooth="yes"/>
      <point x="573" y="41" type="line"/>
      <point x="402" y="41" type="line"/>
      <point x="424" y="34" type="line"/>
      <point x="464" y="63"/>
      <point x="599" y="156"/>
      <point x="599" y="253" type="curve" smooth="yes"/>
      <point x="599" y="308"/>
      <point x="557" y="346"/>
    </contour>
  </outline>
</glyph>
<glyph name="threequarters" format="1">
  <advance width="629"/>
  <unicode hex="00BE"/>
  <outline>
    <contour>
      <point x="552" y="622" type="line"/>
      <point x="489" y="622" type="line"/>
      <point x="134" y="0" type="line"/>
      <point x="197" y="0" type="line"/>
    </contour>
    <contour>
      <point x="140" y="622" type="curve" smooth="yes"/>
      <point x="79" y="622"/>
      <point x="43" y="596"/>
      <point x="41" y="565" type="curve" smooth="yes"/>
      <point x="40" y="547"/>
      <point x="52" y="533"/>
      <point x="82" y="532" type="curve"/>
      <point x="83" y="559"/>
      <point x="98" y="586"/>
      <point x="135" y="586" type="curve" smooth="yes"/>
      <point x="166" y="586"/>
      <point x="184" y="570"/>
      <point x="184" y="543" type="curve" smooth="yes"/>
      <point x="184" y="487"/>
      <point x="115" y="472"/>
      <point x="84" y="472" type="curve"/>
      <point x="85" y="431" type="line"/>
      <point x="138" y="434"/>
      <point x="199" y="425"/>
      <point x="200" y="370" type="curve" smooth="yes"/>
      <point x="201" y="331"/>
      <point x="170" y="307"/>
      <point x="127" y="307" type="curve" smooth="yes"/>
      <point x="87" y="307"/>
      <point x="63" y="329"/>
      <point x="60" y="359" type="curve"/>
      <point x="34" y="357"/>
      <point x="24" y="341"/>
      <point x="24" y="325" type="curve" smooth="yes"/>
      <point x="24" y="294"/>
      <point x="63" y="269"/>
      <point x="124" y="269" type="curve" smooth="yes"/>
      <point x="210" y="269"/>
      <point x="264" y="317"/>
      <point x="264" y="374" type="curve" smooth="yes"/>
      <point x="264" y="435"/>
      <point x="203" y="473"/>
      <point x="112" y="460" type="curve"/>
      <point x="116" y="451" type="line"/>
      <point x="219" y="463"/>
      <point x="247" y="509"/>
      <point x="247" y="545" type="curve" smooth="yes"/>
      <point x="247" y="593"/>
      <point x="203" y="622"/>
    </contour>
    <contour>
      <point x="557" y="341" type="line"/>
      <point x="542" y="344"/>
      <point x="523" y="343"/>
      <point x="507" y="339" type="curve"/>
      <point x="337" y="101" type="line"/>
      <point x="339" y="88"/>
      <point x="345" y="78"/>
      <point x="352" y="68" type="curve"/>
      <point x="609" y="68" type="line"/>
      <point x="609" y="106" type="line"/>
      <point x="358" y="106" type="line"/>
      <point x="378" y="95" type="line"/>
      <point x="541" y="323" type="line"/>
      <point x="498" y="303" type="line"/>
      <point x="498" y="-10" type="line"/>
      <point x="558" y="-4" type="line"/>
    </contour>
  </outline>
</glyph>
<glyph name="Aacute" format="1">
  <advance width="610"/>
  <unicode hex="00C1"/>
  <outline>
    <contour>
      <point x="138" y="50" type="line"/>
      <point x="82" y="48" type="line"/>
      <point x="42" y="46" type="line" smooth="yes"/>
      <point x="6" y="43"/>
      <point x="12" y="10"/>
      <point x="11" y="0" type="curve"/>
      <point x="186" y="0" type="line" smooth="yes"/>
      <point x="218" y="0"/>
      <point x="214" y="34"/>
      <point x="213" y="44" type="curve"/>
    </contour>
    <contour>
      <point x="533" y="50" type="line"/>
      <point x="456" y="48" type="line"/>
      <point x="410" y="46" type="line" smooth="yes"/>
      <point x="374" y="43"/>
      <point x="380" y="10"/>
      <point x="379" y="0" type="curve"/>
      <point x="571" y="0" type="line" smooth="yes"/>
      <point x="603" y="0"/>
      <point x="599" y="34"/>
      <point x="598" y="44" type="curve"/>
    </contour>
    <contour>
      <point x="168" y="281" type="line"/>
      <point x="168" y="231" type="line"/>
      <point x="425" y="231" type="line"/>
      <point x="425" y="281" type="line"/>
    </contour>
    <contour>
      <point x="469" y="3" type="line"/>
      <point x="545" y="10" type="line"/>
      <point x="340" y="678" type="line"/>
      <point x="317" y="681"/>
      <point x="298" y="681"/>
      <point x="275" y="678" type="curve"/>
      <point x="72" y="17" type="line"/>
      <point x="128" y="16" type="line"/>
      <point x="312" y="643" type="line"/>
      <point x="283" y="644" type="line"/>
    </contour>
    <contour>
      <point x="455" y="836" type="line"/>
      <point x="444" y="858"/>
      <point x="417" y="883"/>
      <point x="392" y="886" type="curve"/>
      <point x="227" y="759" type="line"/>
      <point x="233" y="748"/>
      <point x="242" y="737"/>
      <point x="257" y="730" type="curve"/>
    </contour>
  </outline>
</glyph>
<glyph name="Acircumflex" format="1">
  <advance width="610"/>
  <unicode hex="00C2"/>
  <outline>
    <contour>
      <point x="138" y="50" type="line"/>
      <point x="82" y="48" type="line"/>
      <point x="42" y="46" type="line" smooth="yes"/>
      <point x="6" y="43"/>
      <point x="12" y="10"/>
      <point x="11" y="0" type="curve"/>
      <point x="186" y="0" type="line" smooth="yes"/>
      <point x="218" y="0"/>
      <point x="214" y="34"/>
      <point x="213" y="44" type="curve"/>
    </contour>
    <contour>
      <point x="533" y="50" type="line"/>
      <point x="456" y="48" type="line"/>
      <point x="410" y="46" type="line" smooth="yes"/>
      <point x="374" y="43"/>
      <point x="380" y="10"/>
      <point x="379" y="0" type="curve"/>
      <point x="571" y="0" type="line" smooth="yes"/>
      <point x="603" y="0"/>
      <point x="599" y="34"/>
      <point x="598" y="44" type="curve"/>
    </contour>
    <contour>
      <point x="168" y="281" type="line"/>
      <point x="168" y="231" type="line"/>
      <point x="425" y="231" type="line"/>
      <point x="425" y="281" type="line"/>
    </contour>
    <contour>
      <point x="469" y="3" type="line"/>
      <point x="545" y="10" type="line"/>
      <point x="340" y="678" type="line"/>
      <point x="317" y="681"/>
      <point x="298" y="681"/>
      <point x="275" y="678" type="curve"/>
      <point x="72" y="17" type="line"/>
      <point x="128" y="16" type="line"/>
      <point x="312" y="643" type="line"/>
      <point x="283" y="644" type="line"/>
    </contour>
    <contour>
      <point x="338" y="869" type="line"/>
      <point x="320" y="874"/>
      <point x="298" y="874"/>
      <point x="276" y="869" type="curve"/>
      <point x="144" y="748" type="line"/>
      <point x="151" y="736"/>
      <point x="159" y="727"/>
      <point x="172" y="720" type="curve"/>
      <point x="335" y="826" type="line"/>
      <point x="279" y="826" type="line"/>
      <point x="441" y="720" type="line"/>
      <point x="454" y="726"/>
      <point x="463" y="738"/>
      <point x="469" y="748" type="curve"/>
    </contour>
  </outline>
</glyph>
<glyph name="Atilde" format="1">
  <advance width="610"/>
  <unicode hex="00C3"/>
  <outline>
    <contour>
      <point x="138" y="50" type="line"/>
      <point x="82" y="48" type="line"/>
      <point x="42" y="46" type="line" smooth="yes"/>
      <point x="6" y="43"/>
      <point x="12" y="10"/>
      <point x="11" y="0" type="curve"/>
      <point x="186" y="0" type="line" smooth="yes"/>
      <point x="218" y="0"/>
      <point x="214" y="34"/>
      <point x="213" y="44" type="curve"/>
    </contour>
    <contour>
      <point x="533" y="50" type="line"/>
      <point x="456" y="48" type="line"/>
      <point x="410" y="46" type="line" smooth="yes"/>
      <point x="374" y="43"/>
      <point x="380" y="10"/>
      <point x="379" y="0" type="curve"/>
      <point x="571" y="0" type="line" smooth="yes"/>
      <point x="603" y="0"/>
      <point x="599" y="34"/>
      <point x="598" y="44" type="curve"/>
    </contour>
    <contour>
      <point x="168" y="281" type="line"/>
      <point x="168" y="231" type="line"/>
      <point x="425" y="231" type="line"/>
      <point x="425" y="281" type="line"/>
    </contour>
    <contour>
      <point x="469" y="3" type="line"/>
      <point x="545" y="10" type="line"/>
      <point x="340" y="678" type="line"/>
      <point x="317" y="681"/>
      <point x="298" y="681"/>
      <point x="275" y="678" type="curve"/>
      <point x="72" y="17" type="line"/>
      <point x="128" y="16" type="line"/>
      <point x="312" y="643" type="line"/>
      <point x="283" y="644" type="line"/>
    </contour>
    <contour>
      <point x="172" y="756" type="line"/>
      <point x="180" y="779"/>
      <point x="199" y="803"/>
      <point x="226" y="803" type="curve" smooth="yes"/>
      <point x="276" y="803"/>
      <point x="303" y="753"/>
      <point x="367" y="753" type="curve" smooth="yes"/>
      <point x="430" y="753"/>
      <point x="463" y="798"/>
      <point x="473" y="856" type="curve"/>
      <point x="443" y="865" type="line"/>
      <point x="436" y="836"/>
      <point x="413" y="813"/>
      <point x="380" y="813" type="curve" smooth="yes"/>
      <point x="327" y="813"/>
      <point x="303" y="866"/>
      <point x="244" y="866" type="curve" smooth="yes"/>
      <point x="198" y="866"/>
      <point x="155" y="832"/>
      <point x="141" y="767" type="curve"/>
    </contour>
  </outline>
</glyph>
<glyph name="Adieresis" format="1">
  <advance width="610"/>
  <unicode hex="00C4"/>
  <outline>
    <contour>
      <point x="138" y="50" type="line"/>
      <point x="82" y="48" type="line"/>
      <point x="42" y="46" type="line" smooth="yes"/>
      <point x="6" y="43"/>
      <point x="12" y="10"/>
      <point x="11" y="0" type="curve"/>
      <point x="186" y="0" type="line" smooth="yes"/>
      <point x="218" y="0"/>
      <point x="214" y="34"/>
      <point x="213" y="44" type="curve"/>
    </contour>
    <contour>
      <point x="533" y="50" type="line"/>
      <point x="456" y="48" type="line"/>
      <point x="410" y="46" type="line" smooth="yes"/>
      <point x="374" y="43"/>
      <point x="380" y="10"/>
      <point x="379" y="0" type="curve"/>
      <point x="571" y="0" type="line" smooth="yes"/>
      <point x="603" y="0"/>
      <point x="599" y="34"/>
      <point x="598" y="44" type="curve"/>
    </contour>
    <contour>
      <point x="168" y="281" type="line"/>
      <point x="168" y="231" type="line"/>
      <point x="425" y="231" type="line"/>
      <point x="425" y="281" type="line"/>
    </contour>
    <contour>
      <point x="469" y="3" type="line"/>
      <point x="545" y="10" type="line"/>
      <point x="340" y="678" type="line"/>
      <point x="317" y="681"/>
      <point x="298" y="681"/>
      <point x="275" y="678" type="curve"/>
      <point x="72" y="17" type="line"/>
      <point x="128" y="16" type="line"/>
      <point x="312" y="643" type="line"/>
      <point x="283" y="644" type="line"/>
    </contour>
    <contour>
      <point x="224" y="751" type="curve" smooth="yes"/>
      <point x="253" y="751"/>
      <point x="275" y="774"/>
      <point x="275" y="803" type="curve" smooth="yes"/>
      <point x="275" y="830"/>
      <point x="253" y="855"/>
      <point x="224" y="855" type="curve" smooth="yes"/>
      <point x="195" y="855"/>
      <point x="171" y="830"/>
      <point x="171" y="803" type="curve" smooth="yes"/>
      <point x="171" y="774"/>
      <point x="195" y="751"/>
    </contour>
    <contour>
      <point x="387" y="751" type="curve" smooth="yes"/>
      <point x="418" y="751"/>
      <point x="440" y="774"/>
      <point x="440" y="803" type="curve" smooth="yes"/>
      <point x="440" y="830"/>
      <point x="418" y="855"/>
      <point x="387" y="855" type="curve" smooth="yes"/>
      <point x="360" y="855"/>
      <point x="336" y="830"/>
      <point x="336" y="803" type="curve" smooth="yes"/>
      <point x="336" y="774"/>
      <point x="360" y="751"/>
    </contour>
  </outline>
</glyph>
<glyph name="Aring" format="1">
  <advance width="610"/>
  <unicode hex="00C5"/>
  <outline>
    <contour>
      <point x="138" y="50" type="line"/>
      <point x="82" y="48" type="line"/>
      <point x="42" y="46" type="line" smooth="yes"/>
      <point x="6" y="43"/>
      <point x="12" y="10"/>
      <point x="11" y="0" type="curve"/>
      <point x="186" y="0" type="line" smooth="yes"/>
      <point x="218" y="0"/>
      <point x="214" y="34"/>
      <point x="213" y="44" type="curve"/>
    </contour>
    <contour>
      <point x="533" y="50" type="line"/>
      <point x="456" y="48" type="line"/>
      <point x="410" y="46" type="line" smooth="yes"/>
      <point x="374" y="43"/>
      <point x="380" y="10"/>
      <point x="379" y="0" type="curve"/>
      <point x="571" y="0" type="line" smooth="yes"/>
      <point x="603" y="0"/>
      <point x="599" y="34"/>
      <point x="598" y="44" type="curve"/>
    </contour>
    <contour>
      <point x="168" y="281" type="line"/>
      <point x="168" y="231" type="line"/>
      <point x="425" y="231" type="line"/>
      <point x="425" y="281" type="line"/>
    </contour>
    <contour>
      <point x="469" y="3" type="line"/>
      <point x="545" y="10" type="line"/>
      <point x="340" y="678" type="line"/>
      <point x="317" y="681"/>
      <point x="298" y="681"/>
      <point x="275" y="678" type="curve"/>
      <point x="72" y="17" type="line"/>
      <point x="128" y="16" type="line"/>
      <point x="312" y="643" type="line"/>
      <point x="283" y="644" type="line"/>
    </contour>
    <contour>
      <point x="311" y="905" type="curve" smooth="yes"/>
      <point x="255" y="905"/>
      <point x="218" y="870"/>
      <point x="218" y="816" type="curve" smooth="yes"/>
      <point x="218" y="765"/>
      <point x="253" y="731"/>
      <point x="307" y="731" type="curve" smooth="yes"/>
      <point x="362" y="731"/>
      <point x="399" y="766"/>
      <point x="400" y="820" type="curve" smooth="yes"/>
      <point x="400" y="871"/>
      <point x="366" y="905"/>
    </contour>
    <contour>
      <point x="309" y="863" type="curve" smooth="yes"/>
      <point x="337" y="863"/>
      <point x="354" y="846"/>
      <point x="354" y="818" type="curve" smooth="yes"/>
      <point x="354" y="790"/>
      <point x="337" y="773"/>
      <point x="309" y="773" type="curve" smooth="yes"/>
      <point x="281" y="773"/>
      <point x="264" y="790"/>
      <point x="264" y="818" type="curve" smooth="yes"/>
      <point x="264" y="846"/>
      <point x="281" y="863"/>
    </contour>
  </outline>
</glyph>
<glyph name="AE" format="1">
  <advance width="865"/>
  <unicode hex="00C6"/>
  <outline>
    <contour>
      <point x="780" y="702" type="move" name="top"/>
    </contour>
    <contour>
      <point x="993" y="3" type="move" name="ogonek"/>
    </contour>
    <contour>
      <point x="776" y="0" type="move" name="bottom"/>
    </contour>
    <contour>
      <point x="802" y="679" type="line"/>
      <point x="389" y="678" type="line"/>
      <point x="66" y="17" type="line"/>
      <point x="122" y="16" type="line"/>
      <point x="416" y="628" type="line"/>
      <point x="424" y="628" type="line"/>
      <point x="424" y="48" type="line"/>
      <point x="378" y="46" type="line" smooth="yes"/>
      <point x="342" y="43"/>
      <point x="348" y="10"/>
      <point x="347" y="0" type="curve"/>
      <point x="822" y="0" type="line"/>
      <point x="822" y="136" type="line" smooth="yes"/>
      <point x="822" y="169"/>
      <point x="787" y="164"/>
      <point x="777" y="163" type="curve"/>
      <point x="768" y="57" type="line"/>
      <point x="496" y="50" type="line"/>
      <point x="496" y="313" type="line"/>
      <point x="689" y="303" type="line"/>
      <point x="693" y="327"/>
      <point x="693" y="354"/>
      <point x="688" y="375" type="curve"/>
      <point x="496" y="362" type="line"/>
      <point x="496" y="629" type="line"/>
      <point x="748" y="624" type="line"/>
      <point x="757" y="511" type="line"/>
      <point x="767" y="510"/>
      <point x="802" y="506"/>
      <point x="802" y="537" type="curve" smooth="yes"/>
    </contour>
    <contour>
      <point x="138" y="50" type="line"/>
      <point x="82" y="48" type="line"/>
      <point x="42" y="46" type="line" smooth="yes"/>
      <point x="6" y="43"/>
      <point x="12" y="10"/>
      <point x="11" y="0" type="curve"/>
      <point x="186" y="0" type="line" smooth="yes"/>
      <point x="218" y="0"/>
      <point x="214" y="34"/>
      <point x="213" y="44" type="curve"/>
    </contour>
    <contour>
      <point x="457" y="361" type="line"/>
      <point x="244" y="361" type="line"/>
      <point x="244" y="312" type="line"/>
      <point x="457" y="312" type="line"/>
    </contour>
  </outline>
</glyph>
<glyph name="Ccedilla" format="1">
  <advance width="559"/>
  <unicode hex="00C7"/>
  <outline>
    <contour>
      <point x="335" y="692" type="curve" smooth="yes"/>
      <point x="143" y="692"/>
      <point x="34" y="531"/>
      <point x="39" y="315" type="curve" smooth="yes"/>
      <point x="43" y="116"/>
      <point x="138" y="-15"/>
      <point x="322" y="-15" type="curve" smooth="yes"/>
      <point x="450" y="-15"/>
      <point x="532" y="50"/>
      <point x="532" y="85" type="curve" smooth="yes"/>
      <point x="532" y="93"/>
      <point x="527" y="103"/>
      <point x="519" y="107" type="curve"/>
      <point x="488" y="82"/>
      <point x="431" y="46"/>
      <point x="339" y="46" type="curve" smooth="yes"/>
      <point x="174" y="46"/>
      <point x="116" y="168"/>
      <point x="116" y="335" type="curve" smooth="yes"/>
      <point x="116" y="511"/>
      <point x="186" y="638"/>
      <point x="327" y="638" type="curve" smooth="yes"/>
      <point x="410" y="638"/>
      <point x="462" y="591"/>
      <point x="462" y="506" type="curve"/>
      <point x="505" y="507"/>
      <point x="525" y="528"/>
      <point x="525" y="564" type="curve" smooth="yes"/>
      <point x="525" y="637"/>
      <point x="443" y="692"/>
    </contour>
    <contour>
      <point x="352" y="18" type="line"/>
      <point x="313" y="18" type="line"/>
      <point x="287" y="-79" type="line"/>
      <point x="348" y="-79"/>
      <point x="360" y="-94"/>
      <point x="360" y="-114" type="curve" smooth="yes"/>
      <point x="360" y="-138"/>
      <point x="343" y="-151"/>
      <point x="314" y="-151" type="curve" smooth="yes"/>
      <point x="292" y="-151"/>
      <point x="277" y="-143"/>
      <point x="264" y="-133" type="curve"/>
      <point x="258" y="-137"/>
      <point x="250" y="-149"/>
      <point x="252" y="-164" type="curve"/>
      <point x="266" y="-179"/>
      <point x="290" y="-192"/>
      <point x="325" y="-192" type="curve" smooth="yes"/>
      <point x="379" y="-192"/>
      <point x="418" y="-161"/>
      <point x="418" y="-112" type="curve" smooth="yes"/>
      <point x="418" y="-74"/>
      <point x="395" y="-42"/>
      <point x="337" y="-42" type="curve"/>
    </contour>
  </outline>
</glyph>
<glyph name="Ecircumflex" format="1">
  <advance width="552"/>
  <unicode hex="00CA"/>
  <outline>
    <contour>
      <point x="191" y="627" type="line"/>
      <point x="442" y="622" type="line"/>
      <point x="452" y="509" type="line"/>
      <point x="462" y="508"/>
      <point x="496" y="504"/>
      <point x="496" y="536" type="curve" smooth="yes"/>
      <point x="496" y="677" type="line"/>
      <point x="74" y="677" type="line" smooth="yes"/>
      <point x="41" y="677"/>
      <point x="45" y="643"/>
      <point x="46" y="633" type="curve"/>
      <point x="119" y="627" type="line"/>
      <point x="119" y="48" type="line"/>
      <point x="73" y="46" type="line" smooth="yes"/>
      <point x="37" y="43"/>
      <point x="42" y="10"/>
      <point x="42" y="0" type="curve"/>
      <point x="510" y="0" type="line"/>
      <point x="510" y="136" type="line" smooth="yes"/>
      <point x="510" y="169"/>
      <point x="476" y="164"/>
      <point x="466" y="163" type="curve"/>
      <point x="456" y="57" type="line"/>
      <point x="191" y="50" type="line"/>
      <point x="191" y="312" type="line"/>
      <point x="383" y="301" type="line"/>
      <point x="388" y="325"/>
      <point x="387" y="353"/>
      <point x="383" y="373" type="curve"/>
      <point x="191" y="360" type="line"/>
    </contour>
    <contour>
      <point x="337" y="869" type="line"/>
      <point x="318" y="874"/>
      <point x="296" y="874"/>
      <point x="275" y="869" type="curve"/>
      <point x="143" y="748" type="line"/>
      <point x="150" y="736"/>
      <point x="158" y="727"/>
      <point x="171" y="720" type="curve"/>
      <point x="333" y="826" type="line"/>
      <point x="277" y="826" type="line"/>
      <point x="439" y="720" type="line"/>
      <point x="452" y="726"/>
      <point x="461" y="738"/>
      <point x="468" y="748" type="curve"/>
    </contour>
  </outline>
</glyph>
<glyph name="Edieresis" format="1">
  <advance width="552"/>
  <unicode hex="00CB"/>
  <outline>
    <contour>
      <point x="191" y="627" type="line"/>
      <point x="442" y="622" type="line"/>
      <point x="452" y="509" type="line"/>
      <point x="462" y="508"/>
      <point x="496" y="504"/>
      <point x="496" y="536" type="curve" smooth="yes"/>
      <point x="496" y="677" type="line"/>
      <point x="74" y="677" type="line" smooth="yes"/>
      <point x="41" y="677"/>
      <point x="45" y="643"/>
      <point x="46" y="633" type="curve"/>
      <point x="119" y="627" type="line"/>
      <point x="119" y="48" type="line"/>
      <point x="73" y="46" type="line" smooth="yes"/>
      <point x="37" y="43"/>
      <point x="42" y="10"/>
      <point x="42" y="0" type="curve"/>
      <point x="510" y="0" type="line"/>
      <point x="510" y="136" type="line" smooth="yes"/>
      <point x="510" y="169"/>
      <point x="476" y="164"/>
      <point x="466" y="163" type="curve"/>
      <point x="456" y="57" type="line"/>
      <point x="191" y="50" type="line"/>
      <point x="191" y="312" type="line"/>
      <point x="383" y="301" type="line"/>
      <point x="388" y="325"/>
      <point x="387" y="353"/>
      <point x="383" y="373" type="curve"/>
      <point x="191" y="360" type="line"/>
    </contour>
    <contour>
      <point x="223" y="751" type="curve" smooth="yes"/>
      <point x="251" y="751"/>
      <point x="274" y="774"/>
      <point x="274" y="803" type="curve" smooth="yes"/>
      <point x="274" y="830"/>
      <point x="251" y="855"/>
      <point x="223" y="855" type="curve" smooth="yes"/>
      <point x="193" y="855"/>
      <point x="170" y="830"/>
      <point x="170" y="803" type="curve" smooth="yes"/>
      <point x="170" y="774"/>
      <point x="193" y="751"/>
    </contour>
    <contour>
      <point x="386" y="751" type="curve" smooth="yes"/>
      <point x="416" y="751"/>
      <point x="439" y="774"/>
      <point x="439" y="803" type="curve" smooth="yes"/>
      <point x="439" y="830"/>
      <point x="416" y="855"/>
      <point x="386" y="855" type="curve" smooth="yes"/>
      <point x="358" y="855"/>
      <point x="335" y="830"/>
      <point x="335" y="803" type="curve" smooth="yes"/>
      <point x="335" y="774"/>
      <point x="358" y="751"/>
    </contour>
  </outline>
</glyph>
<glyph name="Icircumflex" format="1">
  <advance width="310"/>
  <unicode hex="00CE"/>
  <outline>
    <contour>
      <point x="191" y="647" type="line"/>
      <point x="119" y="648" type="line"/>
      <point x="119" y="0" type="line"/>
      <point x="191" y="0" type="line"/>
    </contour>
    <contour>
      <point x="191" y="50" type="line"/>
      <point x="119" y="48" type="line"/>
      <point x="73" y="46" type="line" smooth="yes"/>
      <point x="37" y="43"/>
      <point x="43" y="10"/>
      <point x="42" y="0" type="curve"/>
      <point x="237" y="0" type="line" smooth="yes"/>
      <point x="269" y="0"/>
      <point x="265" y="34"/>
      <point x="264" y="44" type="curve"/>
    </contour>
    <contour>
      <point x="119" y="627" type="line"/>
      <point x="191" y="629" type="line"/>
      <point x="237" y="631" type="line" smooth="yes"/>
      <point x="273" y="634"/>
      <point x="267" y="667"/>
      <point x="268" y="677" type="curve"/>
      <point x="73" y="677" type="line" smooth="yes"/>
      <point x="41" y="677"/>
      <point x="45" y="643"/>
      <point x="46" y="633" type="curve"/>
    </contour>
    <contour>
      <point x="190" y="869" type="line"/>
      <point x="171" y="874"/>
      <point x="150" y="874"/>
      <point x="128" y="869" type="curve"/>
      <point x="-4" y="748" type="line"/>
      <point x="3" y="736"/>
      <point x="11" y="727"/>
      <point x="24" y="720" type="curve"/>
      <point x="187" y="826" type="line"/>
      <point x="130" y="826" type="line"/>
      <point x="292" y="720" type="line"/>
      <point x="305" y="726"/>
      <point x="314" y="738"/>
      <point x="321" y="748" type="curve"/>
    </contour>
  </outline>
</glyph>
<glyph name="Idieresis" format="1">
  <advance width="310"/>
  <unicode hex="00CF"/>
  <outline>
    <contour>
      <point x="191" y="647" type="line"/>
      <point x="119" y="648" type="line"/>
      <point x="119" y="0" type="line"/>
      <point x="191" y="0" type="line"/>
    </contour>
    <contour>
      <point x="191" y="50" type="line"/>
      <point x="119" y="48" type="line"/>
      <point x="73" y="46" type="line" smooth="yes"/>
      <point x="37" y="43"/>
      <point x="43" y="10"/>
      <point x="42" y="0" type="curve"/>
      <point x="237" y="0" type="line" smooth="yes"/>
      <point x="269" y="0"/>
      <point x="265" y="34"/>
      <point x="264" y="44" type="curve"/>
    </contour>
    <contour>
      <point x="119" y="627" type="line"/>
      <point x="191" y="629" type="line"/>
      <point x="237" y="631" type="line" smooth="yes"/>
      <point x="273" y="634"/>
      <point x="267" y="667"/>
      <point x="268" y="677" type="curve"/>
      <point x="73" y="677" type="line" smooth="yes"/>
      <point x="41" y="677"/>
      <point x="45" y="643"/>
      <point x="46" y="633" type="curve"/>
    </contour>
    <contour>
      <point x="76" y="751" type="curve" smooth="yes"/>
      <point x="105" y="751"/>
      <point x="127" y="774"/>
      <point x="127" y="803" type="curve" smooth="yes"/>
      <point x="127" y="830"/>
      <point x="105" y="855"/>
      <point x="76" y="855" type="curve" smooth="yes"/>
      <point x="46" y="855"/>
      <point x="23" y="830"/>
      <point x="23" y="803" type="curve" smooth="yes"/>
      <point x="23" y="774"/>
      <point x="46" y="751"/>
    </contour>
    <contour>
      <point x="239" y="751" type="curve" smooth="yes"/>
      <point x="269" y="751"/>
      <point x="292" y="774"/>
      <point x="292" y="803" type="curve" smooth="yes"/>
      <point x="292" y="830"/>
      <point x="269" y="855"/>
      <point x="239" y="855" type="curve" smooth="yes"/>
      <point x="211" y="855"/>
      <point x="188" y="830"/>
      <point x="188" y="803" type="curve" smooth="yes"/>
      <point x="188" y="774"/>
      <point x="211" y="751"/>
    </contour>
  </outline>
</glyph>
<glyph name="Ntilde" format="1">
  <advance width="685"/>
  <unicode hex="00D1"/>
  <outline>
    <contour>
      <point x="483" y="677" type="line"/>
      <point x="451" y="677"/>
      <point x="455" y="643"/>
      <point x="456" y="633" type="curve"/>
      <point x="529" y="627" type="line"/>
      <point x="529" y="107" type="line"/>
      <point x="545" y="112" type="line"/>
      <point x="179" y="677" type="line"/>
      <point x="73" y="677" type="line" smooth="yes"/>
      <point x="41" y="677"/>
      <point x="45" y="643"/>
      <point x="46" y="633" type="curve"/>
      <point x="119" y="627" type="line"/>
      <point x="119" y="48" type="line"/>
      <point x="73" y="46" type="line" smooth="yes"/>
      <point x="37" y="43"/>
      <point x="43" y="10"/>
      <point x="42" y="0" type="curve"/>
      <point x="220" y="0" type="line" smooth="yes"/>
      <point x="252" y="0"/>
      <point x="248" y="34"/>
      <point x="247" y="44" type="curve"/>
      <point x="174" y="50" type="line"/>
      <point x="174" y="578" type="line"/>
      <point x="159" y="573" type="line"/>
      <point x="531" y="0" type="line"/>
      <point x="551" y="0"/>
      <point x="565" y="3"/>
      <point x="583" y="11" type="curve"/>
      <point x="583" y="629" type="line"/>
      <point x="630" y="631" type="line" smooth="yes"/>
      <point x="666" y="634"/>
      <point x="660" y="667"/>
      <point x="661" y="677" type="curve"/>
    </contour>
    <contour>
      <point x="204" y="756" type="line"/>
      <point x="212" y="779"/>
      <point x="232" y="803"/>
      <point x="259" y="803" type="curve" smooth="yes"/>
      <point x="309" y="803"/>
      <point x="336" y="753"/>
      <point x="400" y="753" type="curve" smooth="yes"/>
      <point x="462" y="753"/>
      <point x="496" y="798"/>
      <point x="506" y="856" type="curve"/>
      <point x="475" y="865" type="line"/>
      <point x="468" y="836"/>
      <point x="446" y="813"/>
      <point x="413" y="813" type="curve" smooth="yes"/>
      <point x="359" y="813"/>
      <point x="336" y="866"/>
      <point x="276" y="866" type="curve" smooth="yes"/>
      <point x="231" y="866"/>
      <point x="187" y="832"/>
      <point x="174" y="767" type="curve"/>
    </contour>
  </outline>
</glyph>
<glyph name="Oacute" format="1">
  <advance width="642"/>
  <unicode hex="00D3"/>
  <outline>
    <contour>
      <point x="333" y="692" type="curve" smooth="yes"/>
      <point x="142" y="692"/>
      <point x="35" y="538"/>
      <point x="39" y="315" type="curve" smooth="yes"/>
      <point x="43" y="111"/>
      <point x="141" y="-15"/>
      <point x="304" y="-15" type="curve" smooth="yes"/>
      <point x="504" y="-15"/>
      <point x="605" y="138"/>
      <point x="603" y="356" type="curve" smooth="yes"/>
      <point x="599" y="627"/>
      <point x="449" y="692"/>
    </contour>
    <contour>
      <point x="321" y="639" type="curve" smooth="yes"/>
      <point x="469" y="640"/>
      <point x="530" y="510"/>
      <point x="530" y="336" type="curve" smooth="yes"/>
      <point x="530" y="162"/>
      <point x="464" y="39"/>
      <point x="319" y="38" type="curve" smooth="yes"/>
      <point x="172" y="38"/>
      <point x="113" y="167"/>
      <point x="113" y="336" type="curve" smooth="yes"/>
      <point x="113" y="516"/>
      <point x="178" y="638"/>
    </contour>
    <contour>
      <point x="483" y="836" type="line"/>
      <point x="472" y="858"/>
      <point x="445" y="883"/>
      <point x="420" y="886" type="curve"/>
      <point x="255" y="759" type="line"/>
      <point x="261" y="748"/>
      <point x="270" y="737"/>
      <point x="284" y="730" type="curve"/>
    </contour>
  </outline>
</glyph>
<glyph name="Ocircumflex" format="1">
  <advance width="642"/>
  <unicode hex="00D4"/>
  <outline>
    <contour>
      <point x="333" y="692" type="curve" smooth="yes"/>
      <point x="142" y="692"/>
      <point x="35" y="538"/>
      <point x="39" y="315" type="curve" smooth="yes"/>
      <point x="43" y="111"/>
      <point x="141" y="-15"/>
      <point x="304" y="-15" type="curve" smooth="yes"/>
      <point x="504" y="-15"/>
      <point x="605" y="138"/>
      <point x="603" y="356" type="curve" smooth="yes"/>
      <point x="599" y="627"/>
      <point x="449" y="692"/>
    </contour>
    <contour>
      <point x="321" y="639" type="curve" smooth="yes"/>
      <point x="469" y="640"/>
      <point x="530" y="510"/>
      <point x="530" y="336" type="curve" smooth="yes"/>
      <point x="530" y="162"/>
      <point x="464" y="39"/>
      <point x="319" y="38" type="curve" smooth="yes"/>
      <point x="172" y="38"/>
      <point x="113" y="167"/>
      <point x="113" y="336" type="curve" smooth="yes"/>
      <point x="113" y="516"/>
      <point x="178" y="638"/>
    </contour>
    <contour>
      <point x="366" y="869" type="line"/>
      <point x="347" y="874"/>
      <point x="326" y="874"/>
      <point x="304" y="869" type="curve"/>
      <point x="172" y="748" type="line"/>
      <point x="179" y="736"/>
      <point x="187" y="727"/>
      <point x="200" y="720" type="curve"/>
      <point x="363" y="826" type="line"/>
      <point x="306" y="826" type="line"/>
      <point x="469" y="720" type="line"/>
      <point x="482" y="726"/>
      <point x="490" y="738"/>
      <point x="497" y="748" type="curve"/>
    </contour>
  </outline>
</glyph>
<glyph name="Otilde" format="1">
  <advance width="642"/>
  <unicode hex="00D5"/>
  <outline>
    <contour>
      <point x="333" y="692" type="curve" smooth="yes"/>
      <point x="142" y="692"/>
      <point x="35" y="538"/>
      <point x="39" y="315" type="curve" smooth="yes"/>
      <point x="43" y="111"/>
      <point x="141" y="-15"/>
      <point x="304" y="-15" type="curve" smooth="yes"/>
      <point x="504" y="-15"/>
      <point x="605" y="138"/>
      <point x="603" y="356" type="curve" smooth="yes"/>
      <point x="599" y="627"/>
      <point x="449" y="692"/>
    </contour>
    <contour>
      <point x="321" y="639" type="curve" smooth="yes"/>
      <point x="469" y="640"/>
      <point x="530" y="510"/>
      <point x="530" y="336" type="curve" smooth="yes"/>
      <point x="530" y="162"/>
      <point x="464" y="39"/>
      <point x="319" y="38" type="curve" smooth="yes"/>
      <point x="172" y="38"/>
      <point x="113" y="167"/>
      <point x="113" y="336" type="curve" smooth="yes"/>
      <point x="113" y="516"/>
      <point x="178" y="638"/>
    </contour>
    <contour>
      <point x="199" y="756" type="line"/>
      <point x="207" y="779"/>
      <point x="227" y="803"/>
      <point x="254" y="803" type="curve" smooth="yes"/>
      <point x="304" y="803"/>
      <point x="331" y="753"/>
      <point x="395" y="753" type="curve" smooth="yes"/>
      <point x="458" y="753"/>
      <point x="491" y="798"/>
      <point x="501" y="856" type="curve"/>
      <point x="471" y="865" type="line"/>
      <point x="464" y="836"/>
      <point x="441" y="813"/>
      <point x="408" y="813" type="curve" smooth="yes"/>
      <point x="354" y="813"/>
      <point x="331" y="866"/>
      <point x="271" y="866" type="curve" smooth="yes"/>
      <point x="226" y="866"/>
      <point x="183" y="832"/>
      <point x="169" y="767" type="curve"/>
    </contour>
  </outline>
</glyph>
<glyph name="Odieresis" format="1">
  <advance width="642"/>
  <unicode hex="00D6"/>
  <outline>
    <contour>
      <point x="333" y="692" type="curve" smooth="yes"/>
      <point x="142" y="692"/>
      <point x="35" y="538"/>
      <point x="39" y="315" type="curve" smooth="yes"/>
      <point x="43" y="111"/>
      <point x="141" y="-15"/>
      <point x="304" y="-15" type="curve" smooth="yes"/>
      <point x="504" y="-15"/>
      <point x="605" y="138"/>
      <point x="603" y="356" type="curve" smooth="yes"/>
      <point x="599" y="627"/>
      <point x="449" y="692"/>
    </contour>
    <contour>
      <point x="321" y="639" type="curve" smooth="yes"/>
      <point x="469" y="640"/>
      <point x="530" y="510"/>
      <point x="530" y="336" type="curve" smooth="yes"/>
      <point x="530" y="162"/>
      <point x="464" y="39"/>
      <point x="319" y="38" type="curve" smooth="yes"/>
      <point x="172" y="38"/>
      <point x="113" y="167"/>
      <point x="113" y="336" type="curve" smooth="yes"/>
      <point x="113" y="516"/>
      <point x="178" y="638"/>
    </contour>
    <contour>
      <point x="252" y="751" type="curve" smooth="yes"/>
      <point x="281" y="751"/>
      <point x="303" y="774"/>
      <point x="303" y="803" type="curve" smooth="yes"/>
      <point x="303" y="830"/>
      <point x="281" y="855"/>
      <point x="252" y="855" type="curve" smooth="yes"/>
      <point x="222" y="855"/>
      <point x="199" y="830"/>
      <point x="199" y="803" type="curve" smooth="yes"/>
      <point x="199" y="774"/>
      <point x="222" y="751"/>
    </contour>
    <contour>
      <point x="415" y="751" type="curve" smooth="yes"/>
      <point x="446" y="751"/>
      <point x="468" y="774"/>
      <point x="468" y="803" type="curve" smooth="yes"/>
      <point x="468" y="830"/>
      <point x="446" y="855"/>
      <point x="415" y="855" type="curve" smooth="yes"/>
      <point x="387" y="855"/>
      <point x="364" y="830"/>
      <point x="364" y="803" type="curve" smooth="yes"/>
      <point x="364" y="774"/>
      <point x="387" y="751"/>
    </contour>
  </outline>
</glyph>
<glyph name="multiply" format="1">
  <advance width="420"/>
  <unicode hex="00D7"/>
  <outline>
    <contour>
      <point x="90" y="446" type="line"/>
      <point x="50" y="405" type="line"/>
      <point x="329" y="126" type="line"/>
      <point x="369" y="167" type="line"/>
    </contour>
    <contour>
      <point x="370" y="405" type="line"/>
      <point x="329" y="446" type="line"/>
      <point x="50" y="167" type="line"/>
      <point x="91" y="126" type="line"/>
    </contour>
  </outline>
</glyph>
<glyph name="Oslash" format="1">
  <advance width="684"/>
  <unicode hex="00D8"/>
  <outline>
    <contour>
      <point x="126" y="13" type="line"/>
      <point x="179" y="-16" type="line"/>
      <point x="575" y="665" type="line"/>
      <point x="522" y="692" type="line"/>
    </contour>
    <component base="O"/>
  </outline>
</glyph>
<glyph name="Uacute" format="1">
  <advance width="646"/>
  <unicode hex="00DA"/>
  <outline>
    <contour>
      <point x="450" y="677" type="line"/>
      <point x="417" y="677"/>
      <point x="421" y="643"/>
      <point x="422" y="633" type="curve"/>
      <point x="495" y="627" type="line"/>
      <point x="495" y="242" type="line" smooth="yes"/>
      <point x="495" y="100"/>
      <point x="429" y="37"/>
      <point x="321" y="37" type="curve" smooth="yes"/>
      <point x="226" y="37"/>
      <point x="167" y="96"/>
      <point x="167" y="245" type="curve" smooth="yes"/>
      <point x="168" y="629" type="line"/>
      <point x="213" y="631" type="line" smooth="yes"/>
      <point x="250" y="634"/>
      <point x="244" y="667"/>
      <point x="245" y="677" type="curve"/>
      <point x="50" y="677" type="line" smooth="yes"/>
      <point x="18" y="677"/>
      <point x="22" y="643"/>
      <point x="23" y="633" type="curve"/>
      <point x="96" y="627" type="line"/>
      <point x="96" y="241" type="line" smooth="yes"/>
      <point x="96" y="87"/>
      <point x="153" y="-15"/>
      <point x="312" y="-15" type="curve" smooth="yes"/>
      <point x="480" y="-15"/>
      <point x="549" y="91"/>
      <point x="549" y="254" type="curve" smooth="yes"/>
      <point x="549" y="629" type="line"/>
      <point x="593" y="631" type="line" smooth="yes"/>
      <point x="629" y="634"/>
      <point x="623" y="667"/>
      <point x="624" y="677" type="curve"/>
    </contour>
    <contour>
      <point x="474" y="836" type="line"/>
      <point x="463" y="858"/>
      <point x="436" y="883"/>
      <point x="411" y="886" type="curve"/>
      <point x="246" y="759" type="line"/>
      <point x="252" y="748"/>
      <point x="261" y="737"/>
      <point x="276" y="730" type="curve"/>
    </contour>
  </outline>
</glyph>
<glyph name="Ucircumflex" format="1">
  <advance width="646"/>
  <unicode hex="00DB"/>
  <outline>
    <contour>
      <point x="450" y="677" type="line"/>
      <point x="417" y="677"/>
      <point x="421" y="643"/>
      <point x="422" y="633" type="curve"/>
      <point x="495" y="627" type="line"/>
      <point x="495" y="242" type="line" smooth="yes"/>
      <point x="495" y="100"/>
      <point x="429" y="37"/>
      <point x="321" y="37" type="curve" smooth="yes"/>
      <point x="226" y="37"/>
      <point x="167" y="96"/>
      <point x="167" y="245" type="curve" smooth="yes"/>
      <point x="168" y="629" type="line"/>
      <point x="213" y="631" type="line" smooth="yes"/>
      <point x="250" y="634"/>
      <point x="244" y="667"/>
      <point x="245" y="677" type="curve"/>
      <point x="50" y="677" type="line" smooth="yes"/>
      <point x="18" y="677"/>
      <point x="22" y="643"/>
      <point x="23" y="633" type="curve"/>
      <point x="96" y="627" type="line"/>
      <point x="96" y="241" type="line" smooth="yes"/>
      <point x="96" y="87"/>
      <point x="153" y="-15"/>
      <point x="312" y="-15" type="curve" smooth="yes"/>
      <point x="480" y="-15"/>
      <point x="549" y="91"/>
      <point x="549" y="254" type="curve" smooth="yes"/>
      <point x="549" y="629" type="line"/>
      <point x="593" y="631" type="line" smooth="yes"/>
      <point x="629" y="634"/>
      <point x="623" y="667"/>
      <point x="624" y="677" type="curve"/>
    </contour>
    <contour>
      <point x="357" y="869" type="line"/>
      <point x="339" y="874"/>
      <point x="317" y="874"/>
      <point x="295" y="869" type="curve"/>
      <point x="163" y="748" type="line"/>
      <point x="170" y="736"/>
      <point x="178" y="727"/>
      <point x="191" y="720" type="curve"/>
      <point x="354" y="826" type="line"/>
      <point x="298" y="826" type="line"/>
      <point x="460" y="720" type="line"/>
      <point x="473" y="726"/>
      <point x="482" y="738"/>
      <point x="488" y="748" type="curve"/>
    </contour>
  </outline>
</glyph>
<glyph name="Udieresis" format="1">
  <advance width="646"/>
  <unicode hex="00DC"/>
  <outline>
    <contour>
      <point x="450" y="677" type="line"/>
      <point x="417" y="677"/>
      <point x="421" y="643"/>
      <point x="422" y="633" type="curve"/>
      <point x="495" y="627" type="line"/>
      <point x="495" y="242" type="line" smooth="yes"/>
      <point x="495" y="100"/>
      <point x="429" y="37"/>
      <point x="321" y="37" type="curve" smooth="yes"/>
      <point x="226" y="37"/>
      <point x="167" y="96"/>
      <point x="167" y="245" type="curve" smooth="yes"/>
      <point x="168" y="629" type="line"/>
      <point x="213" y="631" type="line" smooth="yes"/>
      <point x="250" y="634"/>
      <point x="244" y="667"/>
      <point x="245" y="677" type="curve"/>
      <point x="50" y="677" type="line" smooth="yes"/>
      <point x="18" y="677"/>
      <point x="22" y="643"/>
      <point x="23" y="633" type="curve"/>
      <point x="96" y="627" type="line"/>
      <point x="96" y="241" type="line" smooth="yes"/>
      <point x="96" y="87"/>
      <point x="153" y="-15"/>
      <point x="312" y="-15" type="curve" smooth="yes"/>
      <point x="480" y="-15"/>
      <point x="549" y="91"/>
      <point x="549" y="254" type="curve" smooth="yes"/>
      <point x="549" y="629" type="line"/>
      <point x="593" y="631" type="line" smooth="yes"/>
      <point x="629" y="634"/>
      <point x="623" y="667"/>
      <point x="624" y="677" type="curve"/>
    </contour>
    <contour>
      <point x="243" y="751" type="curve" smooth="yes"/>
      <point x="272" y="751"/>
      <point x="294" y="774"/>
      <point x="294" y="803" type="curve" smooth="yes"/>
      <point x="294" y="830"/>
      <point x="272" y="855"/>
      <point x="243" y="855" type="curve" smooth="yes"/>
      <point x="214" y="855"/>
      <point x="190" y="830"/>
      <point x="190" y="803" type="curve" smooth="yes"/>
      <point x="190" y="774"/>
      <point x="214" y="751"/>
    </contour>
    <contour>
      <point x="406" y="751" type="curve" smooth="yes"/>
      <point x="437" y="751"/>
      <point x="459" y="774"/>
      <point x="459" y="803" type="curve" smooth="yes"/>
      <point x="459" y="830"/>
      <point x="437" y="855"/>
      <point x="406" y="855" type="curve" smooth="yes"/>
      <point x="379" y="855"/>
      <point x="355" y="830"/>
      <point x="355" y="803" type="curve" smooth="yes"/>
      <point x="355" y="774"/>
      <point x="379" y="751"/>
    </contour>
  </outline>
</glyph>
<glyph name="Thorn" format="1">
  <advance width="600"/>
  <unicode hex="00DE"/>
  <outline>
    <contour>
      <point x="171" y="549" type="line"/>
      <point x="175" y="504" type="line"/>
      <point x="241" y="504" type="line" smooth="yes"/>
      <point x="385" y="504"/>
      <point x="452" y="458"/>
      <point x="452" y="348" type="curve" smooth="yes"/>
      <point x="452" y="243"/>
      <point x="386" y="192"/>
      <point x="244" y="192" type="curve" smooth="yes"/>
      <point x="226" y="192"/>
      <point x="191" y="193"/>
      <point x="170" y="194" type="curve"/>
      <point x="170" y="148" type="line"/>
      <point x="191" y="146"/>
      <point x="233" y="146"/>
      <point x="255" y="146" type="curve" smooth="yes"/>
      <point x="414" y="146"/>
      <point x="532" y="202"/>
      <point x="532" y="359" type="curve" smooth="yes"/>
      <point x="532" y="466"/>
      <point x="455" y="549"/>
      <point x="278" y="549" type="curve" smooth="yes"/>
    </contour>
    <contour>
      <point x="191" y="50" type="line"/>
      <point x="119" y="48" type="line"/>
      <point x="73" y="46" type="line" smooth="yes"/>
      <point x="37" y="43"/>
      <point x="43" y="10"/>
      <point x="42" y="0" type="curve"/>
      <point x="237" y="0" type="line" smooth="yes"/>
      <point x="269" y="0"/>
      <point x="265" y="34"/>
      <point x="264" y="44" type="curve"/>
    </contour>
    <contour>
      <point x="119" y="649" type="line"/>
      <point x="119" y="0" type="line"/>
      <point x="191" y="0" type="line"/>
      <point x="191" y="649" type="line"/>
    </contour>
    <contour>
      <point x="73" y="679" type="line"/>
      <point x="41" y="679"/>
      <point x="45" y="644"/>
      <point x="46" y="634" type="curve"/>
      <point x="119" y="628" type="line"/>
      <point x="191" y="630" type="line"/>
      <point x="237" y="633" type="line" smooth="yes"/>
      <point x="273" y="635"/>
      <point x="267" y="669"/>
      <point x="268" y="679" type="curve"/>
    </contour>
  </outline>
</glyph>
<glyph name="germandbls" format="1">
  <advance width="602"/>
  <unicode hex="00DF"/>
  <outline>
    <contour>
      <point x="344" y="710" type="curve" smooth="yes"/>
      <point x="225" y="712"/>
      <point x="120" y="649"/>
      <point x="120" y="453" type="curve" smooth="yes"/>
      <point x="120" y="0" type="line"/>
      <point x="189" y="0" type="line"/>
      <point x="189" y="464" type="line" smooth="yes"/>
      <point x="189" y="577"/>
      <point x="235" y="661"/>
      <point x="344" y="661" type="curve" smooth="yes"/>
      <point x="429" y="661"/>
      <point x="439" y="612"/>
      <point x="439" y="587" type="curve" smooth="yes"/>
      <point x="439" y="497"/>
      <point x="290" y="471"/>
      <point x="290" y="359" type="curve" smooth="yes"/>
      <point x="290" y="288"/>
      <point x="354" y="255"/>
      <point x="418" y="221" type="curve" smooth="yes"/>
      <point x="470" y="194"/>
      <point x="516" y="176"/>
      <point x="516" y="123" type="curve" smooth="yes"/>
      <point x="516" y="76"/>
      <point x="477" y="37"/>
      <point x="420" y="37" type="curve" smooth="yes"/>
      <point x="363" y="37"/>
      <point x="327" y="73"/>
      <point x="316" y="126" type="curve"/>
      <point x="289" y="126"/>
      <point x="268" y="111"/>
      <point x="268" y="78" type="curve" smooth="yes"/>
      <point x="268" y="18"/>
      <point x="338" y="-15"/>
      <point x="407" y="-15" type="curve" smooth="yes"/>
      <point x="517" y="-15"/>
      <point x="579" y="69"/>
      <point x="579" y="143" type="curve" smooth="yes"/>
      <point x="579" y="214"/>
      <point x="523" y="247"/>
      <point x="456" y="279" type="curve" smooth="yes"/>
      <point x="414" y="298"/>
      <point x="354" y="327"/>
      <point x="354" y="372" type="curve" smooth="yes"/>
      <point x="354" y="448"/>
      <point x="505" y="475"/>
      <point x="505" y="591" type="curve" smooth="yes"/>
      <point x="505" y="678"/>
      <point x="426" y="709"/>
    </contour>
    <contour>
      <point x="172" y="46" type="line"/>
      <point x="77" y="43" type="line" smooth="yes"/>
      <point x="40" y="41"/>
      <point x="46" y="10"/>
      <point x="45" y="0" type="curve"/>
      <point x="168" y="0" type="line"/>
    </contour>
  </outline>
</glyph>
